<svg width="45" height="48" viewBox="0 0 45 48" fill="none" xmlns="http://www.w3.org/2000/svg">
<path d="M11.25 11.25C17.4632 5.0368 27.5368 5.0368 33.75 11.25V11.25C39.9632 17.4632 39.9632 27.5368 33.75 33.75L22.5 45L11.25 33.75C5.03679 27.5368 5.03679 17.4632 11.25 11.25V11.25Z" fill="#7FD13E"/>
<path d="M16 24.6364V27C16 28.1046 16.8954 29 18 29H26C27.1046 29 28 28.1046 28 27V24.6364M16 24.6364V19C16 17.8954 16.8954 17 18 17H26C27.1046 17 28 17.8954 28 19V24.6364M16 24.6364L18.7234 22.2761C19.4998 21.6032 20.6596 21.628 21.4065 22.3334L23.2674 24.0909M25 25.7273L23.2674 24.0909M23.2674 24.0909C23.3028 23.9907 23.5946 23.6947 23.9615 23.3511C24.695 22.6642 25.8316 22.6848 26.5785 23.357L28 24.6364" stroke="white" stroke-linecap="round" stroke-linejoin="round"/>
</svg>
