<svg width="19" height="18" viewBox="0 0 19 18" fill="none" xmlns="http://www.w3.org/2000/svg">
<circle cx="9.44482" cy="9" r="1.59326" stroke="#36415D" stroke-linecap="square"/>
<path d="M5.69531 5.69238C4.91736 6.5738 4.44531 7.73161 4.44531 8.99966C4.44531 10.2677 4.91736 11.4255 5.69531 12.3069M13.1953 5.69238C13.9733 6.5738 14.4453 7.73161 14.4453 8.99966C14.4453 10.2677 13.9733 11.4255 13.1953 12.3069" stroke="#36415D" stroke-linecap="round"/>
<path d="M3.82031 4C2.65338 5.33254 1.94531 7.08293 1.94531 9C1.94531 10.9171 2.65338 12.6675 3.82031 14M15.0703 4C16.2372 5.33254 16.9453 7.08293 16.9453 9C16.9453 10.9171 16.2372 12.6675 15.0703 14" stroke="#36415D" stroke-linecap="round"/>
</svg>
