<svg width="19" height="18" viewBox="0 0 19 18" fill="none" xmlns="http://www.w3.org/2000/svg">
<path d="M2.05933 5.78418L17.4842 11.6065" stroke="#36415D" stroke-linecap="round" stroke-linejoin="round"/>
<path d="M17.483 9.00412C17.483 6.59668 16.3802 4.44684 14.6521 3.03223M4.88631 3.03223C4.6751 3.19469 4.23411 3.61652 3.86928 4.03964M17.0866 11.4974C16.9416 11.891 16.5525 12.8085 16.1568 13.33C15.7369 13.9489 15.2294 14.5035 14.6521 14.976M2.59469 6.165C2.24667 7.0437 2.05542 8.00158 2.05542 9.00412C2.05542 11.4115 3.15827 13.5614 4.88631 14.976" stroke="#36415D" stroke-linecap="round"/>
<path d="M12.0009 9.58929C11.7156 10.5506 10.8255 11.2517 9.77161 11.2517C8.48751 11.2517 7.44653 10.2107 7.44653 8.92664C7.44653 8.59261 7.51697 8.27503 7.64381 7.98794M8.83922 6.79606C9.12465 6.67097 9.44002 6.60156 9.77161 6.60156C10.6521 6.60156 11.4182 7.09095 11.8129 7.81256" stroke="#36415D" stroke-linecap="round"/>
</svg>
