<svg width="18" height="18" viewBox="0 0 18 18" fill="none" xmlns="http://www.w3.org/2000/svg">
<path d="M5.24456 8.01892L2.24141 13.0324C2.12548 13.2332 2.06413 13.4608 2.06348 13.6927C2.06283 13.9245 2.1229 14.1525 2.23771 14.3539C2.35252 14.5554 2.51807 14.7232 2.71789 14.8408C2.91771 14.9584 3.14483 15.0216 3.37667 15.0241H14.623C14.8548 15.0216 15.0819 14.9584 15.2818 14.8408C15.4816 14.7232 15.6471 14.5554 15.7619 14.3539C15.9928 13.8178 15.8581 13.2495 15.7619 13.0324L15.0918 11.9165L14.9758 11.7233M6.3618 6.15378L7.17137 4.80226L7.86457 3.64502C7.98292 3.4499 8.14957 3.28859 8.34842 3.17663C8.54727 3.06467 8.77162 3.00586 8.99983 3.00586C9.22803 3.00586 9.45238 3.06467 9.65123 3.17663C9.85009 3.28859 10.0167 3.4499 10.1351 3.64502L13.2723 8.88239" stroke="#36415D" stroke-linecap="round"/>
<path d="M8.99902 6.16392L8.99902 7.50775M8.99902 11.146L8.99902 9.69741" stroke="#36415D" stroke-linecap="round" stroke-linejoin="round"/>
<path d="M8.99902 12.918H9.0062" stroke="#36415D" stroke-width="1.5" stroke-linecap="round" stroke-linejoin="round"/>
<path d="M1.84814 6.70557L16.1524 12.1049" stroke="#36415D" stroke-linecap="round" stroke-linejoin="round"/>
</svg>
