<svg width="19" height="18" viewBox="0 0 19 18" fill="none" xmlns="http://www.w3.org/2000/svg">
<path d="M8.63698 3.6256L3.02144 13.0003C2.90566 13.2008 2.8444 13.4281 2.84376 13.6596C2.84311 13.8912 2.90309 14.1188 3.01775 14.32C3.1324 14.5211 3.29773 14.6888 3.49728 14.8062C3.69683 14.9236 3.92364 14.9867 4.15516 14.9893H15.3862C15.6177 14.9867 15.8446 14.9236 16.0441 14.8062C16.2436 14.6888 16.409 14.5211 16.5236 14.32C16.6383 14.1188 16.6983 13.8912 16.6976 13.6596C16.697 13.4281 16.6357 13.2008 16.5199 13.0003L10.9044 3.6256C10.7862 3.43075 10.6198 3.26965 10.4212 3.15784C10.2226 3.04604 9.99858 2.9873 9.77069 2.9873C9.5428 2.9873 9.31875 3.04604 9.12017 3.15784C8.92158 3.26965 8.75517 3.43075 8.63698 3.6256Z" stroke="#36415D" stroke-linecap="round"/>
<path d="M9.77197 7.0332V9.68517" stroke="#36415D" stroke-linecap="round" stroke-linejoin="round"/>
<path d="M9.77197 12.3369H9.78016" stroke="#36415D" stroke-width="2" stroke-linecap="round" stroke-linejoin="round"/>
</svg>
