<svg width="33" height="32" viewBox="0 0 33 32" fill="none" xmlns="http://www.w3.org/2000/svg">
<path d="M18.5 4H14.5C13.3954 4 12.5 4.89543 12.5 6V16C12.5 17.1046 13.3954 18 14.5 18H18.5C19.6046 18 20.5 17.1046 20.5 16V6C20.5 4.89543 19.6046 4 18.5 4Z" stroke="#888888" stroke-linecap="round" stroke-linejoin="round"/>
<path d="M16.5 13.0038C17.6046 13.0038 18.5 12.1075 18.5 11.0019C18.5 9.89627 17.6046 9 16.5 9C15.3954 9 14.5 9.89627 14.5 11.0019C14.5 12.1075 15.3954 13.0038 16.5 13.0038Z" stroke="#888888" stroke-linecap="round" stroke-linejoin="round"/>
<path d="M22.5 3.5H10.5C9.67157 3.5 9 4.17157 9 5V17C9 17.8284 9.67157 18.5 10.5 18.5H22.5C23.3284 18.5 24 17.8284 24 17V5C24 4.17157 23.3284 3.5 22.5 3.5Z" stroke="#888888"/>
<path d="M11 29.0001L16.0528 18.8945C16.237 18.526 16.763 18.526 16.9472 18.8945L22 29.0001" stroke="#888888" stroke-linecap="round"/>
<path d="M16.5 19V29" stroke="#888888" stroke-linecap="round"/>
</svg>
