<svg width="46" height="59" viewBox="0 0 46 59" fill="none" xmlns="http://www.w3.org/2000/svg">
<g filter="url(#filter0_d_4_9494)">
<path d="M11.759 11.3137C18.0074 5.06532 28.1381 5.06532 34.3865 11.3137C40.6349 17.5621 40.6349 27.6927 34.3865 33.9411L23.0728 45.2548L11.759 33.9411C5.51066 27.6927 5.51066 17.5621 11.759 11.3137Z" fill="#4388EF"/>
<path d="M22.7192 45.6084L23.0728 45.9619L23.4263 45.6084L34.74 34.2947C41.1837 27.851 41.1837 17.4038 34.74 10.9602C28.2964 4.5165 17.8491 4.5165 11.4055 10.9602C4.96184 17.4038 4.96184 27.851 11.4055 34.2947L22.7192 45.6084Z" stroke="#6E7580"/>
</g>
<path d="M12.1126 11.6673C18.1657 5.61414 27.9798 5.61414 34.0329 11.6673C40.086 17.7204 40.086 27.5344 34.0329 33.5876L23.0728 44.5477L12.1126 33.5876C6.05947 27.5344 6.05947 17.7204 12.1126 11.6673Z" fill="#F1742E" stroke="white"/>
<path d="M30.4458 27.1818C30.4458 27.5194 30.3117 27.8431 30.073 28.0818C29.8343 28.3205 29.5106 28.4545 29.1731 28.4545H17.7185C17.381 28.4545 17.0573 28.3205 16.8186 28.0818C16.5799 27.8431 16.4458 27.5194 16.4458 27.1818V20.1818C16.4458 19.8443 16.5799 19.5205 16.8186 19.2819C17.0573 19.0432 17.381 18.9091 17.7185 18.9091H19.5828C20.0084 18.9091 20.4058 18.6964 20.6418 18.3423L21.1589 17.5667C21.3949 17.2127 21.7923 17 22.2179 17H24.6737C25.0993 17 25.4967 17.2127 25.7327 17.5667L26.2498 18.3423C26.4858 18.6964 26.8832 18.9091 27.3088 18.9091H29.1731C29.5106 18.9091 29.8343 19.0432 30.073 19.2819C30.3117 19.5205 30.4458 19.8443 30.4458 20.1818V27.1818Z" fill="white"/>
<path d="M23.4458 25.909C24.8517 25.909 25.9913 24.7694 25.9913 23.3636C25.9913 21.9578 24.8517 20.8181 23.4458 20.8181C22.04 20.8181 20.9004 21.9578 20.9004 23.3636C20.9004 24.7694 22.04 25.909 23.4458 25.909Z" fill="#F1742E"/>
<defs>
<filter id="filter0_d_4_9494" x="1.07275" y="5.62744" width="44" height="53.0415" filterUnits="userSpaceOnUse" color-interpolation-filters="sRGB">
<feFlood flood-opacity="0" result="BackgroundImageFix"/>
<feColorMatrix in="SourceAlpha" type="matrix" values="0 0 0 0 0 0 0 0 0 0 0 0 0 0 0 0 0 0 127 0" result="hardAlpha"/>
<feOffset dy="7"/>
<feGaussianBlur stdDeviation="2.5"/>
<feComposite in2="hardAlpha" operator="out"/>
<feColorMatrix type="matrix" values="0 0 0 0 0 0 0 0 0 0 0 0 0 0 0 0 0 0 0.5 0"/>
<feBlend mode="normal" in2="BackgroundImageFix" result="effect1_dropShadow_4_9494"/>
<feBlend mode="normal" in="SourceGraphic" in2="effect1_dropShadow_4_9494" result="shape"/>
</filter>
</defs>
</svg>
