<svg width="19" height="18" viewBox="0 0 19 18" fill="none" xmlns="http://www.w3.org/2000/svg">
<g clip-path="url(#clip0_4_6953)">
<path d="M11.3949 4.19727H12.594C12.9121 4.19727 13.2171 4.3236 13.442 4.54848C13.6668 4.77336 13.7932 5.07836 13.7932 5.39639V8.29741M4.2002 7.37207V13.7902C4.2002 14.1083 4.32653 14.4133 4.55141 14.6381C4.77629 14.863 5.08129 14.9894 5.39932 14.9894H12.594C12.9121 14.9894 13.2171 14.863 13.442 14.6381C13.6668 14.4133 13.7932 14.1083 13.7932 13.7902V11.0272M6.59844 4.19727H4.93827C4.53064 4.19727 4.2002 4.52771 4.2002 4.93534V4.93534" stroke="#36415D" stroke-linecap="round" stroke-linejoin="round"/>
<path d="M10.7975 2.99805H7.20015C6.86902 2.99805 6.60059 3.26648 6.60059 3.59761V4.79673C6.60059 5.12786 6.86902 5.39629 7.20015 5.39629H10.7975C11.1286 5.39629 11.3971 5.12786 11.3971 4.79673V3.59761C11.3971 3.26648 11.1286 2.99805 10.7975 2.99805Z" stroke="#36415D" stroke-linecap="round" stroke-linejoin="round"/>
<path d="M0.819336 6.00195L16.2921 11.8423" stroke="#36415D" stroke-linecap="round" stroke-linejoin="round"/>
</g>
<defs>
<clipPath id="clip0_4_6953">
<rect width="18" height="18" fill="white" transform="translate(0.0336914)"/>
</clipPath>
</defs>
</svg>
