<svg width="19" height="18" viewBox="0 0 19 18" fill="none" xmlns="http://www.w3.org/2000/svg">
<path d="M12.0683 4.19727H13.2674C13.5854 4.19727 13.8904 4.3236 14.1153 4.54848C14.3402 4.77336 14.4665 5.07836 14.4665 5.39639V11.1947M7.27178 4.19727H5.87354C5.32125 4.19727 4.87354 4.64498 4.87354 5.19727V7.37207V13.7902C4.87354 14.1083 4.99987 14.4133 5.22475 14.6381C5.44963 14.863 5.75463 14.9894 6.07266 14.9894H13.2674C13.5854 14.9894 13.8904 14.863 14.1153 14.6381C14.3402 14.4133 14.4665 14.1083 14.4665 13.7902V11.0272" stroke="#36415D" stroke-linecap="round" stroke-linejoin="round"/>
<path d="M11.4709 2.99805H7.87349C7.54236 2.99805 7.27393 3.26648 7.27393 3.59761V4.79673C7.27393 5.12786 7.54236 5.39629 7.87349 5.39629H11.4709C11.802 5.39629 12.0704 5.12786 12.0704 4.79673V3.59761C12.0704 3.26648 11.802 2.99805 11.4709 2.99805Z" stroke="#36415D" stroke-linecap="round" stroke-linejoin="round"/>
</svg>
