<svg width="121" height="113" viewBox="0 0 121 113" fill="none" xmlns="http://www.w3.org/2000/svg">
<ellipse cx="56.1749" cy="56.5" rx="56.1749" ry="56.5" transform="matrix(-1 0 0 1 112.35 0)" fill="#FFF5EF"/>
<path d="M111.274 9.87326C109.404 11.3627 98.5957 19.2858 93.4257 23.0612M116.115 31.4707L97.9938 32.9213M90.831 1.73872L84.4427 15.39" stroke="#787878" stroke-linecap="round"/>
<path d="M8.68325 97.7339C9.69523 96.7261 15.5795 91.3142 18.395 88.7342M4.73571 85.0139L15.2187 83.0667" stroke="#787878" stroke-linecap="round"/>
<ellipse cx="13.4603" cy="13.14" rx="13.4603" ry="13.14" transform="matrix(-1 0 0 1 64.751 20)" fill="white" stroke="#787878"/>
<path d="M46.2916 51.375H56.2871C67.3328 51.375 76.2871 60.3293 76.2871 71.375V79.4965H26.2916V71.375C26.2916 60.3293 35.2459 51.375 46.2916 51.375Z" fill="white"/>
<path d="M26.2916 79.4965V71.375C26.2916 60.3293 35.2459 51.375 46.2916 51.375H56.2871C67.3328 51.375 76.2871 60.3293 76.2871 71.375V79.4965" stroke="#787878"/>
<ellipse cx="14.9538" cy="15" rx="14.9538" ry="15" transform="matrix(-1 0 0 1 93.9336 56)" fill="white" stroke="#F1742E"/>
<path d="M78.9824 64.3335V77.6668" stroke="#F1742E"/>
<path d="M85.6279 71.0002H72.3356" stroke="#F1742E"/>
</svg>
