<svg width="24" height="24" viewBox="0 0 24 24" fill="none" xmlns="http://www.w3.org/2000/svg">
<path d="M4 12C4 16.4183 7.58172 20 12 20C14.2474 20 16.2783 19.0733 17.7315 17.5812C19.1353 16.1399 20 14.1709 20 12C20 7.58172 16.4183 4 12 4C9.80628 4 7.81879 4.88297 6.37354 6.31291C4.90797 7.76295 4 9.77544 4 12Z" stroke="#EC3434" stroke-linecap="round"/>
<path d="M12.0391 8V12.8552" stroke="#EC3434" stroke-linecap="round"/>
<path d="M13.0808 15.9763C13.0808 16.5509 12.615 17.0167 12.0404 17.0167C11.4658 17.0167 11 16.5509 11 15.9763C11 15.4017 11.4658 14.9359 12.0404 14.9359C12.615 14.9359 13.0808 15.4017 13.0808 15.9763Z" fill="#EC3434"/>
</svg>
