<svg width="58" height="58" viewBox="0 0 58 58" fill="none" xmlns="http://www.w3.org/2000/svg">
<ellipse cx="29" cy="26" rx="24" ry="24" transform="rotate(-90 29 26)" fill="#ECECEC"/>
<g filter="url(#filter0_d_1222_86286)">
<circle cx="29" cy="26" r="21" transform="rotate(-90 29 26)" fill="#F1742E"/>
<circle cx="29" cy="26" r="20.5" transform="rotate(-90 29 26)" stroke="white"/>
</g>
<path d="M35 35C36.6569 35 38 33.6569 38 32C38 30.3431 36.6569 29 35 29C33.3431 29 32 30.3431 32 32C32 33.6569 33.3431 35 35 35Z" stroke="white" stroke-linecap="round" stroke-linejoin="round"/>
<path d="M23 23C24.6569 23 26 21.6569 26 20C26 18.3431 24.6569 17 23 17C21.3431 17 20 18.3431 20 20C20 21.6569 21.3431 23 23 23Z" stroke="white" stroke-linecap="round" stroke-linejoin="round"/>
<path d="M30 20H33C33.5304 20 34.0391 20.2107 34.4142 20.5858C34.7893 20.9609 35 21.4696 35 22V29" stroke="white" stroke-linecap="round" stroke-linejoin="round"/>
<path d="M23 23V35" stroke="white" stroke-linecap="round" stroke-linejoin="round"/>
<defs>
<filter id="filter0_d_1222_86286" x="0" y="0" width="58" height="58" filterUnits="userSpaceOnUse" color-interpolation-filters="sRGB">
<feFlood flood-opacity="0" result="BackgroundImageFix"/>
<feColorMatrix in="SourceAlpha" type="matrix" values="0 0 0 0 0 0 0 0 0 0 0 0 0 0 0 0 0 0 127 0" result="hardAlpha"/>
<feOffset dy="3"/>
<feGaussianBlur stdDeviation="4"/>
<feComposite in2="hardAlpha" operator="out"/>
<feColorMatrix type="matrix" values="0 0 0 0 0 0 0 0 0 0 0 0 0 0 0 0 0 0 0.2 0"/>
<feBlend mode="normal" in2="BackgroundImageFix" result="effect1_dropShadow_1222_86286"/>
<feBlend mode="normal" in="SourceGraphic" in2="effect1_dropShadow_1222_86286" result="shape"/>
</filter>
</defs>
</svg>
