<svg width="67" height="66" viewBox="0 0 67 66" fill="none" xmlns="http://www.w3.org/2000/svg">
<ellipse cx="31.8708" cy="32.0629" rx="31.8708" ry="32.0629" transform="matrix(-1 0 0 1 63.741 0)" fill="#FFF5EF"/>
<path d="M61.8883 6.41739C60.9053 7.20049 55.2242 11.3661 52.5067 13.351M64.4327 17.7724L54.9078 18.5351M51.1428 2.14061L47.7849 9.31786" stroke="#787878" stroke-linecap="round"/>
<path d="M11.9362 64.6844C12.3302 63.627 14.7684 57.7997 15.9382 55.0183M4.92425 56.8711L11.798 52.0061" stroke="#787878" stroke-linecap="round"/>
<ellipse cx="22.7316" cy="23.0365" rx="6.73822" ry="6.57945" fill="white" stroke="#787878"/>
<path d="M35.2445 46.2479V44.6808C35.2445 37.7696 29.6418 32.167 22.7306 32.167C15.8194 32.167 10.2168 37.7696 10.2168 44.6808V46.2479H35.2445Z" fill="white"/>
<path d="M35.2445 46.2479V44.6808C35.2445 37.7696 29.6418 32.167 22.7306 32.167V32.167C15.8194 32.167 10.2168 37.7696 10.2168 44.6808V46.2479" stroke="#787878"/>
<ellipse cx="34.4001" cy="19.9411" rx="7.63671" ry="7.45677" fill="white" stroke="#787878"/>
<path d="M48.5834 46.2476V44.4715C48.5834 36.6388 42.2337 30.2891 34.401 30.2891C26.5682 30.2891 20.2185 36.6388 20.2185 44.4715V46.2476H48.5834Z" fill="white"/>
<path d="M48.5834 46.2476V44.4715C48.5834 36.6388 42.2337 30.2891 34.401 30.2891V30.2891C26.5682 30.2891 20.2185 36.6388 20.2185 44.4715V46.2476" stroke="#787878"/>
<ellipse cx="8.48404" cy="8.51227" rx="8.48404" ry="8.51227" transform="matrix(-1 0 0 1 56.3132 32.915)" fill="white" stroke="#F1742E"/>
<path d="M47.8325 43.8115V36.9839" stroke="#F1742E" stroke-linecap="round"/>
<path d="M44.9795 39.8406L47.8308 36.9835L50.6821 39.8406" stroke="#F1742E" stroke-linecap="round"/>
<path d="M44.2891 45.5186H51.6706" stroke="#F1742E" stroke-linecap="round"/>
</svg>
