<svg width="16" height="14" viewBox="0 0 16 14" fill="none" xmlns="http://www.w3.org/2000/svg">
<path d="M15.4993 11.6549C15.4993 12.0077 15.3592 12.346 15.1098 12.5954C14.8604 12.8448 14.5221 12.9849 14.1693 12.9849H2.19916C1.84642 12.9849 1.50812 12.8448 1.25869 12.5954C1.00927 12.346 0.869141 12.0077 0.869141 11.6549V4.33982C0.869141 3.98707 1.00927 3.64878 1.25869 3.39935C1.50812 3.14992 1.84642 3.0098 2.19916 3.0098H4.14739C4.59209 3.0098 5.00736 2.78755 5.25403 2.41754L5.79438 1.60703C6.04105 1.23702 6.45632 1.01477 6.90102 1.01477H9.46747C9.91216 1.01477 10.3274 1.23702 10.5741 1.60703L11.1145 2.41754C11.3611 2.78755 11.7764 3.0098 12.2211 3.0098H14.1693C14.5221 3.0098 14.8604 3.14992 15.1098 3.39935C15.3592 3.64878 15.4993 3.98707 15.4993 4.33982V11.6549Z" stroke="#36415D" stroke-linecap="square"/>
<path d="M8.18348 10.3252C9.65257 10.3252 10.8435 9.13426 10.8435 7.66516C10.8435 6.19607 9.65257 5.00513 8.18348 5.00513C6.71438 5.00513 5.52344 6.19607 5.52344 7.66516C5.52344 9.13426 6.71438 10.3252 8.18348 10.3252Z" stroke="#36415D" stroke-linecap="square"/>
</svg>
