<svg width="19" height="18" viewBox="0 0 19 18" fill="none" xmlns="http://www.w3.org/2000/svg">
<path d="M16.3802 13.6549C16.3802 14.0077 16.2401 14.346 15.9907 14.5954C15.7412 14.8448 15.4029 14.9849 15.0502 14.9849H3.08002C2.72728 14.9849 2.38898 14.8448 2.13955 14.5954C1.89013 14.346 1.75 14.0077 1.75 13.6549V6.33982C1.75 5.98707 1.89013 5.64878 2.13955 5.39935C2.38898 5.14992 2.72728 5.0098 3.08002 5.0098H5.02825C5.47295 5.0098 5.88822 4.78755 6.13489 4.41754L6.67524 3.60703C6.92191 3.23702 7.33718 3.01477 7.78188 3.01477H10.3483C10.793 3.01477 11.2083 3.23702 11.455 3.60703L11.9953 4.41754C12.242 4.78755 12.6573 5.0098 13.102 5.0098H15.0502C15.4029 5.0098 15.7412 5.14992 15.9907 5.39935C16.2401 5.64878 16.3802 5.98707 16.3802 6.33982V13.6549Z" stroke="#36415D" stroke-linecap="square"/>
<path d="M9.06433 12.3252C10.5334 12.3252 11.7244 11.1343 11.7244 9.66516C11.7244 8.19607 10.5334 7.00513 9.06433 7.00513C7.59524 7.00513 6.4043 8.19607 6.4043 9.66516C6.4043 11.1343 7.59524 12.3252 9.06433 12.3252Z" stroke="#36415D" stroke-linecap="square"/>
</svg>
