<svg width="24" height="24" viewBox="0 0 24 24" fill="none" xmlns="http://www.w3.org/2000/svg">
<path d="M21 15C21 15.5304 20.7893 16.0391 20.4142 16.4142C20.0391 16.7893 19.5304 17 19 17H7.82843C7.29799 17 6.78929 17.2107 6.41421 17.5858L3.85355 20.1464C3.53857 20.4614 3 20.2383 3 19.7929V5C3 4.46957 3.21071 3.96086 3.58579 3.58579C3.96086 3.21071 4.46957 3 5 3H19C19.5304 3 20.0391 3.21071 20.4142 3.58579C20.7893 3.96086 21 4.46957 21 5V15Z" stroke="#101F4C" stroke-linecap="round"/>
<path d="M7.1333 7.7334H17.2666" stroke="#101F4C" stroke-linecap="round"/>
<path d="M7.1333 11.4667H14.6" stroke="#101F4C" stroke-linecap="round"/>
</svg>
