<svg width="19" height="18" viewBox="0 0 19 18" fill="none" xmlns="http://www.w3.org/2000/svg">
<path d="M12.0678 4.19739H13.2669C13.5849 4.19739 13.8899 4.32372 14.1148 4.5486C14.3397 4.77348 14.466 5.07848 14.466 5.39651V11.1949M7.27129 4.19739H5.87305C5.32076 4.19739 4.87305 4.6451 4.87305 5.19739V7.37219V13.7904C4.87305 14.1084 4.99938 14.4134 5.22426 14.6383C5.44914 14.8631 5.75414 14.9895 6.07217 14.9895H13.2669C13.5849 14.9895 13.8899 14.8631 14.1148 14.6383C14.3397 14.4134 14.466 14.1084 14.466 13.7904V11.0273" stroke="#36415D" stroke-linecap="round" stroke-linejoin="round"/>
<path d="M11.4704 2.99817H7.873C7.54187 2.99817 7.27344 3.2666 7.27344 3.59773V4.79685C7.27344 5.12798 7.54187 5.39641 7.873 5.39641H11.4704C11.8015 5.39641 12.0699 5.12798 12.0699 4.79685V3.59773C12.0699 3.2666 11.8015 2.99817 11.4704 2.99817Z" stroke="#36415D" stroke-linecap="round" stroke-linejoin="round"/>
</svg>
