<svg width="19" height="18" viewBox="0 0 19 18" fill="none" xmlns="http://www.w3.org/2000/svg">
<path d="M11.5131 4.19727H12.7122C13.0302 4.19727 13.3352 4.3236 13.5601 4.54848C13.785 4.77336 13.9113 5.07836 13.9113 5.39639V11.1947M6.7166 4.19727H5.31836C4.76607 4.19727 4.31836 4.64498 4.31836 5.19727V7.37207V13.7902C4.31836 14.1083 4.44469 14.4133 4.66957 14.6381C4.89445 14.863 5.19945 14.9894 5.51748 14.9894H12.7122C13.0302 14.9894 13.3352 14.863 13.5601 14.6381C13.785 14.4133 13.9113 14.1083 13.9113 13.7902V11.0272" stroke="#36415D" stroke-linecap="round" stroke-linejoin="round"/>
<path d="M10.9157 2.99805H7.31831C6.98718 2.99805 6.71875 3.26648 6.71875 3.59761V4.79673C6.71875 5.12786 6.98718 5.39629 7.31831 5.39629H10.9157C11.2468 5.39629 11.5152 5.12786 11.5152 4.79673V3.59761C11.5152 3.26648 11.2468 2.99805 10.9157 2.99805Z" stroke="#36415D" stroke-linecap="round" stroke-linejoin="round"/>
</svg>
