<svg width="19" height="18" viewBox="0 0 19 18" fill="none" xmlns="http://www.w3.org/2000/svg">
<g clip-path="url(#clip0_1213_34054)">
<path d="M11.6225 4.19739H12.8216C13.1396 4.19739 13.4446 4.32372 13.6695 4.5486C13.8944 4.77348 14.0207 5.07848 14.0207 5.39651V8.29753M4.42773 7.37219V13.7904C4.42773 14.1084 4.55407 14.4134 4.77895 14.6383C5.00383 14.8631 5.30883 14.9895 5.62686 14.9895H12.8216C13.1396 14.9895 13.4446 14.8631 13.6695 14.6383C13.8944 14.4134 14.0207 14.1084 14.0207 13.7904V11.0273M6.82598 4.19739H5.16581C4.75818 4.19739 4.42773 4.52784 4.42773 4.93547V4.93547" stroke="#36415D" stroke-linecap="round" stroke-linejoin="round"/>
<path d="M11.0251 2.99817H7.42769C7.09656 2.99817 6.82812 3.2666 6.82812 3.59773V4.79685C6.82812 5.12798 7.09656 5.39641 7.42769 5.39641H11.0251C11.3562 5.39641 11.6246 5.12798 11.6246 4.79685V3.59773C11.6246 3.2666 11.3562 2.99817 11.0251 2.99817Z" stroke="#36415D" stroke-linecap="round" stroke-linejoin="round"/>
<path d="M1.04785 6.00195L16.5206 11.8423" stroke="#36415D" stroke-linecap="round" stroke-linejoin="round"/>
</g>
<defs>
<clipPath id="clip0_1213_34054">
<rect width="18" height="18" fill="white" transform="translate(0.261719)"/>
</clipPath>
</defs>
</svg>
