<svg width="19" height="18" viewBox="0 0 19 18" fill="none" xmlns="http://www.w3.org/2000/svg">
<path d="M5.81682 8.01892L2.81368 13.0324C2.69774 13.2332 2.6364 13.4608 2.63575 13.6927C2.6351 13.9245 2.69517 14.1525 2.80998 14.3539C2.92479 14.5554 3.09034 14.7232 3.29016 14.8408C3.48998 14.9584 3.7171 15.0216 3.94893 15.0241H15.1952C15.4271 15.0216 15.6542 14.9584 15.854 14.8408C16.0538 14.7232 16.2194 14.5554 16.3342 14.3539C16.565 13.8178 16.4304 13.2495 16.3342 13.0324L15.664 11.9165L15.548 11.7233M6.93406 6.15378L7.74364 4.80226L8.43684 3.64502C8.55519 3.4499 8.72183 3.28859 8.92068 3.17663C9.11954 3.06467 9.34389 3.00586 9.57209 3.00586C9.80029 3.00586 10.0246 3.06467 10.2235 3.17663C10.4224 3.28859 10.589 3.4499 10.7073 3.64502L13.8446 8.88239" stroke="#36415D" stroke-linecap="round"/>
<path d="M9.57129 6.1638L9.57129 7.50762M9.57129 11.1459L9.57129 9.69729" stroke="#36415D" stroke-linecap="round" stroke-linejoin="round"/>
<path d="M9.57129 12.9178H9.57847" stroke="#36415D" stroke-width="1.5" stroke-linecap="round" stroke-linejoin="round"/>
<path d="M2.41992 6.70557L16.7242 12.1049" stroke="#36415D" stroke-linecap="round" stroke-linejoin="round"/>
</svg>
