<svg width="18" height="18" viewBox="0 0 18 18" fill="none" xmlns="http://www.w3.org/2000/svg">
<path d="M10.593 8.68699C10.593 8.95356 10.4871 9.20922 10.2986 9.39772C10.1101 9.58622 9.85444 9.69211 9.58786 9.69211H4.38555C3.85512 9.69211 3.34641 9.90283 2.97133 10.2779L2.40043 10.8488C2.08545 11.1638 1.54688 10.9407 1.54688 10.4953V3.66137C1.54688 3.3948 1.65277 3.13914 1.84127 2.95064C2.02977 2.76215 2.28542 2.65625 2.552 2.65625H9.58786C9.85444 2.65625 10.1101 2.76215 10.2986 2.95064C10.4871 3.13914 10.593 3.3948 10.593 3.66137V8.68699Z" stroke="#36415D" stroke-linecap="round"/>
<path d="M10.6051 6.29688H15.45C15.7165 6.29688 15.9722 6.40277 16.1607 6.59127C16.3492 6.77977 16.4551 7.03542 16.4551 7.302V14.1359C16.4551 14.5813 15.9165 14.8044 15.6015 14.4894L15.0306 13.9185C14.6555 13.5435 14.1468 13.3327 13.6164 13.3327H8.41409C8.14752 13.3327 7.89186 13.2268 7.70336 13.0383C7.51487 12.8498 7.40897 12.5942 7.40897 12.3276V9.81481" stroke="#36415D" stroke-linecap="round"/>
</svg>