<svg width="154" height="20" viewBox="0 0 154 20" fill="none" xmlns="http://www.w3.org/2000/svg">
<path d="M15.5274 13.1528C13.5924 12.1521 11.6579 11.1514 9.72284 10.1507V3.10559C11.6579 4.01289 13.5924 4.91965 15.5274 5.82695V13.1528Z" fill="#36415D"/>
<path d="M2.19318 14.1084C4.3464 15.2712 6.49907 16.4339 8.65229 17.5967C8.65229 18.3976 8.65229 19.1985 8.65175 20C5.76783 18.4737 2.88392 16.947 0 15.4208V4.74329C0.73124 5.10405 1.46248 5.46534 2.19372 5.8261C2.19372 8.58689 2.19372 11.3477 2.19372 14.1084H2.19318Z" fill="#36415D"/>
<path d="M8.65302 10.1505C6.73743 11.1513 4.82184 12.152 2.90625 13.1527V5.82683C4.82184 4.91953 6.73743 4.01277 8.65302 3.10547V10.1505Z" fill="#36415D"/>
<path d="M18.3227 15.4209C15.4561 16.9471 12.5895 18.4738 9.72284 20V17.5978C11.895 16.4356 14.0665 15.2734 16.2387 14.1107V5.82672C16.9332 5.46596 17.6282 5.10466 18.3227 4.7439V15.4209Z" fill="#36415D"/>
<path d="M14.9241 14.1114C13.0123 15.0484 11.1005 15.9854 9.18816 16.9219C7.38976 15.9849 5.59137 15.0479 3.79297 14.1114C5.59137 13.1063 7.38976 12.1008 9.18816 11.0957C11.1 12.1008 13.0118 13.1063 14.9241 14.1114Z" fill="#36415D"/>
<path d="M17.7768 3.9986C17.0272 4.3545 16.2776 4.70986 15.528 5.06575C13.4147 4.04342 11.3015 3.02055 9.18822 1.99822C7.09387 3.02055 4.99898 4.04342 2.90464 5.06575C2.19554 4.71094 1.48644 4.35666 0.777344 4.00184C3.58079 2.66789 6.38424 1.33395 9.18768 0C12.0505 1.33287 14.9134 2.66573 17.7762 3.9986H17.7768Z" fill="#36415D"/>
<path d="M31.8549 2.00094C32.6425 2.00094 33.4037 2.05464 34.0716 2.12153V4.08392C33.5912 3.99066 32.7762 3.87007 31.641 3.87007C27.5683 3.87007 25.7793 5.92667 25.7793 10.0126V16.4217C24.1231 15.1131 23.3223 13.0169 23.3223 10.0521C23.3223 4.5644 26.126 2 31.8549 2V2.00094ZM26.4331 13.5115C27.3008 15.2742 29.0907 16.1155 32.0546 16.1155C34.3514 16.1155 36.4476 15.4475 36.9818 15.2874C37.075 15.261 37.1551 15.2478 37.2088 15.2478C37.3294 15.2478 37.3822 15.3147 37.4095 15.5012C37.45 15.7547 37.4632 16.1155 37.4632 16.4631C37.4632 16.6233 37.4632 16.7966 37.45 16.9304C37.4236 17.197 37.3831 17.2243 37.1165 17.3176C36.6756 17.4646 34.7 18.092 31.9886 18.092C29.6522 18.092 27.8095 17.6916 26.434 16.8767V13.5115H26.4331ZM34.7254 2.2148C35.5667 2.33539 36.2479 2.49554 36.7152 2.62838C37.0619 2.73484 37.1692 2.89499 37.1692 3.26901V6.80753C37.1692 7.11466 37.1429 7.18155 36.8621 7.22112C36.5955 7.26163 36.2611 7.27482 35.9408 7.27482C35.6204 7.27482 35.3001 7.26163 35.0326 7.22112C34.7518 7.18155 34.7254 7.11466 34.7254 6.80753V2.21386V2.2148Z" fill="#36415D"/>
<path d="M41.7885 6.79588V11.9501C41.7885 14.621 42.8032 16.3563 45.7275 16.3563C47.3695 16.3563 48.4115 15.8089 49.0126 14.8471V17.4642C48.1176 17.8778 47.0229 18.0917 45.7275 18.0917C41.5483 18.0917 39.4785 15.8749 39.4785 11.9492C39.4785 9.55906 40.2529 7.80958 41.7885 6.79494V6.79588ZM42.4433 6.43506C43.3383 6.02147 44.433 5.80762 45.7284 5.80762C49.9076 5.80762 51.9774 8.02438 51.9774 11.9501C51.9774 14.3402 51.2029 16.0897 49.6673 17.1043V11.9501C49.6673 9.27925 48.6527 7.54391 45.7284 7.54391C44.0863 7.54391 43.0444 8.09127 42.4433 9.05315V6.436V6.43506Z" fill="#36415D"/>
<path d="M57.8916 17.5452C57.8916 17.7855 57.8511 17.8656 57.6108 17.9061C57.3301 17.9456 57.0503 17.9598 56.7432 17.9598C56.436 17.9598 56.1553 17.9466 55.8755 17.9061C55.6353 17.8656 55.5947 17.7855 55.5947 17.5452V8.07808C55.5947 7.91792 55.5147 7.83784 55.3413 7.83784H54.1533C53.9527 7.83784 53.8726 7.78414 53.8462 7.59761C53.8198 7.41107 53.8066 7.1567 53.8066 6.91647C53.8066 6.67623 53.8198 6.42281 53.8462 6.23533C53.8726 6.04879 53.9527 5.99509 54.1533 5.99509H57.3847C57.7314 5.99509 57.8925 6.08836 57.8925 6.46238V17.5452H57.8916ZM58.5463 6.82226C59.1201 6.36817 60.1489 5.80762 61.8983 5.80762C65.2899 5.80762 66.7059 7.22265 66.7059 10.4013V15.8231C66.7059 15.9832 66.7859 16.0633 66.9593 16.0633H67.8939C68.0945 16.0633 68.1746 16.117 68.201 16.3035C68.2274 16.4901 68.2415 16.7445 68.2415 16.9847C68.2415 17.2249 68.2283 17.4783 68.201 17.6658C68.1746 17.8524 68.0945 17.9061 67.8939 17.9061H66.7322C65.1702 17.9061 64.409 17.6658 64.409 15.9032V11.0429C64.409 8.63957 63.7279 7.62399 61.3915 7.62399C60.0292 7.62399 59.1078 8.01119 58.5473 8.7724V6.8232L58.5463 6.82226Z" fill="#36415D"/>
<path d="M70.1352 15.8089C70.2021 15.5819 70.2954 15.5555 70.5356 15.6224C71.1762 15.7958 72.8588 16.263 74.8221 16.3299V18.0926C72.8861 18.0521 71.0029 17.7054 70.349 17.4915C70.1088 17.4115 70.0683 17.3578 70.0419 17.1175C70.0014 16.7567 70.0155 16.2093 70.1352 15.8089ZM75.1425 5.82081V7.49021C73.7274 7.52978 72.4179 7.83784 72.4179 9.05221C72.4179 10.2666 73.4994 10.3608 75.7162 10.7216C78.8543 11.2294 80.8704 11.7363 80.8704 14.4608C80.8704 17.3455 78.1063 18.0398 75.476 18.0926V16.3299C77.0521 16.3035 78.534 16.0492 78.534 14.6341C78.534 13.579 77.9735 13.2323 75.4496 12.8451C72.432 12.391 70.122 11.9369 70.122 9.23969C70.122 6.54245 72.6996 5.8877 75.1425 5.82081ZM75.7963 5.80762C77.7992 5.834 79.5081 6.2749 79.8558 6.40868C80.0696 6.48876 80.1224 6.55564 80.1365 6.75537C80.1497 6.84864 80.1497 6.95604 80.1497 7.06249C80.1497 7.38281 80.1233 7.73044 80.0564 7.98387C80.0169 8.13084 79.9632 8.18453 79.8558 8.18453C79.8162 8.18453 79.7625 8.17134 79.6956 8.15816C79.3885 8.07808 77.5052 7.5571 75.7963 7.49021V5.80762Z" fill="#36415D"/>
<path d="M86.2495 5.99402H89.8681C90.0688 5.99402 90.1488 6.04772 90.1752 6.23425C90.2016 6.42079 90.2157 6.67516 90.2157 6.91539C90.2157 7.15563 90.2025 7.40905 90.1752 7.59653C90.1488 7.78307 90.0688 7.83676 89.8681 7.83676H86.2495C86.0761 7.83676 85.9961 7.93003 85.9961 8.077V13.6985C85.9961 15.7815 86.8505 16.1819 88.3994 16.1819C89.187 16.1819 89.8417 16.0481 90.1215 15.9953C90.1611 15.9822 90.1884 15.9822 90.2148 15.9822C90.3618 15.9822 90.4154 16.0754 90.4418 16.2356C90.4823 16.4626 90.5087 16.7829 90.5087 17.0901C90.5087 17.1965 90.5087 17.3171 90.4955 17.4236C90.4691 17.6374 90.4154 17.6902 90.2289 17.7439C89.8417 17.8503 89.2011 17.9841 87.9189 17.9841C85.3017 17.9841 83.6992 16.8357 83.6992 13.951V2.9614C83.6992 2.72116 83.7397 2.64108 83.98 2.60057C84.2607 2.56006 84.5405 2.54688 84.8476 2.54688C85.1548 2.54688 85.4355 2.56006 85.7153 2.60057C85.9555 2.64014 85.9961 2.72116 85.9961 2.9614V5.7519C85.9961 5.91206 86.0761 5.99213 86.2495 5.99213V5.99402Z" fill="#36415D"/>
<path d="M99.7392 7.75682C98.31 7.75682 97.269 8.21091 96.6811 9.22555C96.3203 9.85299 96.1338 10.7075 96.1338 12.2836V17.5443C96.1338 17.7845 96.0933 17.8646 95.853 17.9051C95.5723 17.9447 95.2925 17.9588 94.9854 17.9588C94.6782 17.9588 94.3975 17.9456 94.1177 17.9051C93.8774 17.8646 93.8369 17.7845 93.8369 17.5443V8.07714C93.8369 7.91698 93.7569 7.8369 93.5835 7.8369H92.3955C92.1949 7.8369 92.1148 7.7832 92.0884 7.59667C92.062 7.41013 92.0488 7.15576 92.0488 6.91553C92.0488 6.67529 92.062 6.42187 92.0884 6.23439C92.1148 6.04785 92.1949 5.99415 92.3955 5.99415H95.2265C95.4931 5.99415 95.6269 6.07423 95.6674 6.31447L95.8012 7.23584C95.8144 7.35643 95.8813 7.36962 95.9614 7.36962H96.1083C96.1752 7.36962 96.2148 7.35643 96.309 7.26316C97.1503 6.34179 98.2987 5.80762 99.7806 5.80762C100.194 5.80762 100.435 5.82081 100.676 5.84813C100.903 5.87451 100.942 5.9414 100.97 6.14206C100.996 6.31541 101.009 6.55564 101.009 6.79682C101.009 7.09076 100.983 7.39788 100.942 7.59761C100.902 7.75776 100.849 7.82465 100.609 7.79827C100.302 7.7719 100.008 7.75871 99.7411 7.75871L99.7392 7.75682Z" fill="#36415D"/>
<path d="M102.943 12.9252V6.35495C102.943 6.11472 102.984 6.03464 103.224 5.99413C103.505 5.95456 103.785 5.94043 104.092 5.94043C104.399 5.94043 104.68 5.95362 104.959 5.99413C105.2 6.03464 105.24 6.11472 105.24 6.35495V12.8309C105.24 15.2342 105.854 16.2498 108.205 16.2498C109.514 16.2498 110.461 15.8626 110.969 15.1146V17.1043C110.475 17.5452 109.5 18.0926 107.751 18.0926C104.359 18.0926 102.943 16.637 102.943 12.9252ZM113.92 15.8231C113.92 15.9832 114 16.0633 114.173 16.0633H115.108C115.308 16.0633 115.388 16.117 115.415 16.3035C115.441 16.4901 115.454 16.7444 115.454 16.9847C115.454 17.2249 115.441 17.4783 115.415 17.6658C115.388 17.8523 115.308 17.906 115.108 17.906H112.13C111.782 17.906 111.622 17.8128 111.622 17.4388V6.3559C111.622 6.11566 111.662 6.03558 111.903 5.99507C112.183 5.9555 112.463 5.94137 112.77 5.94137C113.078 5.94137 113.358 5.95456 113.638 5.99507C113.878 6.03558 113.919 6.11566 113.919 6.3559V15.8231H113.92Z" fill="#36415D"/>
<path d="M119.54 6.84958V11.9501C119.54 14.9008 120.996 16.3036 123.747 16.3036C125.483 16.3036 127.085 15.7694 127.579 15.596C127.633 15.5828 127.686 15.5697 127.726 15.5697C127.847 15.5697 127.927 15.6365 127.953 15.7967C128.007 16.0906 128.047 16.4647 128.047 16.7982C128.047 17.1722 128.047 17.2522 127.74 17.386C127.259 17.5999 125.657 18.0935 123.747 18.0935C119.741 18.0935 117.23 16.2508 117.23 11.9511C117.23 9.46768 118.072 7.81146 119.54 6.85052V6.84958ZM120.195 6.48875C121.17 6.02147 122.371 5.80762 123.747 5.80762C125.657 5.80762 127.259 6.28809 127.74 6.51513C128.047 6.6621 128.047 6.72899 128.047 7.103C128.047 7.43651 128.007 7.81052 127.953 8.10446C127.927 8.26461 127.847 8.3315 127.726 8.3315C127.687 8.3315 127.633 8.31831 127.579 8.30512C127.085 8.13178 125.483 7.59761 123.747 7.59761C122.011 7.59761 120.876 8.11859 120.195 9.20012V6.4897V6.48875Z" fill="#36415D"/>
<path d="M133.269 5.99402H136.888C137.088 5.99402 137.168 6.04772 137.195 6.23425C137.221 6.42079 137.235 6.67516 137.235 6.91539C137.235 7.15563 137.222 7.40905 137.195 7.59653C137.168 7.78307 137.088 7.83676 136.888 7.83676H133.269C133.096 7.83676 133.016 7.93003 133.016 8.077V13.6985C133.016 15.7815 133.87 16.1819 135.419 16.1819C136.206 16.1819 136.861 16.0481 137.141 15.9953C137.181 15.9822 137.208 15.9822 137.234 15.9822C137.381 15.9822 137.435 16.0754 137.461 16.2356C137.502 16.4626 137.528 16.7829 137.528 17.0901C137.528 17.1965 137.528 17.3171 137.515 17.4236C137.489 17.6374 137.435 17.6902 137.248 17.7439C136.861 17.8503 136.221 17.9841 134.938 17.9841C132.321 17.9841 130.719 16.8357 130.719 13.951V2.9614C130.719 2.72116 130.759 2.64108 131 2.60057C131.28 2.56006 131.56 2.54688 131.867 2.54688C132.174 2.54688 132.455 2.56006 132.735 2.60057C132.975 2.64014 133.016 2.72116 133.016 2.9614V5.7519C133.016 5.91206 133.096 5.99213 133.269 5.99213V5.99402Z" fill="#36415D"/>
<path d="M143.148 17.545C143.148 17.7852 143.107 17.8653 142.867 17.9058C142.586 17.9454 142.306 17.9595 141.999 17.9595C141.692 17.9595 141.411 17.9463 141.132 17.9058C140.891 17.8653 140.851 17.7852 140.851 17.545V8.07783C140.851 7.91768 140.771 7.8376 140.597 7.8376H139.409C139.209 7.8376 139.129 7.7839 139.102 7.59736C139.076 7.41083 139.063 7.15646 139.063 6.91622C139.063 6.67599 139.076 6.42256 139.102 6.23509C139.129 6.04855 139.209 5.99485 139.409 5.99485H142.641C142.987 5.99485 143.149 6.08812 143.149 6.46213V17.545H143.148ZM143.802 6.82201C144.376 6.36792 145.405 5.80737 147.154 5.80737C150.546 5.80737 151.962 7.22241 151.962 10.4011V15.8228C151.962 15.983 152.042 16.0631 152.215 16.0631H153.15C153.351 16.0631 153.431 16.1168 153.457 16.3033C153.483 16.4898 153.498 16.7442 153.498 16.9844C153.498 17.2247 153.484 17.4781 153.457 17.6656C153.431 17.8521 153.351 17.9058 153.15 17.9058H151.988C150.426 17.9058 149.665 17.6656 149.665 15.9029V11.0426C149.665 8.63933 148.984 7.62374 146.648 7.62374C145.285 7.62374 144.364 8.01094 143.803 8.77216V6.82296L143.802 6.82201Z" fill="#36415D"/>
</svg>