<svg width="96" height="96" viewBox="0 0 96 96" fill="none" xmlns="http://www.w3.org/2000/svg">
<path d="M48 1L88.7032 24.5V71.5L48 95L7.29681 71.5V24.5L48 1Z" fill="white"/>
<path d="M72.6357 60.6363C65.204 56.7836 57.7744 52.9308 50.3428 49.0781V21.9551C57.7744 25.4481 65.204 28.9391 72.6357 32.4321V60.6363Z" fill="#F1742E"/>
<path d="M21.4231 64.3179C29.6927 68.7944 37.9602 73.2709 46.2298 77.7474C46.2298 80.8308 46.2298 83.9143 46.2278 86.9998C35.1518 81.124 24.0759 75.2461 13 69.3703V28.2627C15.8084 29.6516 18.6168 31.0426 21.4252 32.4315C21.4252 43.0603 21.4252 53.6891 21.4252 64.3179H21.4231Z" fill="#F1742E"/>
<path d="M46.2312 49.0781C38.8743 52.9308 31.5173 56.7836 24.1603 60.6363V32.4321C31.5173 28.9391 38.8743 25.4481 46.2312 21.9551V49.0781Z" fill="#F1742E"/>
<path d="M83.3714 69.3683C72.3619 75.244 61.3523 81.1219 50.3428 86.9977V77.7495C58.685 73.2751 67.0251 68.8006 75.3673 64.3241V32.4315C78.0347 31.0426 80.7041 29.6516 83.3714 28.2627V69.3683Z" fill="#F1742E"/>
<path d="M70.3151 64.3201C62.9726 67.9275 55.6302 71.5349 48.2856 75.1402C41.3787 71.5328 34.4718 67.9255 27.5649 64.3201C34.4718 60.4508 41.3787 56.5793 48.2856 52.71C55.6281 56.5793 62.9706 60.4508 70.3151 64.3201Z" fill="#F1742E"/>
<path d="M81.2727 25.3943C78.3938 26.7645 75.5148 28.1326 72.6359 29.5028C64.5198 25.5669 56.4037 21.6289 48.2876 17.693C40.244 21.6289 32.1984 25.5669 24.1549 29.5028C21.4316 28.1368 18.7082 26.7728 15.9849 25.4068C26.7517 20.2712 37.5186 15.1356 48.2855 10C59.2805 15.1314 70.2756 20.2629 81.2706 25.3943H81.2727Z" fill="#F1742E"/>
</svg>
