<svg width="38" height="38" viewBox="0 0 38 38" fill="none" xmlns="http://www.w3.org/2000/svg">
<circle cx="19" cy="19" r="18.5" fill="#FFF5EF" stroke="#FF843F"/>
<mask id="mask0_324_331" style="mask-type:alpha" maskUnits="userSpaceOnUse" x="1" y="1" width="36" height="36">
<circle cx="19" cy="19" r="18" fill="#FFF5EF"/>
</mask>
<g mask="url(#mask0_324_331)">
<mask id="path-3-inside-1_324_331" fill="white">
<path d="M34.6 37V33.1C34.6 31.0314 33.7782 29.0474 32.3155 27.5846C30.8527 26.1218 28.8687 25.3 26.8 25.3H11.2C9.13134 25.3 7.14737 26.1218 5.68459 27.5846C4.22181 29.0474 3.40002 31.0314 3.40002 33.1V37"/>
</mask>
<path d="M34.6 37V33.1C34.6 31.0314 33.7782 29.0474 32.3155 27.5846C30.8527 26.1218 28.8687 25.3 26.8 25.3H11.2C9.13134 25.3 7.14737 26.1218 5.68459 27.5846C4.22181 29.0474 3.40002 31.0314 3.40002 33.1V37" fill="white"/>
<path d="M26.8 25.3V24.3V25.3ZM11.2 25.3L11.2 24.3L11.2 25.3ZM3.40002 33.1H2.40002H3.40002ZM35.6 37V33.1H33.6V37H35.6ZM35.6 33.1C35.6 30.7661 34.6729 28.5278 33.0226 26.8775L31.6083 28.2917C32.8836 29.567 33.6 31.2966 33.6 33.1H35.6ZM33.0226 26.8775C31.3722 25.2272 29.1339 24.3 26.8 24.3L26.8 26.3C28.6035 26.3 30.3331 27.0165 31.6083 28.2917L33.0226 26.8775ZM26.8 24.3H11.2V26.3H26.8V24.3ZM11.2 24.3C8.86612 24.3 6.6278 25.2272 4.97748 26.8775L6.3917 28.2917C7.66695 27.0165 9.39655 26.3 11.2 26.3L11.2 24.3ZM4.97748 26.8775C3.32716 28.5278 2.40002 30.7661 2.40002 33.1H4.40002C4.40002 31.2966 5.11645 29.567 6.3917 28.2917L4.97748 26.8775ZM2.40002 33.1V37H4.40002V33.1H2.40002Z" fill="#FF843F" mask="url(#path-3-inside-1_324_331)"/>
<path d="M26.3 13.6C26.3 17.6317 23.0316 20.9 19 20.9C14.9683 20.9 11.7 17.6317 11.7 13.6C11.7 9.56837 14.9683 6.30005 19 6.30005C23.0316 6.30005 26.3 9.56837 26.3 13.6Z" fill="white" stroke="#FF843F"/>
</g>
</svg>
