<svg width="19" height="18" viewBox="0 0 19 18" fill="none" xmlns="http://www.w3.org/2000/svg">
<path d="M3.56934 12.4269V12.9766C3.56934 14.0811 4.46477 14.9766 5.56934 14.9766H13.4678C14.5723 14.9766 15.4678 14.0811 15.4678 12.9766V12.002M3.56934 12.4269V5.07812C3.56934 3.97355 4.46477 3.07812 5.56934 3.07812H13.4678C14.5723 3.07812 15.4678 3.97356 15.4678 5.07813V12.002M3.56934 12.4269L6.75642 9.52955C7.57663 8.7839 8.84683 8.84757 9.58836 9.6715L10.7336 10.944M12.0682 12.4269L10.7336 10.944M10.7336 10.944L11.5486 10.3874C12.3429 9.84508 13.4106 9.94483 14.0907 10.6249L15.4678 12.002" stroke="#36415D" stroke-linecap="round"/>
<circle cx="12.0686" cy="6.47879" r="0.849888" fill="white"/>
</svg>
