<svg width="18" height="18" viewBox="0 0 18 18" fill="none" xmlns="http://www.w3.org/2000/svg">
<path d="M3.05078 12.4269V12.9766C3.05078 14.0811 3.94621 14.9766 5.05078 14.9766H12.9492C14.0538 14.9766 14.9492 14.0811 14.9492 12.9766V12.002M3.05078 12.4269V5.07812C3.05078 3.97355 3.94621 3.07812 5.05078 3.07812H12.9492C14.0538 3.07812 14.9492 3.97356 14.9492 5.07813V12.002M3.05078 12.4269L6.23787 9.52955C7.05807 8.7839 8.32827 8.84757 9.0698 9.6715L10.215 10.944M11.5497 12.4269L10.215 10.944M10.215 10.944L11.0301 10.3874C11.8243 9.84508 12.8921 9.94483 13.5721 10.6249L14.9492 12.002" stroke="#36415D" stroke-linecap="round"/>
<circle cx="11.5501" cy="6.47879" r="0.849888" fill="#36415D"/>
</svg>
