<svg width="14" height="14" viewBox="0 0 14 14" fill="none" xmlns="http://www.w3.org/2000/svg">
<path d="M7.6642 1.00391L9.80566 1.00391H11.8037C12.356 1.00391 12.8037 1.45162 12.8037 2.00391V7.42829M7.6642 1.00391L4.66616 1.00391M7.6642 1.00391V3.14537M12.8037 7.42829V11.9961C12.8037 12.5484 12.356 12.9961 11.8037 12.9961H9.80566H5.95103M12.8037 7.42829H7.6642V6.14342M4.66616 1.00391L1.81152 1.00391C1.25924 1.00391 0.811523 1.45162 0.811523 2.00391V4.00195V7.42829V11.9961C0.811523 12.5484 1.25924 12.9961 1.81152 12.9961H5.95103M4.66616 1.00391V4.85854M5.95103 12.9961V8.71317H3.38128M3.38128 8.71317V7.98043M3.38128 8.71317V9.41515M3.99008 4.85854H5.39428" stroke="white" stroke-linecap="round"/>
</svg>
