<svg width="59" height="59" viewBox="0 0 59 59" fill="none" xmlns="http://www.w3.org/2000/svg">
<ellipse cx="29.9966" cy="27" rx="27" ry="27" transform="rotate(-90 29.9966 27)" fill="#ECECEC"/>
<g filter="url(#filter0_d_1_624)">
<circle cx="29.9966" cy="27" r="21" transform="rotate(-90 29.9966 27)" fill="#F1742E"/>
<circle cx="29.9966" cy="27" r="20.5" transform="rotate(-90 29.9966 27)" stroke="white"/>
</g>
<path d="M26.0366 34.5147C26.0366 32.5707 24.4606 30.9947 22.5166 30.9947C20.5725 30.9947 18.9966 32.5707 18.9966 34.5147C18.9966 36.4587 20.5725 38.0347 22.5166 38.0347H40.9966V21.3147H26.4766" stroke="white"/>
<path d="M18.9966 34.9546V20.4346C18.9966 18.4905 20.5725 16.9146 22.5166 16.9146C24.4606 16.9146 26.0366 18.4905 26.0366 20.4346V34.5146" stroke="white"/>
<defs>
<filter id="filter0_d_1_624" x="0.996582" y="1" width="58" height="58" filterUnits="userSpaceOnUse" color-interpolation-filters="sRGB">
<feFlood flood-opacity="0" result="BackgroundImageFix"/>
<feColorMatrix in="SourceAlpha" type="matrix" values="0 0 0 0 0 0 0 0 0 0 0 0 0 0 0 0 0 0 127 0" result="hardAlpha"/>
<feOffset dy="3"/>
<feGaussianBlur stdDeviation="4"/>
<feComposite in2="hardAlpha" operator="out"/>
<feColorMatrix type="matrix" values="0 0 0 0 0 0 0 0 0 0 0 0 0 0 0 0 0 0 0.2 0"/>
<feBlend mode="normal" in2="BackgroundImageFix" result="effect1_dropShadow_1_624"/>
<feBlend mode="normal" in="SourceGraphic" in2="effect1_dropShadow_1_624" result="shape"/>
</filter>
</defs>
</svg>
