<svg width="16" height="16" viewBox="0 0 16 16" fill="none" xmlns="http://www.w3.org/2000/svg">
<path d="M13.25 1.25H2.75C1.92157 1.25 1.25 1.92157 1.25 2.75V13.25C1.25 14.0784 1.92157 14.75 2.75 14.75H13.25C14.0784 14.75 14.75 14.0784 14.75 13.25V2.75C14.75 1.92157 14.0784 1.25 13.25 1.25Z" stroke="#36415D" stroke-linecap="square"/>
<path d="M5.375 6.5C5.99632 6.5 6.5 5.99632 6.5 5.375C6.5 4.75368 5.99632 4.25 5.375 4.25C4.75368 4.25 4.25 4.75368 4.25 5.375C4.25 5.99632 4.75368 6.5 5.375 6.5Z" stroke="#36415D" stroke-linecap="square"/>
<path d="M3.01465 14.4853L9.58578 7.91421C10.3668 7.13316 11.6332 7.13317 12.4142 7.91421L14.5454 10.0455" stroke="#36415D" stroke-linecap="square"/>
</svg>
