<svg width="21" height="20" viewBox="0 0 21 20" fill="none" xmlns="http://www.w3.org/2000/svg">
<rect x="9.42188" y="8.5" width="3" height="3" rx="1" stroke="#888888" stroke-linecap="round"/>
<path d="M16.1719 7C17.4145 7 18.4219 5.99264 18.4219 4.75C18.4219 3.50736 17.4145 2.5 16.1719 2.5C14.9292 2.5 13.9219 3.50736 13.9219 4.75" stroke="#888888" stroke-linecap="round"/>
<path d="M5.67188 7C4.42923 7 3.42188 5.99264 3.42188 4.75C3.42188 3.50736 4.42923 2.5 5.67188 2.5C6.91452 2.5 7.92188 3.50736 7.92188 4.75" stroke="#888888" stroke-linecap="round"/>
<path d="M16.1719 13C17.4145 13 18.4219 14.0074 18.4219 15.25C18.4219 16.4926 17.4145 17.5 16.1719 17.5C14.9292 17.5 13.9219 16.4926 13.9219 15.25" stroke="#888888" stroke-linecap="round"/>
<path d="M5.67188 13C4.42923 13 3.42188 14.0074 3.42188 15.25C3.42188 16.4926 4.42923 17.5 5.67188 17.5C6.91452 17.5 7.92188 16.4926 7.92188 15.25" stroke="#888888" stroke-linecap="round"/>
<path d="M16.1719 4.75L12.2547 8.66718M5.67188 15.25L9.61352 11.3084" stroke="#888888" stroke-linecap="round"/>
<path d="M5.67188 4.75L9.58906 8.66718M16.1719 15.25L12.2302 11.3084" stroke="#888888" stroke-linecap="round"/>
</svg>
