<svg width="714" height="344" viewBox="0 0 714 344" fill="none" xmlns="http://www.w3.org/2000/svg">
<g opacity="0.4">
<path d="M166.741 319.521L692.3 109.814" stroke="url(#paint0_linear_3144_64410)" stroke-width="0.466013"/>
<path d="M200.325 343.286L690.989 148.26" stroke="url(#paint1_linear_3144_64410)" stroke-width="0.466013"/>
<path d="M317.036 335.364L691.208 180.881" stroke="url(#paint2_linear_3144_64410)" stroke-width="0.466013"/>
<path d="M423.037 327.907L695.36 216.297" stroke="url(#paint3_linear_3144_64410)" stroke-width="0.466013"/>
<path d="M504.777 327.909L691.863 252.182" stroke="url(#paint4_linear_3144_64410)" stroke-width="0.466013"/>
<path d="M85.3633 321.616L462.595 163.871" stroke="url(#paint5_linear_3144_64410)" stroke-width="0.466013"/>
<path d="M356.594 326.276L89.0788 213.967" stroke="url(#paint6_linear_3144_64410)" stroke-width="0.466013"/>
<path d="M265.019 326.278L85.6379 249.783" stroke="url(#paint7_linear_3144_64410)" stroke-width="0.466013"/>
<path d="M539.159 319.04L78.1576 137.756" stroke="url(#paint8_linear_3144_64410)" stroke-width="0.466013"/>
<path d="M462.595 325.812L91.4831 175.057" stroke="url(#paint9_linear_3144_64410)" stroke-width="0.466013"/>
<path d="M664.543 329.306L90.1547 106.613" stroke="url(#paint10_linear_3144_64410)" stroke-width="0.466013"/>
<path d="M90.6582 252.498L464.781 97.9316" stroke="url(#paint11_linear_3144_64410)" stroke-width="0.466013"/>
<path d="M92.7944 185.307L468.715 39.4453" stroke="url(#paint12_linear_3144_64410)" stroke-width="0.466013"/>
<path d="M1 186.008L471.775 5.42773" stroke="url(#paint13_linear_3144_64410)" stroke-width="0.466013"/>
<path d="M88.8604 122.162L362.495 20.8047" stroke="url(#paint14_linear_3144_64410)" stroke-width="0.466013"/>
<path d="M99.7886 280.375L466.53 130.086" stroke="url(#paint15_linear_3144_64410)" stroke-width="0.466013"/>
<path d="M87.083 222.406L445.548 78.125" stroke="url(#paint16_linear_3144_64410)" stroke-width="0.466013"/>
<path d="M711.096 273.384L96.2918 43.1738" stroke="url(#paint17_linear_3144_64410)" stroke-width="0.466013"/>
<path d="M713 306.093L73.7167 69.8242" stroke="url(#paint18_linear_3144_64410)" stroke-width="0.466013"/>
<path d="M697.764 238.433L160.11 35.252" stroke="url(#paint19_linear_3144_64410)" stroke-width="0.466013"/>
<path d="M702.354 210.007L152.024 1" stroke="url(#paint20_linear_3144_64410)" stroke-width="0.466013"/>
<path d="M696.015 177.385L270.264 12.8828" stroke="url(#paint21_linear_3144_64410)" stroke-width="0.466013"/>
</g>
<g filter="url(#filter0_d_3144_64410)">
<ellipse cx="400.088" cy="226.783" rx="1.31135" ry="1.39804" fill="#888888"/>
</g>
<g filter="url(#filter1_d_3144_64410)">
<ellipse cx="170.722" cy="286.181" rx="1.31135" ry="1.39804" fill="url(#paint22_linear_3144_64410)" shape-rendering="crispEdges"/>
</g>
<g filter="url(#filter2_d_3144_64410)">
<ellipse cx="147.529" cy="198.005" rx="1.31135" ry="1.39804" fill="#888888"/>
</g>
<g filter="url(#filter3_d_3144_64410)">
<ellipse cx="191.317" cy="113.242" rx="1.31135" ry="1.39804" fill="#888888"/>
</g>
<g filter="url(#filter4_d_3144_64410)">
<ellipse cx="151.368" cy="99.3277" rx="1.31135" ry="1.39804" fill="url(#paint23_linear_3144_64410)" shape-rendering="crispEdges"/>
</g>
<g filter="url(#filter5_d_3144_64410)">
<ellipse cx="236.388" cy="95.7164" rx="1.31135" ry="1.39804" fill="url(#paint24_linear_3144_64410)" shape-rendering="crispEdges"/>
</g>
<g filter="url(#filter6_d_3144_64410)">
<ellipse cx="282.83" cy="50.4117" rx="1.31135" ry="1.39804" fill="url(#paint25_linear_3144_64410)" shape-rendering="crispEdges"/>
</g>
<g filter="url(#filter7_d_3144_64410)">
<ellipse cx="193.035" cy="146.211" rx="1.31135" ry="1.39804" fill="#888888"/>
</g>
<g filter="url(#filter8_d_3144_64410)">
<ellipse cx="148.745" cy="128.92" rx="1.31135" ry="1.39804" fill="#888888"/>
</g>
<g filter="url(#filter9_d_3144_64410)">
<ellipse cx="136.069" cy="233.773" rx="1.31135" ry="1.39804" fill="#888888"/>
</g>
<g filter="url(#filter10_d_3144_64410)">
<ellipse cx="398.127" cy="125.261" rx="1.31135" ry="1.39804" fill="#888888"/>
</g>
<g filter="url(#filter11_d_3144_64410)">
<ellipse cx="402.273" cy="95.8336" rx="1.31135" ry="1.39804" fill="#888888"/>
</g>
<g opacity="0.5" filter="url(#filter12_d_3144_64410)">
<ellipse cx="440.302" cy="140.986" rx="1.31135" ry="1.39804" fill="#FF843F"/>
</g>
<g filter="url(#filter13_d_3144_64410)">
<ellipse cx="437.68" cy="109.814" rx="1.31135" ry="1.39804" fill="#888888"/>
</g>
<g filter="url(#filter14_d_3144_64410)">
<ellipse cx="361.621" cy="47.8336" rx="1.31135" ry="1.39804" fill="#888888"/>
</g>
<g filter="url(#filter15_d_3144_64410)">
<ellipse cx="352.005" cy="245.423" rx="1.31135" ry="1.39804" fill="#888888"/>
</g>
<g filter="url(#filter16_d_3144_64410)">
<ellipse cx="354.627" cy="209.074" rx="1.31135" ry="1.39804" fill="#888888"/>
</g>
<g filter="url(#filter17_d_3144_64410)">
<ellipse cx="308.73" cy="228.181" rx="1.31135" ry="1.39804" fill="#888888"/>
</g>
<g filter="url(#filter18_d_3144_64410)">
<ellipse cx="399.976" cy="189.961" rx="1.31135" ry="1.39804" fill="url(#paint26_linear_3144_64410)" shape-rendering="crispEdges"/>
</g>
<g filter="url(#filter19_d_3144_64410)">
<ellipse cx="445.657" cy="282.23" rx="1.31135" ry="1.39804" fill="url(#paint27_linear_3144_64410)" shape-rendering="crispEdges"/>
</g>
<g filter="url(#filter20_d_3144_64410)">
<ellipse cx="255.839" cy="284.101" rx="1.31135" ry="1.39804" fill="url(#paint28_linear_3144_64410)" shape-rendering="crispEdges"/>
</g>
<g filter="url(#filter21_d_3144_64410)">
<ellipse cx="446.859" cy="245.423" rx="1.31135" ry="1.39804" fill="url(#paint29_linear_3144_64410)" shape-rendering="crispEdges"/>
</g>
<path opacity="0.5" d="M282.273 143.175L328.909 125.725L361.704 138.662" stroke="#787878"/>
<g filter="url(#filter22_d_3144_64410)">
<path fill-rule="evenodd" clip-rule="evenodd" d="M314.952 135.954L384.487 112.787V205.012L315.115 232.382V232.718L258.034 210.444V117.601L314.952 136.502V135.954Z" fill="white"/>
</g>
<path d="M327.675 170.252L318.98 173.593V187.751L327.675 184.32V170.252Z" fill="#F0F0F0"/>
<path d="M354.894 178.326L346.199 181.667V195.825L354.894 192.394V178.326Z" fill="#F0F0F0"/>
<path d="M354.152 160.023L345.457 163.364V177.522L354.152 174.092V160.023Z" fill="#F0F0F0"/>
<path d="M367.427 173.219L358.732 176.559V190.718L367.427 187.287V173.219Z" fill="#F0F0F0"/>
<path d="M379.961 168.217L371.266 171.557V185.716L379.961 182.285V168.217Z" fill="#F0F0F0"/>
<path d="M258.545 117.496L329.495 93.0306L383.994 112.981L314.5 136.472L258.545 117.496Z" fill="white" stroke="#787878"/>
<path d="M262.649 150.797L270.365 153.822V169.083L262.649 166.072V150.797Z" fill="#F0F0F0"/>
<path d="M275.828 132.557L283.544 135.582V150.843L275.828 147.832V132.557Z" fill="#F0F0F0"/>
<path d="M289.007 159.939L296.724 162.965V178.226L289.007 175.215V159.939Z" fill="#F0F0F0"/>
<path d="M302.186 140.496L309.903 143.522V158.782L302.186 155.771V140.496Z" fill="#F0F0F0"/>
<path d="M262.649 173.23L270.365 176.256V191.517L262.649 188.506V173.23Z" fill="#F0F0F0"/>
<path d="M275.828 178.459L283.544 181.485V196.745L275.828 193.734V178.459Z" fill="#F0F0F0"/>
<path d="M289.007 182.375L296.724 185.401V200.661L289.007 197.65V182.375Z" fill="#F0F0F0"/>
<mask id="path-60-inside-1_3144_64410" fill="white">
<path fill-rule="evenodd" clip-rule="evenodd" d="M329.536 93.5769L258.871 117.307L270.156 121.185L314.302 135.994L314.609 135.891L383.053 113.067L329.536 93.5769ZM383.971 112.761L329.544 92.9395L257.937 116.986L257 117.3L257.9 117.61L257.744 118.075L314.267 137.037V232.001L314.267 232.234C314.267 232.51 314.491 232.734 314.767 232.734C315.044 232.734 315.267 232.51 315.267 232.234L315.267 136.978L341.138 128.098L384.07 113.782L384.07 205.456H385.07V113.088V112.394L384.412 112.614L383.971 112.761L383.971 112.761Z"/>
</mask>
<path d="M258.871 117.307L258.552 116.359L255.762 117.296L258.546 118.253L258.871 117.307ZM329.536 93.5769L329.878 92.6373L329.549 92.5176L329.218 92.6289L329.536 93.5769ZM270.156 121.185L269.831 122.13L269.838 122.133L270.156 121.185ZM314.302 135.994L313.984 136.942L314.301 137.048L314.618 136.942L314.302 135.994ZM314.609 135.891L314.926 136.84L314.926 136.84L314.609 135.891ZM383.053 113.067L383.37 114.015L386.09 113.108L383.396 112.127L383.053 113.067ZM329.544 92.9395L329.886 91.9998L329.558 91.8801L329.226 91.9915L329.544 92.9395ZM383.971 112.761L383.629 113.7L383.638 113.704L383.971 112.761ZM257.937 116.986L258.255 117.934H258.255L257.937 116.986ZM257 117.3L256.682 116.352L253.891 117.29L256.675 118.246L257 117.3ZM257.9 117.61L258.848 117.928L259.164 116.986L258.225 116.664L257.9 117.61ZM257.744 118.075L256.795 117.757L256.477 118.705L257.426 119.023L257.744 118.075ZM314.267 137.037H315.267V136.318L314.585 136.089L314.267 137.037ZM314.267 232.001H313.267V232.001L314.267 232.001ZM314.267 232.234H315.267V232.234L314.267 232.234ZM315.267 232.234H316.267H315.267ZM315.267 136.978L314.943 136.032L314.267 136.264V136.978H315.267ZM341.138 128.098L340.822 127.15L340.814 127.153L341.138 128.098ZM384.07 113.782H385.07L385.07 112.394L383.753 112.833L384.07 113.782ZM384.07 205.456H383.07V206.456H384.07V205.456ZM385.07 205.456V206.456H386.07V205.456H385.07ZM385.07 112.394H386.07V111.007L384.753 111.446L385.07 112.394ZM384.412 112.614L384.095 111.665L384.412 112.614ZM383.971 112.761L383.639 113.704L383.962 113.818L384.288 113.709L383.971 112.761ZM259.189 118.255L329.854 94.5249L329.218 92.6289L258.552 116.359L259.189 118.255ZM270.481 120.239L259.196 116.361L258.546 118.253L269.831 122.13L270.481 120.239ZM314.62 135.045L270.474 120.237L269.838 122.133L313.984 136.942L314.62 135.045ZM314.618 136.942L314.926 136.84L314.293 134.942L313.985 135.045L314.618 136.942ZM314.926 136.84L383.37 114.015L382.737 112.118L314.293 134.942L314.926 136.84ZM329.194 94.5166L382.711 114.006L383.396 112.127L329.878 92.6373L329.194 94.5166ZM329.202 93.8791L383.629 113.7L384.313 111.821L329.886 91.9998L329.202 93.8791ZM258.255 117.934L329.863 93.8874L329.226 91.9915L257.618 116.038L258.255 117.934ZM257.318 118.248L258.255 117.934L257.618 116.038L256.682 116.352L257.318 118.248ZM258.225 116.664L257.325 116.355L256.675 118.246L257.575 118.555L258.225 116.664ZM258.692 118.393L258.848 117.928L256.952 117.292L256.795 117.757L258.692 118.393ZM314.585 136.089L258.062 117.127L257.426 119.023L313.949 137.985L314.585 136.089ZM315.267 232.001V137.037H313.267V232.001H315.267ZM315.267 232.234L315.267 232.001L313.267 232.001L313.267 232.234L315.267 232.234ZM314.767 231.734C315.044 231.734 315.267 231.957 315.267 232.234H313.267C313.267 233.062 313.939 233.734 314.767 233.734V231.734ZM314.267 232.234C314.267 231.957 314.491 231.734 314.767 231.734V233.734C315.596 233.734 316.267 233.062 316.267 232.234H314.267ZM314.267 136.978L314.267 232.234H316.267L316.267 136.978H314.267ZM340.814 127.153L314.943 136.032L315.592 137.924L341.463 129.044L340.814 127.153ZM383.753 112.833L340.822 127.15L341.455 129.047L384.386 114.731L383.753 112.833ZM385.07 205.456V113.782H383.07L383.07 205.456H385.07ZM385.07 204.456H384.07V206.456H385.07V204.456ZM384.07 113.088V205.456H386.07V113.088H384.07ZM384.07 112.394V113.088H386.07V112.394H384.07ZM384.728 113.563L385.386 113.343L384.753 111.446L384.095 111.665L384.728 113.563ZM384.288 113.709L384.728 113.563L384.095 111.665L383.655 111.812L384.288 113.709ZM383.638 113.704L383.639 113.704L384.304 111.818L384.304 111.818L383.638 113.704Z" fill="#787878" mask="url(#path-60-inside-1_3144_64410)"/>
<path d="M314.466 136.857V87.2129" stroke="#787878"/>
<path d="M258.204 117.6L258.204 83" stroke="#787878"/>
<path d="M269.637 122.414V89.3184" stroke="#787878"/>
<path d="M298.821 131.742V101.354" stroke="#787878"/>
<path d="M328.006 132.342V99.2461" stroke="#787878"/>
<path d="M281.07 125.725V105.566" stroke="#787878"/>
<path d="M338.236 128.733L338.837 105.867" stroke="#787878"/>
<path d="M384.57 113.689V87.8145" stroke="#787878"/>
<path d="M362.606 120.609V94.7344" stroke="#787878"/>
<path d="M351.173 124.219V98.3438" stroke="#787878"/>
<path fill-rule="evenodd" clip-rule="evenodd" d="M385.384 205.133L315 232.499L315 230.672L385.384 203.352L385.384 205.133Z" fill="#787878"/>
<path d="M488.629 215.889L488.63 215.87L490.2 195.085L490.202 195.057L490.201 195.03C490.172 194.161 490.138 193.322 490.106 192.514C490.019 190.31 489.941 188.343 489.977 186.67C490.002 185.531 490.08 184.551 490.238 183.744C490.397 182.933 490.63 182.337 490.939 181.934C491.816 180.788 493.6 179.66 495.707 178.757C497.796 177.861 500.121 177.22 502.001 177.005C503.331 176.853 505.295 176.841 507.049 177.191C507.925 177.366 508.726 177.627 509.364 177.99C510 178.352 510.448 178.8 510.672 179.341C510.921 179.938 511.073 180.786 511.135 181.848C511.197 182.903 511.17 184.135 511.08 185.483C510.9 188.181 510.474 191.298 510.043 194.316M488.629 215.889L510.043 194.316M488.629 215.889L488.626 215.908L487.653 222.333C487.683 222.37 487.73 222.416 487.802 222.47C487.941 222.576 488.146 222.689 488.423 222.804C488.977 223.033 489.751 223.24 490.699 223.42C492.589 223.78 495.086 224.016 497.697 224.129C500.305 224.242 503.011 224.232 505.314 224.104C507.476 223.984 509.231 223.763 510.226 223.464M488.629 215.889L510.226 223.464M510.043 194.316C509.819 195.883 509.89 198.12 510.068 200.652C510.171 202.116 510.311 203.705 510.457 205.341C510.563 206.537 510.671 207.758 510.768 208.974C511 211.869 511.172 214.764 511.119 217.337C511.068 219.807 510.809 221.931 510.226 223.464M510.043 194.316L510.226 223.464" fill="white" stroke="#787878"/>
<path d="M496.369 197.679L496.369 197.679C495.852 201.821 494.166 206.636 493.487 208.575C493.393 208.844 493.318 209.057 493.269 209.206L493.269 209.206C493.269 209.206 493.268 209.206 493.268 209.206C493.266 209.211 493.231 209.28 493.072 209.392C492.917 209.502 492.696 209.618 492.415 209.73C491.856 209.956 491.13 210.143 490.406 210.252C489.677 210.362 488.994 210.386 488.513 210.308C488.269 210.269 488.122 210.21 488.049 210.16C488.032 210.148 488.022 210.139 488.017 210.134C488.017 209.801 488.093 208.992 488.218 207.894C488.343 206.806 488.512 205.466 488.691 204.104C489.007 201.692 489.352 199.215 489.53 197.94C489.553 197.775 489.573 197.63 489.59 197.507L496.369 197.679ZM496.369 197.679C496.964 192.922 497.141 186.293 496.802 183.29M496.369 197.679L496.802 183.29M496.802 183.29C496.669 182.107 495.461 181.262 493.916 181.061C492.371 180.86 490.914 181.363 490.415 182.407M496.802 183.29L490.415 182.407M490.415 182.407C490.14 182.983 489.948 184.052 489.83 185.444M490.415 182.407L489.83 185.444M489.83 185.444C489.713 186.812 489.673 188.42 489.662 190.022M489.83 185.444L489.662 190.022M489.662 190.022C489.655 191.117 489.663 192.201 489.669 193.202M489.662 190.022L489.669 193.202M489.669 193.202C489.672 193.666 489.675 194.112 489.677 194.532M489.669 193.202L489.677 194.532M489.677 194.532C489.681 195.838 489.671 196.932 489.59 197.507L489.677 194.532Z" fill="white" stroke="#787878"/>
<path d="M493.945 165.524C493.881 165.504 493.822 165.487 493.768 165.471C493.802 166.42 493.981 167.943 494.211 169.442C494.35 170.348 494.505 171.228 494.651 171.94C494.801 172.673 494.932 173.176 495.015 173.367C495.182 173.751 495.412 173.961 495.664 174.124C495.787 174.203 495.912 174.269 496.052 174.344C496.066 174.351 496.081 174.358 496.095 174.366C496.244 174.445 496.419 174.539 496.579 174.658L496.579 174.658C496.852 174.863 497.073 175.112 497.23 175.316C498.211 174.698 499.348 174.448 500.219 174.282C500.337 174.26 500.449 174.239 500.555 174.219C500.922 174.152 501.211 174.098 501.432 174.031C501.502 174.01 501.552 173.991 501.586 173.976C501.602 173.007 501.8 172.228 501.991 171.608C502.04 171.447 502.084 171.312 502.124 171.189C502.171 171.045 502.213 170.917 502.252 170.782C502.321 170.545 502.352 170.386 502.352 170.269V170.173L502.388 170.083C502.587 169.586 502.738 169.283 502.845 169.076C502.965 168.843 502.978 168.814 502.985 168.781C502.988 168.764 502.995 168.717 502.952 168.466C502.94 168.395 502.922 168.297 502.9 168.177C502.859 167.952 502.803 167.649 502.743 167.29C502.731 167.226 502.72 167.166 502.71 167.11C502.373 167.247 501.92 167.336 501.304 167.319L501.304 167.319C499.656 167.272 497.585 166.686 495.972 166.177C495.562 166.047 495.189 165.926 494.855 165.816C494.511 165.704 494.207 165.605 493.945 165.524Z" stroke="#787878"/>
<path d="M501.698 172.79C501.719 173.12 501.761 173.489 501.833 173.904C501.732 173.935 501.608 173.97 501.462 174.009C501.248 174.066 501.001 174.129 500.729 174.198C500.689 174.208 500.649 174.218 500.608 174.228C500.291 174.309 499.946 174.396 499.596 174.491C498.902 174.68 498.169 174.9 497.58 175.153C497.406 175.228 497.237 175.308 497.082 175.395C496.995 175.136 496.844 174.856 496.579 174.658L496.579 174.657C496.43 174.547 496.27 174.458 496.13 174.382C496.104 174.369 496.08 174.356 496.056 174.343C495.952 174.287 495.857 174.236 495.762 174.179C495.812 174.136 495.86 174.088 495.907 174.036L501.698 172.79ZM501.698 172.79C501.332 173.035 500.931 173.195 500.551 173.296C500.047 173.431 499.562 173.47 499.205 173.476C499.024 173.478 498.873 173.473 498.764 173.466C498.709 173.463 498.664 173.459 498.629 173.455C498.612 173.454 498.597 173.452 498.583 173.45C498.576 173.449 498.568 173.448 498.558 173.446C498.554 173.446 498.547 173.445 498.538 173.443L498.538 173.443C498.533 173.442 498.509 173.437 498.48 173.428L498.48 173.428L498.475 173.426C498.423 173.408 498.385 173.386 498.375 173.38L498.374 173.379C498.359 173.37 498.346 173.361 498.339 173.356C498.325 173.346 498.312 173.336 498.305 173.33C498.288 173.317 498.271 173.302 498.255 173.288C498.222 173.259 498.179 173.22 498.128 173.174C498.027 173.081 497.888 172.951 497.725 172.798C497.398 172.49 496.969 172.084 496.544 171.678C496.361 171.504 496.18 171.331 496.006 171.165C496.02 171.247 496.034 171.33 496.047 171.413C496.122 171.887 496.184 172.397 496.193 172.831C496.198 173.048 496.19 173.263 496.157 173.454C496.128 173.628 496.067 173.859 495.907 174.036L501.698 172.79Z" stroke="#787878"/>
<path d="M498.736 173.517C498.498 173.189 498.204 172.88 497.908 172.585C497.794 172.472 497.682 172.363 497.57 172.254C497.371 172.06 497.174 171.869 496.977 171.663C496.369 171.031 495.872 170.378 495.682 169.582L498.736 173.517ZM498.736 173.517C498.74 173.516 498.744 173.514 498.749 173.513C498.802 173.497 498.869 173.471 498.963 173.433C498.993 173.42 499.024 173.407 499.058 173.393C499.436 173.236 500.01 172.996 500.845 172.916L498.736 173.517ZM503.119 168.039C503.119 168.107 503.121 168.161 503.122 168.204C503.124 168.252 503.124 168.274 503.124 168.287C503.124 168.288 503.123 168.29 503.123 168.291C503.119 168.303 503.113 168.318 503.103 168.341C503.092 168.37 503.078 168.403 503.062 168.443C502.96 168.689 502.755 169.186 502.356 170.34C501.993 171.391 501.929 172.206 501.918 172.759C501.917 172.834 501.916 172.899 501.916 172.957C501.669 172.898 501.343 172.868 500.845 172.916L503.119 168.039ZM503.119 168.039C503.093 167.961 503.06 167.92 503.034 167.896C502.999 167.864 502.939 167.828 502.826 167.803C502.577 167.747 502.206 167.768 501.673 167.84C501.505 167.863 501.324 167.891 501.134 167.92C500.187 168.066 498.988 168.25 497.797 168.08C497.216 167.997 496.658 167.693 496.164 167.337C495.664 166.977 495.186 166.53 494.762 166.109C494.566 165.915 494.389 165.733 494.225 165.565C494.017 165.352 493.83 165.16 493.653 164.991C493.641 164.979 493.628 164.968 493.616 164.956C493.62 165.058 493.628 165.17 493.638 165.292C493.695 165.96 493.835 166.828 494.011 167.594L503.119 168.039ZM494.199 167.973C494.137 167.914 494.063 167.817 494.011 167.595L494.199 167.973ZM494.199 167.973C494.279 168.047 494.374 168.095 494.564 168.19M494.199 167.973L494.564 168.19M494.564 168.19C494.737 168.276 494.979 168.398 495.195 168.623M494.564 168.19L495.195 168.623M495.195 168.623C495.417 168.855 495.583 169.162 495.682 169.582L495.195 168.623ZM501.909 173.352C501.909 173.353 501.909 173.354 501.909 173.354L501.909 173.352Z" stroke="#787878"/>
<path d="M493.875 163.968C493.578 163.981 493.012 163.943 492.905 163.968C492.041 164.171 492.885 164.518 492.885 164.518C492.885 164.518 493.923 164.468 494.964 165.556C496.005 166.644 497.805 167.66 500.977 167.335C504.148 167.009 504.34 166.473 504.578 166.202C504.815 165.93 504.873 164.595 503.293 164.15L503.235 164.135" stroke="#787878"/>
<path d="M498.197 159.526L498.197 159.526C500.358 159.404 501.758 160.837 502.652 162.511C503.095 163.341 503.394 164.199 503.582 164.882C503.676 165.223 503.741 165.517 503.782 165.737C503.801 165.84 503.815 165.925 503.824 165.99C503.786 166.018 503.732 166.055 503.655 166.097C503.421 166.226 503.054 166.37 502.57 166.493C501.607 166.738 500.245 166.885 498.693 166.705L498.197 159.526ZM498.197 159.526C497.076 159.59 496.295 159.959 495.739 160.453C495.176 160.954 494.814 161.61 494.584 162.287C494.354 162.963 494.264 163.639 494.232 164.151C494.22 164.346 494.217 164.515 494.217 164.649M498.197 159.526L494.217 164.649M494.217 164.649C494.985 164.924 495.421 165.282 495.802 165.595C495.888 165.666 495.972 165.735 496.056 165.8C496.522 166.16 497.123 166.523 498.692 166.705L494.217 164.649ZM503.884 165.936C503.883 165.936 503.881 165.938 503.878 165.942C503.882 165.938 503.884 165.936 503.884 165.936Z" stroke="#787878"/>
<path d="M499.815 160.86C499.641 160.466 499.455 160.164 499.267 159.951L499.282 160.005C499.386 160.388 499.536 160.936 499.716 161.596C500.031 162.751 500.436 164.249 500.852 165.802C500.844 165.702 500.834 165.593 500.823 165.476C500.764 164.87 500.664 164.056 500.502 163.219C500.338 162.378 500.114 161.535 499.815 160.86Z" fill="#787878" stroke="#787878"/>
<path opacity="0.9" d="M506.689 229.026L506.689 229.026C506.183 230.355 505.777 232.404 505.467 234.778C505.155 237.163 504.936 239.913 504.814 242.665C504.573 248.147 504.717 253.713 505.331 256.424L505.331 256.424C505.642 257.796 506.253 260.199 506.973 263.033C507.639 265.651 508.398 268.638 509.101 271.521C509.836 274.532 510.51 277.437 510.96 279.716C511.184 280.857 511.351 281.833 511.441 282.583C511.486 282.959 511.511 283.27 511.516 283.512C511.52 283.768 511.501 283.902 511.486 283.951L506.689 229.026ZM506.689 229.026C506.722 228.939 506.739 228.771 506.67 228.488M506.689 229.026L506.67 228.488M506.67 228.488C506.604 228.211 506.467 227.872 506.258 227.48M506.67 228.488L506.258 227.48M506.258 227.48C505.863 226.741 505.239 225.869 504.449 224.955M506.258 227.48L504.449 224.955M504.449 224.955H492.929C493.119 233.962 493.581 249.216 494.599 254.922L504.449 224.955ZM499.821 271.742C497.668 265.793 495.337 259.053 494.599 254.923L499.821 271.742ZM499.821 271.742C500.259 272.952 500.69 274.13 501.097 275.244M499.821 271.742L501.097 275.244M501.097 275.244C501.687 276.856 502.227 278.334 502.671 279.585M501.097 275.244L502.671 279.585M502.671 279.585C503.046 280.643 503.355 281.548 503.568 282.241M502.671 279.585L503.568 282.241M503.568 282.241C503.674 282.587 503.758 282.887 503.815 283.13M503.568 282.241L503.815 283.13M503.815 283.13C503.866 283.352 503.909 283.581 503.899 283.761M503.815 283.13L503.899 283.761M503.899 283.761C503.904 283.776 503.928 283.823 504.026 283.901C504.175 284.021 504.423 284.151 504.773 284.275C505.466 284.52 506.433 284.697 507.44 284.765C508.448 284.834 509.457 284.792 510.237 284.622C510.627 284.536 510.935 284.424 511.153 284.294C511.37 284.165 511.456 284.043 511.486 283.951L503.899 283.761ZM503.898 283.756C503.898 283.756 503.898 283.757 503.898 283.76C503.898 283.757 503.898 283.756 503.898 283.756Z" fill="white" stroke="#787878"/>
<path d="M499.553 287.041L499.553 287.041C499.053 287.269 498.105 287.581 497.162 287.89C496.937 287.964 496.712 288.038 496.493 288.111C495.913 288.304 495.37 288.49 494.953 288.655C494.817 288.708 494.698 288.758 494.599 288.803C494.679 288.857 494.777 288.917 494.891 288.98C495.265 289.186 495.696 289.372 495.978 289.494C496.004 289.505 496.029 289.516 496.052 289.526L509.912 289.316V289.316H509.92H512.926C512.934 289.2 512.929 289.043 512.906 288.847C512.852 288.383 512.711 287.787 512.522 287.176C512.333 286.567 512.102 285.965 511.877 285.49C511.764 285.252 511.656 285.055 511.561 284.908C511.557 284.903 511.553 284.897 511.55 284.891C511.434 284.925 511.319 284.944 511.216 284.956C510.933 284.991 510.597 284.99 510.242 284.971C509.531 284.933 508.657 284.815 507.81 284.698C507.754 284.69 507.699 284.682 507.643 284.675C506.843 284.564 506.075 284.457 505.451 284.411C505.117 284.386 504.844 284.38 504.641 284.397C504.54 284.405 504.469 284.417 504.424 284.43C504.409 284.434 504.399 284.437 504.394 284.439C504.331 284.489 504.235 284.548 504.155 284.596C504.048 284.661 503.908 284.743 503.742 284.839C503.409 285.03 502.968 285.276 502.484 285.54C501.519 286.066 500.366 286.67 499.553 287.041ZM499.345 286.586C500.938 285.859 503.904 284.2 504.086 284.045L493.944 288.621C494.153 288.353 495.624 287.869 497.025 287.409C497.965 287.1 498.873 286.802 499.345 286.586Z" fill="white" stroke="#787878"/>
<path d="M501.582 287.585L501.582 287.585C501.581 287.586 501.582 287.585 501.585 287.584C501.602 287.575 501.682 287.536 501.877 287.495C502.087 287.45 502.364 287.416 502.696 287.393C503.359 287.347 504.193 287.349 505.035 287.387C505.876 287.426 506.712 287.499 507.379 287.593C507.713 287.64 507.998 287.691 508.216 287.743C508.325 287.769 508.411 287.794 508.475 287.817C508.532 287.836 508.557 287.85 508.562 287.852C508.563 287.853 508.564 287.854 508.565 287.856C508.578 287.87 508.633 287.929 508.72 288.078C508.817 288.242 508.925 288.465 509.039 288.736C509.267 289.275 509.499 289.965 509.69 290.661C509.881 291.359 510.024 292.044 510.079 292.577C510.107 292.846 510.11 293.055 510.094 293.199C510.092 293.219 510.089 293.237 510.087 293.252C510.068 293.255 510.048 293.259 510.025 293.263C509.878 293.289 509.67 293.313 509.4 293.336C508.864 293.382 508.127 293.417 507.252 293.443C505.502 293.494 503.227 293.507 500.956 293.497C498.685 293.486 496.423 293.451 494.702 293.407C493.841 293.385 493.117 293.36 492.597 293.335C492.336 293.323 492.13 293.31 491.985 293.298C491.917 293.293 491.866 293.288 491.832 293.283C491.726 293.223 491.606 293.107 491.539 292.977C491.484 292.869 491.491 292.815 491.503 292.789C491.504 292.788 491.504 292.788 491.505 292.787C491.53 292.77 491.571 292.746 491.631 292.715C491.752 292.653 491.919 292.58 492.128 292.498C492.545 292.334 493.088 292.147 493.667 291.954C493.885 291.882 494.11 291.808 494.335 291.734C495.278 291.424 496.227 291.112 496.728 290.884L501.582 287.585ZM501.582 287.585C501.476 287.675 500.678 288.308 499.711 289.007M501.582 287.585L499.711 289.007M499.711 289.007C498.751 289.701 497.575 290.497 496.728 290.884L499.711 289.007ZM491.514 292.771L491.514 292.771L491.514 292.771ZM510.193 293.224C510.193 293.224 510.191 293.225 510.187 293.227C510.191 293.225 510.193 293.224 510.193 293.224ZM508.563 287.853C508.563 287.853 508.563 287.853 508.563 287.853C508.563 287.853 508.563 287.853 508.563 287.853L508.563 287.853C508.563 287.853 508.563 287.853 508.563 287.853Z" fill="white" stroke="#787878"/>
<path d="M503.837 259.11C503.225 256.407 503.078 251.396 503.078 246.779C503.078 244.46 503.116 242.222 503.153 240.397C503.164 239.846 503.176 239.334 503.186 238.869C503.21 237.789 503.228 236.965 503.228 236.5C503.228 235.752 503.561 234.871 503.999 233.964C504.375 233.185 504.862 232.324 505.366 231.432C505.458 231.269 505.55 231.106 505.642 230.942C506.756 228.963 507.874 226.871 508.261 224.938L490.357 224.453C490.366 224.571 490.375 224.69 490.384 224.811C490.984 232.729 492.246 249.391 493.353 255.591C494.095 259.745 496.041 267.047 497.798 273.536C497.962 274.145 498.125 274.747 498.286 275.338C498.978 277.89 499.616 280.243 500.105 282.128C500.407 283.289 500.653 284.277 500.821 285.027C500.905 285.401 500.971 285.721 501.014 285.977C501.054 286.213 501.083 286.438 501.074 286.603C501.079 286.617 501.103 286.664 501.201 286.743C501.35 286.862 501.599 286.993 501.948 287.116C502.641 287.361 503.608 287.538 504.615 287.607C505.623 287.676 506.633 287.634 507.412 287.463C507.802 287.378 508.111 287.265 508.328 287.136C508.545 287.006 508.632 286.884 508.661 286.792C508.679 286.734 508.701 286.592 508.706 286.334C508.71 286.088 508.699 285.773 508.671 285.395C508.617 284.638 508.501 283.655 508.338 282.507C508.013 280.213 507.504 277.288 506.936 274.258C505.801 268.2 504.433 261.743 503.837 259.11ZM503.837 259.11L504.325 259M503.837 259.11L504.325 259M504.325 259C503.339 254.647 503.573 243.995 503.686 238.888C503.709 237.805 503.728 236.971 503.728 236.5C503.728 235.348 504.699 233.629 505.799 231.681C506.995 229.565 508.343 227.178 508.768 224.951L500.575 286.578C500.475 288.171 508.504 288.938 509.138 286.943C509.801 284.853 505.519 264.277 504.325 259ZM508.345 224.44L490.319 223.952L508.345 224.44ZM501.073 286.598C501.073 286.598 501.073 286.599 501.074 286.601C501.074 286.599 501.073 286.598 501.073 286.598Z" fill="white" stroke="#787878"/>
<path d="M484.007 165.068C483.611 165.316 483.028 165.626 482.587 166.366C482.146 167.105 483.136 167.385 483.484 167.169C483.833 166.954 484.737 166.182 484.911 165.933C485.086 165.684 484.558 164.725 484.007 165.068Z" fill="#787878"/>
<path d="M493.904 178.65L493.924 178.666C493.939 178.667 493.965 178.666 494.006 178.659C494.12 178.641 494.283 178.586 494.491 178.486C494.903 178.288 495.398 177.956 495.869 177.579C496.338 177.203 496.758 176.804 497.025 176.485C497.097 176.399 497.153 176.326 497.193 176.266C496.663 175.813 495.286 174.655 493.852 173.466C492.194 172.092 490.506 170.714 489.963 170.33C489.929 170.367 489.878 170.433 489.816 170.545C489.617 170.905 489.433 171.497 489.289 172.173C489.148 172.838 489.055 173.538 489.018 174.086C488.999 174.362 488.996 174.587 489.005 174.745C489.007 174.78 489.01 174.81 489.012 174.833C489.365 175.131 490.483 176.005 491.591 176.864C492.196 177.333 492.787 177.79 493.227 178.129C493.447 178.299 493.629 178.439 493.756 178.537L493.904 178.65ZM497.276 176.119C497.276 176.119 497.276 176.119 497.275 176.121L497.276 176.119ZM488.926 174.758L488.926 174.759L488.926 174.758Z" stroke="#787878"/>
<path d="M494.951 178.383C495.121 178.125 495.329 177.821 495.563 177.496C496.228 176.574 497.077 175.538 497.875 174.939L494.951 178.383ZM494.951 178.383C494.956 178.382 494.961 178.382 494.965 178.381C495.349 178.337 495.804 178.258 496.306 178.152C497.31 177.94 498.475 177.629 499.586 177.306C500.697 176.984 501.747 176.652 502.52 176.4C502.853 176.292 503.134 176.199 503.346 176.128C503.29 175.924 503.218 175.67 503.138 175.404C503.043 175.093 502.939 174.772 502.835 174.496C502.737 174.236 502.653 174.055 502.595 173.961C502.584 173.955 502.566 173.947 502.54 173.938C502.457 173.908 502.331 173.88 502.158 173.86C501.815 173.822 501.354 173.828 500.838 173.891C499.796 174.018 498.64 174.366 497.875 174.939L494.951 178.383Z" stroke="#787878"/>
<path d="M485.856 215.601L485.856 215.601C485.833 215.8 485.892 216.109 486.05 216.509C486.201 216.896 486.421 217.311 486.653 217.7C486.771 217.897 486.89 218.084 487.002 218.253C487.02 218.191 487.04 218.128 487.059 218.065C487.154 217.756 487.261 217.43 487.365 217.161C487.417 217.028 487.472 216.899 487.529 216.79C487.574 216.701 487.655 216.555 487.777 216.454L487.787 216.445L487.798 216.437C488.281 216.076 490.289 214.767 492.068 214.311L492.068 214.31C492.544 214.189 492.905 213.814 493.001 213.345L493.001 213.345C493.063 213.04 493.129 212.741 493.201 212.481C493.27 212.231 493.358 211.973 493.481 211.777C493.644 211.517 493.881 211.278 494.115 211.069C494.306 210.898 494.518 210.727 494.715 210.569C494.762 210.531 494.807 210.495 494.851 210.459C495.093 210.263 495.297 210.091 495.446 209.934C495.52 209.857 495.569 209.794 495.601 209.743C495.629 209.699 495.634 209.678 495.634 209.677C495.653 209.552 495.652 209.441 495.638 209.354C495.623 209.265 495.598 209.224 495.587 209.21C495.586 209.21 495.586 209.21 495.586 209.209C495.583 209.206 495.578 209.2 495.551 209.196C495.508 209.19 495.406 209.192 495.224 209.264C494.959 209.368 494.594 209.54 494.165 209.742C493.862 209.884 493.527 210.042 493.174 210.201C492.371 210.562 491.46 210.936 490.808 211.013C490.556 211.042 490.258 211.067 489.953 211.093C489.905 211.097 489.856 211.102 489.808 211.106C489.447 211.136 489.079 211.17 488.738 211.214C488.394 211.259 488.099 211.313 487.879 211.38C487.769 211.414 487.694 211.446 487.646 211.473C487.632 211.481 487.622 211.488 487.617 211.492L487.601 211.519C487.585 211.547 487.564 211.584 487.539 211.631C487.487 211.725 487.418 211.852 487.336 212.006C487.173 212.313 486.963 212.722 486.752 213.165C486.541 213.609 486.33 214.082 486.165 214.52C485.996 214.965 485.886 215.341 485.856 215.601Z" fill="white" stroke="#787878"/>
<circle cx="481.922" cy="137.997" r="0.922283" fill="#F1742E"/>
<path d="M484.458 195.18L484.458 146.99" stroke="#F1742E"/>
<path d="M481.922 147.22V135H487.225V147.22H481.922Z" fill="#F1742E"/>
<path d="M489.026 169.365C488.943 169.277 488.864 169.155 488.797 169.044C488.724 168.924 488.643 168.779 488.558 168.622C488.442 168.409 488.313 168.161 488.181 167.907C488.12 167.79 488.058 167.671 487.996 167.554C487.8 167.179 487.606 166.819 487.438 166.54C487.354 166.399 487.281 166.288 487.222 166.21C487.187 166.163 487.165 166.14 487.157 166.131C487.129 166.119 487.082 166.11 486.938 166.094L486.935 166.093C486.851 166.084 486.747 166.072 486.628 166.046L485.668 167.241C485.551 167.47 485.322 167.56 485.215 167.593C485.062 167.64 484.89 167.656 484.744 167.663C484.558 167.671 484.323 167.666 484.121 167.661C484.019 167.659 483.926 167.657 483.853 167.657C483.8 167.657 483.745 167.657 483.69 167.656C483.468 167.654 483.231 167.653 483.027 167.677C483.106 167.716 483.216 167.755 483.368 167.79C483.531 167.828 483.703 167.852 483.876 167.874C483.897 167.877 483.919 167.88 483.942 167.882C484.082 167.9 484.239 167.92 484.359 167.948C484.694 168.025 484.969 168.192 485.235 168.53C485.477 168.836 485.722 169.296 486.029 169.969C486.294 170.549 486.671 170.922 486.981 171.15C487.136 171.264 487.273 171.341 487.368 171.389C487.416 171.413 487.452 171.429 487.475 171.438C487.486 171.443 487.494 171.446 487.498 171.448C487.499 171.448 487.499 171.448 487.5 171.448C487.5 171.448 487.5 171.448 487.5 171.448L487.809 171.556L487.832 171.885C487.849 172.126 487.946 172.336 488.056 172.469C488.112 172.329 488.173 172.147 488.243 171.93C488.257 171.885 488.271 171.84 488.286 171.792C488.433 171.332 488.617 170.752 488.858 170.335L488.859 170.335C489.03 170.039 489.21 169.825 489.39 169.675C489.278 169.595 489.145 169.493 489.026 169.365ZM489.026 169.365C489.026 169.365 489.026 169.365 489.026 169.365L489.391 169.024L489.025 169.365C489.026 169.365 489.026 169.365 489.026 169.365ZM487.959 172.668C487.957 172.671 487.955 172.673 487.955 172.674C487.955 172.674 487.957 172.672 487.959 172.668Z" stroke="#787878"/>
<path d="M486.5 165.5L485 165V167.5L486.5 165.5Z" fill="#787878"/>
<g filter="url(#filter23_d_3144_64410)">
<path d="M375.41 54.752H365.308V49.4036H375.41V54.752Z" fill="white" stroke="#787878"/>
<path d="M427.939 22.0823H440.276L439.052 13.2848L427.939 22.0823ZM441.374 23.1135L425.13 23.2441L439.881 11.2065L441.374 23.1135Z" fill="#787878"/>
<path d="M355.381 34.127L355.183 33.4876L439.509 10.8496L439.584 10.9046L470.105 33.6805L469.662 34.0998L439.42 11.4821L355.381 34.127Z" fill="#888888"/>
<path d="M441.458 11.4812C441.458 12.8561 440.545 13.9629 439.418 13.9629C438.293 13.9629 437.38 12.8561 437.38 11.4812C437.38 10.1132 438.293 8.99949 439.418 8.99949C440.545 8.99949 441.458 10.1132 441.458 11.4812Z" fill="#787878"/>
<path d="M363.911 83.2871C362.812 83.2871 361.917 82.201 361.917 80.8604V79.4993L362.894 79.4649L362.826 80.7848C362.826 81.6235 363.126 82.146 363.812 82.146C364.498 82.146 364.96 81.6991 364.96 80.8673L365.059 78.7912C365.059 77.9525 364.596 77.3132 363.911 77.3132H361.917V73.0785L363.024 73.1197L362.96 76.392L363.911 76.4058C365.009 76.4058 365.902 77.4919 365.902 78.8256V80.8604C365.902 82.201 365.009 83.2871 363.911 83.2871Z" fill="#787878"/>
<path d="M362.762 73.8359H362.24V60.4238H362.762V73.8359Z" fill="#787878"/>
<path d="M418.508 28.4473H439.194V23.6H418.508V28.4473Z" fill="white" stroke="#787878"/>
<path d="M438.97 23.6632V28.4443L449.293 28.384V23.6029L438.97 23.6632Z" fill="white" stroke="#787878"/>
<path d="M412.616 33.8848H439.194V28.4985H412.616V33.8848Z" fill="white" stroke="#787878"/>
<path d="M412.868 190.832L435.5 199.468L470.323 187.356L444.987 178.712L412.868 190.832Z" fill="white" stroke="#787878"/>
<path d="M365.308 54.752H348.449V49.4036H365.308V54.752Z" fill="white" stroke="#787878"/>
<path d="M351.472 55.0462V59.3945H364.807V55.0462H351.472Z" fill="white" stroke="#787878"/>
<path d="M365.808 55.0462V59.3945L373.23 59.3945V55.0462L365.808 55.0462Z" fill="white" stroke="#787878"/>
<path d="M448.847 48.7912V190.829L435.176 195.256L428.645 192.655V48.7912H346L355.183 34.7109H469.661V48.7912H448.847Z" fill="white" stroke="#787878"/>
<path d="M442.725 42.0586L434.155 43.8317V194.941L442.725 192.411V42.0586Z" fill="#F0F0F0"/>
<path d="M429.257 75.1152L448.235 86.1346" stroke="#787878"/>
<path d="M452.521 48.7912L460.479 34.7109" stroke="#787878"/>
<path d="M394.975 48.7912L402.934 34.7109" stroke="#787878"/>
<path d="M371.711 48.7912L379.67 34.7109" stroke="#787878"/>
<path d="M429.257 137.559L448.235 148.578" stroke="#787878"/>
<path d="M429.257 88.584L448.235 99.6033" stroke="#787878"/>
<path d="M429.257 151.027L448.235 162.047" stroke="#787878"/>
<path d="M438.94 33.8848H453.419V28.4985H438.94V33.8848Z" fill="white" stroke="#787878"/>
</g>
<path d="M231.826 60.1683C228.217 60.2366 226.627 61.0847 225.004 64.7683L223.527 62.9655C223.187 62.5494 223.277 61.9304 223.723 61.6297L229.023 58.0551C229.413 57.7915 229.941 57.8687 230.24 58.2333L231.826 60.1683Z" fill="#F1742E"/>
<path d="M233.464 69.9565C235.92 68.3001 236.569 64.9653 234.912 62.5086C233.255 60.0519 229.921 59.4037 227.464 61.0601C225.007 62.7171 224.359 66.0513 226.016 68.5079C227.672 70.9646 231.007 71.6134 233.464 69.9565Z" stroke="#787878"/>
<path d="M233.159 69.5044C234.316 68.7243 234.622 67.154 233.841 65.9968C233.061 64.84 231.491 64.5348 230.334 65.315C229.177 66.0952 228.871 67.6655 229.651 68.8222C230.432 69.9793 232.002 70.2846 233.159 69.5044Z" fill="url(#paint30_linear_3144_64410)" stroke="#787878"/>
<path d="M233.648 66.1277C234.356 67.1781 234.079 68.6032 233.029 69.3114C231.979 70.0197 230.553 69.7425 229.845 68.6921C229.137 67.642 229.414 66.2167 230.465 65.5084C231.515 64.8002 232.94 65.0777 233.648 66.1277Z" fill="#F1742E"/>
<path d="M232.862 54.8869L250.449 63.0223L250.933 62.6958L234.278 52.1022L232.862 54.8869Z" stroke="#787878"/>
<path d="M220.667 83.1049L219.586 63.8914L216.474 64.1603L220.179 83.4337L220.667 83.1049Z" stroke="#787878"/>
<path d="M217.316 68.2368C218.156 68.1645 218.995 68.0945 219.835 68.0264L219.588 63.8925L216.481 64.161L217.316 68.2368Z" stroke="#F1742E"/>
<path d="M234.28 52.0967L232.865 54.8789L236.775 56.6098C237.153 55.8569 237.533 55.105 237.914 54.3538L234.28 52.0967Z" stroke="#F1742E"/>
<path d="M220.118 63.5544L220.117 63.5543C220.078 63.5521 220.041 63.5495 220 63.5467C219.988 63.5458 219.975 63.5449 219.962 63.544C217.481 63.3598 215.019 63.9967 212.869 65.1999C212.868 65.2 212.868 65.2002 212.868 65.2003L202.127 71.1574C202.293 70.7569 202.41 70.3707 202.475 69.9793C202.603 69.2141 202.526 68.4685 202.288 67.6013C202.357 67.5466 202.439 67.4816 202.534 67.407C202.865 67.1463 203.346 66.7673 203.951 66.2946C205.161 65.3491 206.862 64.0286 208.829 62.529C212.765 59.5284 217.757 55.816 222 52.9549C226.239 50.096 231.721 46.8414 236.149 44.2982C238.362 43.0274 240.309 41.9357 241.703 41.1617C242.4 40.7748 242.958 40.4673 243.342 40.2566C243.426 40.2106 243.502 40.1693 243.569 40.1327C244.06 40.7078 244.582 41.0993 245.253 41.2905C245.579 41.3834 245.927 41.4251 246.307 41.4263L236.775 49.0786C234.853 50.6217 233.339 52.6656 232.58 55.0362M220.118 63.5544L233.056 55.1888M220.118 63.5544C221.866 63.6611 223.507 62.7634 224.551 61.2937L224.551 61.2936C225.042 60.6037 225.662 59.9882 226.405 59.4875C227.148 58.9867 227.95 58.6424 228.774 58.446L228.774 58.4459C230.527 58.0292 231.975 56.8442 232.531 55.1846M220.118 63.5544L233.006 55.3421M232.58 55.0362L233.056 55.1888M232.58 55.0362C232.58 55.036 232.58 55.0359 232.58 55.0357L233.056 55.1888M232.58 55.0362C232.564 55.0852 232.548 55.1348 232.531 55.1846M233.056 55.1888C233.039 55.2399 233.023 55.2913 233.006 55.3421M232.531 55.1846C232.531 55.1841 232.532 55.1837 232.532 55.1832L233.006 55.3421M232.531 55.1846C232.531 55.1851 232.531 55.1856 232.531 55.1861L233.006 55.3421M247.175 41.3706L247.956 40.7431C247.598 40.8093 247.273 40.8588 246.975 40.8897L247.175 41.3706Z" stroke="#787878"/>
<path d="M205.715 65.2944C203.887 66.6349 203.066 67.2195 202.709 67.4625L202.37 71.185L205.09 69.406C206.013 67.808 206.206 66.3532 205.715 65.2944Z" stroke="#F1742E"/>
<path d="M240.409 42.1056C242.126 40.8118 242.997 40.253 243.424 40.0279C243.902 40.7953 244.595 41.26 245.486 41.3451C245.73 41.3685 245.985 41.3627 246.248 41.3295L244.461 42.9455C242.726 43.3551 241.304 42.9493 240.409 42.1056Z" stroke="#F1742E"/>
<path d="M188.323 70.2029L188.323 70.2029C190.784 69.0027 192.536 67.5175 193.705 65.1653L192.724 64.4889L184.282 70.1816C183.661 70.6003 183.794 71.5499 184.505 71.7828L184.505 71.7828C184.728 71.8557 184.97 71.839 185.18 71.7364L185.18 71.7363L188.323 70.2029Z" stroke="#F1742E"/>
<path d="M203.728 59.8137L203.728 59.8136L206.328 57.4742L206.328 57.474C206.502 57.3178 206.608 57.0998 206.624 56.8664L206.624 56.8663C206.674 56.1192 205.844 55.6407 205.223 56.0592L196.811 61.7322L197.164 62.8273C199.79 62.6395 201.685 61.6524 203.728 59.8137Z" stroke="#F1742E"/>
<path d="M194.391 67.6057L194.557 67.8515L194.891 67.6266L195.305 67.3471L195.585 67.7616L195.668 67.8855L196.284 68.138L197.558 67.2786L198.833 66.4192L198.829 65.7541L198.745 65.6301L198.466 65.2156L198.88 64.936L199.215 64.7107L199.049 64.465L194.392 61.5509L193.435 62.1963L194.391 67.6057Z" stroke="#787878"/>
<path d="M247.667 40.3352L247.669 40.3339L247.671 40.3326C249.129 39.3236 249.434 37.4801 248.422 35.9796C247.962 35.2968 247.363 35.1078 246.713 35.1674C246.025 35.2303 245.285 35.5768 244.675 35.9865L244.672 35.9884C244.671 35.989 244.67 35.9896 244.669 35.9902C244.668 35.9908 244.667 35.9914 244.666 35.9921L244.663 35.9943C244.054 36.4069 243.456 36.963 243.14 37.5764C242.841 38.1572 242.792 38.7829 243.253 39.4657C244.253 40.9485 246.167 41.3204 247.667 40.3352Z" stroke="#787878"/>
<path d="M250.61 28.1993L250.61 28.1992L253.21 25.8598L253.21 25.8596C253.383 25.7034 253.49 25.4853 253.505 25.252L253.505 25.2519C253.556 24.5048 252.726 24.0263 252.105 24.4448L243.601 30.1795L243.601 30.8497C246.285 30.6708 248.648 29.9651 250.61 28.1993Z" stroke="#F1742E"/>
<path d="M235.207 38.5874L235.207 38.5874C237.59 37.4252 238.633 35.5781 239.791 33.057L239.584 32.8895L231.166 38.5661C230.546 38.9848 230.678 39.9344 231.389 40.1675C231.612 40.2403 231.853 40.2235 232.064 40.1209L232.064 40.1208L235.207 38.5874Z" stroke="#F1742E"/>
<path d="M241.273 35.9905L241.438 36.2362L241.772 36.0114L242.186 35.7318L242.466 36.1464L242.55 36.2703L243.165 36.5228L244.44 35.6634L245.714 34.804L245.71 34.1388L245.627 34.0149L245.347 33.6003L245.762 33.3208L246.096 33.0955L245.93 32.8497L241.273 29.9356L240.316 30.5813L241.273 35.9905Z" stroke="#787878"/>
<path d="M197.78 67.6112L197.776 67.6133C197.776 67.6139 197.775 67.6145 197.774 67.6152C197.773 67.6158 197.772 67.6164 197.771 67.6171L197.768 67.6193C197.159 68.0319 196.56 68.588 196.245 69.2014C195.946 69.7822 195.897 70.4079 196.357 71.0907C197.369 72.5912 199.192 72.9991 200.675 72.0255L200.677 72.0242L200.678 72.0229C202.154 71.0019 202.527 69.0874 201.527 67.6046C201.066 66.9218 200.468 66.7328 199.817 66.7923C199.13 66.8551 198.39 67.2016 197.78 67.6112Z" stroke="#787878"/>
<defs>
<filter id="filter0_d_3144_64410" x="396.912" y="223.521" width="6.35066" height="6.52498" filterUnits="userSpaceOnUse" color-interpolation-filters="sRGB">
<feFlood flood-opacity="0" result="BackgroundImageFix"/>
<feColorMatrix in="SourceAlpha" type="matrix" values="0 0 0 0 0 0 0 0 0 0 0 0 0 0 0 0 0 0 127 0" result="hardAlpha"/>
<feMorphology radius="0.466013" operator="dilate" in="SourceAlpha" result="effect1_dropShadow_3144_64410"/>
<feOffset/>
<feGaussianBlur stdDeviation="0.699019"/>
<feComposite in2="hardAlpha" operator="out"/>
<feColorMatrix type="matrix" values="0 0 0 0 0.533333 0 0 0 0 0.533333 0 0 0 0 0.533333 0 0 0 1 0"/>
<feBlend mode="normal" in2="BackgroundImageFix" result="effect1_dropShadow_3144_64410"/>
<feBlend mode="normal" in="SourceGraphic" in2="effect1_dropShadow_3144_64410" result="shape"/>
</filter>
<filter id="filter1_d_3144_64410" x="167.546" y="282.919" width="6.35066" height="6.52498" filterUnits="userSpaceOnUse" color-interpolation-filters="sRGB">
<feFlood flood-opacity="0" result="BackgroundImageFix"/>
<feColorMatrix in="SourceAlpha" type="matrix" values="0 0 0 0 0 0 0 0 0 0 0 0 0 0 0 0 0 0 127 0" result="hardAlpha"/>
<feMorphology radius="0.466013" operator="dilate" in="SourceAlpha" result="effect1_dropShadow_3144_64410"/>
<feOffset/>
<feGaussianBlur stdDeviation="0.699019"/>
<feComposite in2="hardAlpha" operator="out"/>
<feColorMatrix type="matrix" values="0 0 0 0 1 0 0 0 0 0.792865 0 0 0 0 0.676667 0 0 0 1 0"/>
<feBlend mode="normal" in2="BackgroundImageFix" result="effect1_dropShadow_3144_64410"/>
<feBlend mode="normal" in="SourceGraphic" in2="effect1_dropShadow_3144_64410" result="shape"/>
</filter>
<filter id="filter2_d_3144_64410" x="144.353" y="194.743" width="6.35066" height="6.52498" filterUnits="userSpaceOnUse" color-interpolation-filters="sRGB">
<feFlood flood-opacity="0" result="BackgroundImageFix"/>
<feColorMatrix in="SourceAlpha" type="matrix" values="0 0 0 0 0 0 0 0 0 0 0 0 0 0 0 0 0 0 127 0" result="hardAlpha"/>
<feMorphology radius="0.466013" operator="dilate" in="SourceAlpha" result="effect1_dropShadow_3144_64410"/>
<feOffset/>
<feGaussianBlur stdDeviation="0.699019"/>
<feComposite in2="hardAlpha" operator="out"/>
<feColorMatrix type="matrix" values="0 0 0 0 0.533333 0 0 0 0 0.533333 0 0 0 0 0.533333 0 0 0 1 0"/>
<feBlend mode="normal" in2="BackgroundImageFix" result="effect1_dropShadow_3144_64410"/>
<feBlend mode="normal" in="SourceGraphic" in2="effect1_dropShadow_3144_64410" result="shape"/>
</filter>
<filter id="filter3_d_3144_64410" x="188.141" y="109.98" width="6.35066" height="6.52498" filterUnits="userSpaceOnUse" color-interpolation-filters="sRGB">
<feFlood flood-opacity="0" result="BackgroundImageFix"/>
<feColorMatrix in="SourceAlpha" type="matrix" values="0 0 0 0 0 0 0 0 0 0 0 0 0 0 0 0 0 0 127 0" result="hardAlpha"/>
<feMorphology radius="0.466013" operator="dilate" in="SourceAlpha" result="effect1_dropShadow_3144_64410"/>
<feOffset/>
<feGaussianBlur stdDeviation="0.699019"/>
<feComposite in2="hardAlpha" operator="out"/>
<feColorMatrix type="matrix" values="0 0 0 0 0.533333 0 0 0 0 0.533333 0 0 0 0 0.533333 0 0 0 1 0"/>
<feBlend mode="normal" in2="BackgroundImageFix" result="effect1_dropShadow_3144_64410"/>
<feBlend mode="normal" in="SourceGraphic" in2="effect1_dropShadow_3144_64410" result="shape"/>
</filter>
<filter id="filter4_d_3144_64410" x="148.193" y="96.0656" width="6.35066" height="6.52498" filterUnits="userSpaceOnUse" color-interpolation-filters="sRGB">
<feFlood flood-opacity="0" result="BackgroundImageFix"/>
<feColorMatrix in="SourceAlpha" type="matrix" values="0 0 0 0 0 0 0 0 0 0 0 0 0 0 0 0 0 0 127 0" result="hardAlpha"/>
<feMorphology radius="0.466013" operator="dilate" in="SourceAlpha" result="effect1_dropShadow_3144_64410"/>
<feOffset/>
<feGaussianBlur stdDeviation="0.699019"/>
<feComposite in2="hardAlpha" operator="out"/>
<feColorMatrix type="matrix" values="0 0 0 0 1 0 0 0 0 0.792865 0 0 0 0 0.676667 0 0 0 1 0"/>
<feBlend mode="normal" in2="BackgroundImageFix" result="effect1_dropShadow_3144_64410"/>
<feBlend mode="normal" in="SourceGraphic" in2="effect1_dropShadow_3144_64410" result="shape"/>
</filter>
<filter id="filter5_d_3144_64410" x="233.212" y="92.4543" width="6.35066" height="6.52498" filterUnits="userSpaceOnUse" color-interpolation-filters="sRGB">
<feFlood flood-opacity="0" result="BackgroundImageFix"/>
<feColorMatrix in="SourceAlpha" type="matrix" values="0 0 0 0 0 0 0 0 0 0 0 0 0 0 0 0 0 0 127 0" result="hardAlpha"/>
<feMorphology radius="0.466013" operator="dilate" in="SourceAlpha" result="effect1_dropShadow_3144_64410"/>
<feOffset/>
<feGaussianBlur stdDeviation="0.699019"/>
<feComposite in2="hardAlpha" operator="out"/>
<feColorMatrix type="matrix" values="0 0 0 0 1 0 0 0 0 0.792865 0 0 0 0 0.676667 0 0 0 1 0"/>
<feBlend mode="normal" in2="BackgroundImageFix" result="effect1_dropShadow_3144_64410"/>
<feBlend mode="normal" in="SourceGraphic" in2="effect1_dropShadow_3144_64410" result="shape"/>
</filter>
<filter id="filter6_d_3144_64410" x="279.655" y="47.1496" width="6.35066" height="6.52498" filterUnits="userSpaceOnUse" color-interpolation-filters="sRGB">
<feFlood flood-opacity="0" result="BackgroundImageFix"/>
<feColorMatrix in="SourceAlpha" type="matrix" values="0 0 0 0 0 0 0 0 0 0 0 0 0 0 0 0 0 0 127 0" result="hardAlpha"/>
<feMorphology radius="0.466013" operator="dilate" in="SourceAlpha" result="effect1_dropShadow_3144_64410"/>
<feOffset/>
<feGaussianBlur stdDeviation="0.699019"/>
<feComposite in2="hardAlpha" operator="out"/>
<feColorMatrix type="matrix" values="0 0 0 0 1 0 0 0 0 0.792865 0 0 0 0 0.676667 0 0 0 1 0"/>
<feBlend mode="normal" in2="BackgroundImageFix" result="effect1_dropShadow_3144_64410"/>
<feBlend mode="normal" in="SourceGraphic" in2="effect1_dropShadow_3144_64410" result="shape"/>
</filter>
<filter id="filter7_d_3144_64410" x="189.86" y="142.948" width="6.35066" height="6.52498" filterUnits="userSpaceOnUse" color-interpolation-filters="sRGB">
<feFlood flood-opacity="0" result="BackgroundImageFix"/>
<feColorMatrix in="SourceAlpha" type="matrix" values="0 0 0 0 0 0 0 0 0 0 0 0 0 0 0 0 0 0 127 0" result="hardAlpha"/>
<feMorphology radius="0.466013" operator="dilate" in="SourceAlpha" result="effect1_dropShadow_3144_64410"/>
<feOffset/>
<feGaussianBlur stdDeviation="0.699019"/>
<feComposite in2="hardAlpha" operator="out"/>
<feColorMatrix type="matrix" values="0 0 0 0 0.533333 0 0 0 0 0.533333 0 0 0 0 0.533333 0 0 0 1 0"/>
<feBlend mode="normal" in2="BackgroundImageFix" result="effect1_dropShadow_3144_64410"/>
<feBlend mode="normal" in="SourceGraphic" in2="effect1_dropShadow_3144_64410" result="shape"/>
</filter>
<filter id="filter8_d_3144_64410" x="145.57" y="125.657" width="6.35066" height="6.52498" filterUnits="userSpaceOnUse" color-interpolation-filters="sRGB">
<feFlood flood-opacity="0" result="BackgroundImageFix"/>
<feColorMatrix in="SourceAlpha" type="matrix" values="0 0 0 0 0 0 0 0 0 0 0 0 0 0 0 0 0 0 127 0" result="hardAlpha"/>
<feMorphology radius="0.466013" operator="dilate" in="SourceAlpha" result="effect1_dropShadow_3144_64410"/>
<feOffset/>
<feGaussianBlur stdDeviation="0.699019"/>
<feComposite in2="hardAlpha" operator="out"/>
<feColorMatrix type="matrix" values="0 0 0 0 0.533333 0 0 0 0 0.533333 0 0 0 0 0.533333 0 0 0 1 0"/>
<feBlend mode="normal" in2="BackgroundImageFix" result="effect1_dropShadow_3144_64410"/>
<feBlend mode="normal" in="SourceGraphic" in2="effect1_dropShadow_3144_64410" result="shape"/>
</filter>
<filter id="filter9_d_3144_64410" x="132.893" y="230.511" width="6.35066" height="6.52498" filterUnits="userSpaceOnUse" color-interpolation-filters="sRGB">
<feFlood flood-opacity="0" result="BackgroundImageFix"/>
<feColorMatrix in="SourceAlpha" type="matrix" values="0 0 0 0 0 0 0 0 0 0 0 0 0 0 0 0 0 0 127 0" result="hardAlpha"/>
<feMorphology radius="0.466013" operator="dilate" in="SourceAlpha" result="effect1_dropShadow_3144_64410"/>
<feOffset/>
<feGaussianBlur stdDeviation="0.699019"/>
<feComposite in2="hardAlpha" operator="out"/>
<feColorMatrix type="matrix" values="0 0 0 0 0.533333 0 0 0 0 0.533333 0 0 0 0 0.533333 0 0 0 1 0"/>
<feBlend mode="normal" in2="BackgroundImageFix" result="effect1_dropShadow_3144_64410"/>
<feBlend mode="normal" in="SourceGraphic" in2="effect1_dropShadow_3144_64410" result="shape"/>
</filter>
<filter id="filter10_d_3144_64410" x="394.952" y="121.999" width="6.35066" height="6.52498" filterUnits="userSpaceOnUse" color-interpolation-filters="sRGB">
<feFlood flood-opacity="0" result="BackgroundImageFix"/>
<feColorMatrix in="SourceAlpha" type="matrix" values="0 0 0 0 0 0 0 0 0 0 0 0 0 0 0 0 0 0 127 0" result="hardAlpha"/>
<feMorphology radius="0.466013" operator="dilate" in="SourceAlpha" result="effect1_dropShadow_3144_64410"/>
<feOffset/>
<feGaussianBlur stdDeviation="0.699019"/>
<feComposite in2="hardAlpha" operator="out"/>
<feColorMatrix type="matrix" values="0 0 0 0 0.533333 0 0 0 0 0.533333 0 0 0 0 0.533333 0 0 0 1 0"/>
<feBlend mode="normal" in2="BackgroundImageFix" result="effect1_dropShadow_3144_64410"/>
<feBlend mode="normal" in="SourceGraphic" in2="effect1_dropShadow_3144_64410" result="shape"/>
</filter>
<filter id="filter11_d_3144_64410" x="399.097" y="92.5715" width="6.35066" height="6.52498" filterUnits="userSpaceOnUse" color-interpolation-filters="sRGB">
<feFlood flood-opacity="0" result="BackgroundImageFix"/>
<feColorMatrix in="SourceAlpha" type="matrix" values="0 0 0 0 0 0 0 0 0 0 0 0 0 0 0 0 0 0 127 0" result="hardAlpha"/>
<feMorphology radius="0.466013" operator="dilate" in="SourceAlpha" result="effect1_dropShadow_3144_64410"/>
<feOffset/>
<feGaussianBlur stdDeviation="0.699019"/>
<feComposite in2="hardAlpha" operator="out"/>
<feColorMatrix type="matrix" values="0 0 0 0 0.533333 0 0 0 0 0.533333 0 0 0 0 0.533333 0 0 0 1 0"/>
<feBlend mode="normal" in2="BackgroundImageFix" result="effect1_dropShadow_3144_64410"/>
<feBlend mode="normal" in="SourceGraphic" in2="effect1_dropShadow_3144_64410" result="shape"/>
</filter>
<filter id="filter12_d_3144_64410" x="437.126" y="137.724" width="6.35066" height="6.52498" filterUnits="userSpaceOnUse" color-interpolation-filters="sRGB">
<feFlood flood-opacity="0" result="BackgroundImageFix"/>
<feColorMatrix in="SourceAlpha" type="matrix" values="0 0 0 0 0 0 0 0 0 0 0 0 0 0 0 0 0 0 127 0" result="hardAlpha"/>
<feMorphology radius="0.466013" operator="dilate" in="SourceAlpha" result="effect1_dropShadow_3144_64410"/>
<feOffset/>
<feGaussianBlur stdDeviation="0.699019"/>
<feComposite in2="hardAlpha" operator="out"/>
<feColorMatrix type="matrix" values="0 0 0 0 1 0 0 0 0 0.517647 0 0 0 0 0.247059 0 0 0 1 0"/>
<feBlend mode="normal" in2="BackgroundImageFix" result="effect1_dropShadow_3144_64410"/>
<feBlend mode="normal" in="SourceGraphic" in2="effect1_dropShadow_3144_64410" result="shape"/>
</filter>
<filter id="filter13_d_3144_64410" x="434.504" y="106.552" width="6.35066" height="6.52498" filterUnits="userSpaceOnUse" color-interpolation-filters="sRGB">
<feFlood flood-opacity="0" result="BackgroundImageFix"/>
<feColorMatrix in="SourceAlpha" type="matrix" values="0 0 0 0 0 0 0 0 0 0 0 0 0 0 0 0 0 0 127 0" result="hardAlpha"/>
<feMorphology radius="0.466013" operator="dilate" in="SourceAlpha" result="effect1_dropShadow_3144_64410"/>
<feOffset/>
<feGaussianBlur stdDeviation="0.699019"/>
<feComposite in2="hardAlpha" operator="out"/>
<feColorMatrix type="matrix" values="0 0 0 0 0.533333 0 0 0 0 0.533333 0 0 0 0 0.533333 0 0 0 1 0"/>
<feBlend mode="normal" in2="BackgroundImageFix" result="effect1_dropShadow_3144_64410"/>
<feBlend mode="normal" in="SourceGraphic" in2="effect1_dropShadow_3144_64410" result="shape"/>
</filter>
<filter id="filter14_d_3144_64410" x="358.446" y="44.5715" width="6.35066" height="6.52498" filterUnits="userSpaceOnUse" color-interpolation-filters="sRGB">
<feFlood flood-opacity="0" result="BackgroundImageFix"/>
<feColorMatrix in="SourceAlpha" type="matrix" values="0 0 0 0 0 0 0 0 0 0 0 0 0 0 0 0 0 0 127 0" result="hardAlpha"/>
<feMorphology radius="0.466013" operator="dilate" in="SourceAlpha" result="effect1_dropShadow_3144_64410"/>
<feOffset/>
<feGaussianBlur stdDeviation="0.699019"/>
<feComposite in2="hardAlpha" operator="out"/>
<feColorMatrix type="matrix" values="0 0 0 0 0.533333 0 0 0 0 0.533333 0 0 0 0 0.533333 0 0 0 1 0"/>
<feBlend mode="normal" in2="BackgroundImageFix" result="effect1_dropShadow_3144_64410"/>
<feBlend mode="normal" in="SourceGraphic" in2="effect1_dropShadow_3144_64410" result="shape"/>
</filter>
<filter id="filter15_d_3144_64410" x="348.83" y="242.161" width="6.35066" height="6.52498" filterUnits="userSpaceOnUse" color-interpolation-filters="sRGB">
<feFlood flood-opacity="0" result="BackgroundImageFix"/>
<feColorMatrix in="SourceAlpha" type="matrix" values="0 0 0 0 0 0 0 0 0 0 0 0 0 0 0 0 0 0 127 0" result="hardAlpha"/>
<feMorphology radius="0.466013" operator="dilate" in="SourceAlpha" result="effect1_dropShadow_3144_64410"/>
<feOffset/>
<feGaussianBlur stdDeviation="0.699019"/>
<feComposite in2="hardAlpha" operator="out"/>
<feColorMatrix type="matrix" values="0 0 0 0 0.533333 0 0 0 0 0.533333 0 0 0 0 0.533333 0 0 0 1 0"/>
<feBlend mode="normal" in2="BackgroundImageFix" result="effect1_dropShadow_3144_64410"/>
<feBlend mode="normal" in="SourceGraphic" in2="effect1_dropShadow_3144_64410" result="shape"/>
</filter>
<filter id="filter16_d_3144_64410" x="351.452" y="205.812" width="6.35066" height="6.52498" filterUnits="userSpaceOnUse" color-interpolation-filters="sRGB">
<feFlood flood-opacity="0" result="BackgroundImageFix"/>
<feColorMatrix in="SourceAlpha" type="matrix" values="0 0 0 0 0 0 0 0 0 0 0 0 0 0 0 0 0 0 127 0" result="hardAlpha"/>
<feMorphology radius="0.466013" operator="dilate" in="SourceAlpha" result="effect1_dropShadow_3144_64410"/>
<feOffset/>
<feGaussianBlur stdDeviation="0.699019"/>
<feComposite in2="hardAlpha" operator="out"/>
<feColorMatrix type="matrix" values="0 0 0 0 0.533333 0 0 0 0 0.533333 0 0 0 0 0.533333 0 0 0 1 0"/>
<feBlend mode="normal" in2="BackgroundImageFix" result="effect1_dropShadow_3144_64410"/>
<feBlend mode="normal" in="SourceGraphic" in2="effect1_dropShadow_3144_64410" result="shape"/>
</filter>
<filter id="filter17_d_3144_64410" x="305.555" y="224.919" width="6.35066" height="6.52498" filterUnits="userSpaceOnUse" color-interpolation-filters="sRGB">
<feFlood flood-opacity="0" result="BackgroundImageFix"/>
<feColorMatrix in="SourceAlpha" type="matrix" values="0 0 0 0 0 0 0 0 0 0 0 0 0 0 0 0 0 0 127 0" result="hardAlpha"/>
<feMorphology radius="0.466013" operator="dilate" in="SourceAlpha" result="effect1_dropShadow_3144_64410"/>
<feOffset/>
<feGaussianBlur stdDeviation="0.699019"/>
<feComposite in2="hardAlpha" operator="out"/>
<feColorMatrix type="matrix" values="0 0 0 0 0.533333 0 0 0 0 0.533333 0 0 0 0 0.533333 0 0 0 1 0"/>
<feBlend mode="normal" in2="BackgroundImageFix" result="effect1_dropShadow_3144_64410"/>
<feBlend mode="normal" in="SourceGraphic" in2="effect1_dropShadow_3144_64410" result="shape"/>
</filter>
<filter id="filter18_d_3144_64410" x="396.801" y="186.698" width="6.35066" height="6.52498" filterUnits="userSpaceOnUse" color-interpolation-filters="sRGB">
<feFlood flood-opacity="0" result="BackgroundImageFix"/>
<feColorMatrix in="SourceAlpha" type="matrix" values="0 0 0 0 0 0 0 0 0 0 0 0 0 0 0 0 0 0 127 0" result="hardAlpha"/>
<feMorphology radius="0.466013" operator="dilate" in="SourceAlpha" result="effect1_dropShadow_3144_64410"/>
<feOffset/>
<feGaussianBlur stdDeviation="0.699019"/>
<feComposite in2="hardAlpha" operator="out"/>
<feColorMatrix type="matrix" values="0 0 0 0 1 0 0 0 0 0.792865 0 0 0 0 0.676667 0 0 0 1 0"/>
<feBlend mode="normal" in2="BackgroundImageFix" result="effect1_dropShadow_3144_64410"/>
<feBlend mode="normal" in="SourceGraphic" in2="effect1_dropShadow_3144_64410" result="shape"/>
</filter>
<filter id="filter19_d_3144_64410" x="442.481" y="278.968" width="6.35066" height="6.52498" filterUnits="userSpaceOnUse" color-interpolation-filters="sRGB">
<feFlood flood-opacity="0" result="BackgroundImageFix"/>
<feColorMatrix in="SourceAlpha" type="matrix" values="0 0 0 0 0 0 0 0 0 0 0 0 0 0 0 0 0 0 127 0" result="hardAlpha"/>
<feMorphology radius="0.466013" operator="dilate" in="SourceAlpha" result="effect1_dropShadow_3144_64410"/>
<feOffset/>
<feGaussianBlur stdDeviation="0.699019"/>
<feComposite in2="hardAlpha" operator="out"/>
<feColorMatrix type="matrix" values="0 0 0 0 1 0 0 0 0 0.792865 0 0 0 0 0.676667 0 0 0 1 0"/>
<feBlend mode="normal" in2="BackgroundImageFix" result="effect1_dropShadow_3144_64410"/>
<feBlend mode="normal" in="SourceGraphic" in2="effect1_dropShadow_3144_64410" result="shape"/>
</filter>
<filter id="filter20_d_3144_64410" x="252.664" y="280.839" width="6.35066" height="6.52498" filterUnits="userSpaceOnUse" color-interpolation-filters="sRGB">
<feFlood flood-opacity="0" result="BackgroundImageFix"/>
<feColorMatrix in="SourceAlpha" type="matrix" values="0 0 0 0 0 0 0 0 0 0 0 0 0 0 0 0 0 0 127 0" result="hardAlpha"/>
<feMorphology radius="0.466013" operator="dilate" in="SourceAlpha" result="effect1_dropShadow_3144_64410"/>
<feOffset/>
<feGaussianBlur stdDeviation="0.699019"/>
<feComposite in2="hardAlpha" operator="out"/>
<feColorMatrix type="matrix" values="0 0 0 0 1 0 0 0 0 0.792865 0 0 0 0 0.676667 0 0 0 1 0"/>
<feBlend mode="normal" in2="BackgroundImageFix" result="effect1_dropShadow_3144_64410"/>
<feBlend mode="normal" in="SourceGraphic" in2="effect1_dropShadow_3144_64410" result="shape"/>
</filter>
<filter id="filter21_d_3144_64410" x="443.684" y="242.161" width="6.35066" height="6.52498" filterUnits="userSpaceOnUse" color-interpolation-filters="sRGB">
<feFlood flood-opacity="0" result="BackgroundImageFix"/>
<feColorMatrix in="SourceAlpha" type="matrix" values="0 0 0 0 0 0 0 0 0 0 0 0 0 0 0 0 0 0 127 0" result="hardAlpha"/>
<feMorphology radius="0.466013" operator="dilate" in="SourceAlpha" result="effect1_dropShadow_3144_64410"/>
<feOffset/>
<feGaussianBlur stdDeviation="0.699019"/>
<feComposite in2="hardAlpha" operator="out"/>
<feColorMatrix type="matrix" values="0 0 0 0 1 0 0 0 0 0.792865 0 0 0 0 0.676667 0 0 0 1 0"/>
<feBlend mode="normal" in2="BackgroundImageFix" result="effect1_dropShadow_3144_64410"/>
<feBlend mode="normal" in="SourceGraphic" in2="effect1_dropShadow_3144_64410" result="shape"/>
</filter>
<filter id="filter22_d_3144_64410" x="252.017" y="107.973" width="136.081" height="129.56" filterUnits="userSpaceOnUse" color-interpolation-filters="sRGB">
<feFlood flood-opacity="0" result="BackgroundImageFix"/>
<feColorMatrix in="SourceAlpha" type="matrix" values="0 0 0 0 0 0 0 0 0 0 0 0 0 0 0 0 0 0 127 0" result="hardAlpha"/>
<feOffset dx="-1.20349"/>
<feGaussianBlur stdDeviation="2.40698"/>
<feComposite in2="hardAlpha" operator="out"/>
<feColorMatrix type="matrix" values="0 0 0 0 0 0 0 0 0 0 0 0 0 0 0 0 0 0 0.25 0"/>
<feBlend mode="normal" in2="BackgroundImageFix" result="effect1_dropShadow_3144_64410"/>
<feBlend mode="normal" in="SourceGraphic" in2="effect1_dropShadow_3144_64410" result="shape"/>
</filter>
<filter id="filter23_d_3144_64410" x="342.547" y="7.10265" width="130.575" height="194.795" filterUnits="userSpaceOnUse" color-interpolation-filters="sRGB">
<feFlood flood-opacity="0" result="BackgroundImageFix"/>
<feColorMatrix in="SourceAlpha" type="matrix" values="0 0 0 0 0 0 0 0 0 0 0 0 0 0 0 0 0 0 127 0" result="hardAlpha"/>
<feOffset dx="-0.632451"/>
<feGaussianBlur stdDeviation="0.948676"/>
<feComposite in2="hardAlpha" operator="out"/>
<feColorMatrix type="matrix" values="0 0 0 0 0 0 0 0 0 0 0 0 0 0 0 0 0 0 0.25 0"/>
<feBlend mode="normal" in2="BackgroundImageFix" result="effect1_dropShadow_3144_64410"/>
<feBlend mode="normal" in="SourceGraphic" in2="effect1_dropShadow_3144_64410" result="shape"/>
</filter>
<linearGradient id="paint0_linear_3144_64410" x1="769.451" y1="84.6498" x2="168.173" y2="1.47084" gradientUnits="userSpaceOnUse">
<stop stop-color="white" stop-opacity="0"/>
<stop offset="0.221875" stop-color="#B8ADA5"/>
<stop offset="0.753125" stop-color="#8F8A87"/>
<stop offset="1" stop-color="white" stop-opacity="0"/>
</linearGradient>
<linearGradient id="paint1_linear_3144_64410" x1="774.041" y1="101.192" x2="252.879" y2="39.1952" gradientUnits="userSpaceOnUse">
<stop stop-color="white" stop-opacity="0"/>
<stop offset="0.221875" stop-color="#B8ADA5"/>
<stop offset="0.753125" stop-color="#8F8A87"/>
<stop offset="1" stop-color="white" stop-opacity="0"/>
</linearGradient>
<linearGradient id="paint2_linear_3144_64410" x1="738.416" y1="166.9" x2="362.975" y2="116.167" gradientUnits="userSpaceOnUse">
<stop stop-color="white" stop-opacity="0"/>
<stop offset="0.221875" stop-color="#B8ADA5"/>
<stop offset="0.753125" stop-color="#8F8A87"/>
<stop offset="1" stop-color="white" stop-opacity="0"/>
</linearGradient>
<linearGradient id="paint3_linear_3144_64410" x1="735.794" y1="203.249" x2="403.837" y2="160.6" gradientUnits="userSpaceOnUse">
<stop stop-color="white" stop-opacity="0"/>
<stop offset="0.221875" stop-color="#B8ADA5"/>
<stop offset="0.753125" stop-color="#8F8A87"/>
<stop offset="1" stop-color="white" stop-opacity="0"/>
</linearGradient>
<linearGradient id="paint4_linear_3144_64410" x1="716.56" y1="248.687" x2="486.708" y2="220.083" gradientUnits="userSpaceOnUse">
<stop stop-color="white" stop-opacity="0"/>
<stop offset="0.221875" stop-color="#B8ADA5"/>
<stop offset="0.753125" stop-color="#8F8A87"/>
<stop offset="1" stop-color="white" stop-opacity="0"/>
</linearGradient>
<linearGradient id="paint5_linear_3144_64410" x1="497.346" y1="148.26" x2="79.4625" y2="97.5948" gradientUnits="userSpaceOnUse">
<stop stop-color="white" stop-opacity="0"/>
<stop offset="0.221875" stop-color="#B8ADA5"/>
<stop offset="0.753125" stop-color="#8F8A87"/>
<stop offset="1" stop-color="white" stop-opacity="0"/>
</linearGradient>
<linearGradient id="paint6_linear_3144_64410" x1="72.1978" y1="207.166" x2="325.328" y2="175.236" gradientUnits="userSpaceOnUse">
<stop stop-color="white" stop-opacity="0"/>
<stop offset="0.221875" stop-color="#B8ADA5"/>
<stop offset="0.753125" stop-color="#8F8A87"/>
<stop offset="1" stop-color="white" stop-opacity="0"/>
</linearGradient>
<linearGradient id="paint7_linear_3144_64410" x1="66.4458" y1="244.537" x2="239.4" y2="222.239" gradientUnits="userSpaceOnUse">
<stop stop-color="white" stop-opacity="0"/>
<stop offset="0.221875" stop-color="#B8ADA5"/>
<stop offset="0.753125" stop-color="#8F8A87"/>
<stop offset="1" stop-color="white" stop-opacity="0"/>
</linearGradient>
<linearGradient id="paint8_linear_3144_64410" x1="37.1536" y1="122.731" x2="534.647" y2="55.073" gradientUnits="userSpaceOnUse">
<stop stop-color="white" stop-opacity="0"/>
<stop offset="0.221875" stop-color="#B8ADA5"/>
<stop offset="0.753125" stop-color="#8F8A87"/>
<stop offset="1" stop-color="white" stop-opacity="0"/>
</linearGradient>
<linearGradient id="paint9_linear_3144_64410" x1="47.1836" y1="163.181" x2="465.193" y2="104.055" gradientUnits="userSpaceOnUse">
<stop stop-color="white" stop-opacity="0"/>
<stop offset="0.221875" stop-color="#B8ADA5"/>
<stop offset="0.753125" stop-color="#8F8A87"/>
<stop offset="1" stop-color="white" stop-opacity="0"/>
</linearGradient>
<linearGradient id="paint10_linear_3144_64410" x1="36.4253" y1="89.9296" x2="686.364" y2="3.88945" gradientUnits="userSpaceOnUse">
<stop stop-color="white" stop-opacity="0"/>
<stop offset="0.221875" stop-color="#B8ADA5"/>
<stop offset="0.753125" stop-color="#8F8A87"/>
<stop offset="1" stop-color="white" stop-opacity="0"/>
</linearGradient>
<linearGradient id="paint11_linear_3144_64410" x1="479.861" y1="92.1064" x2="52.2015" y2="40.4681" gradientUnits="userSpaceOnUse">
<stop stop-color="white" stop-opacity="0"/>
<stop offset="0.221875" stop-color="#B8ADA5"/>
<stop offset="0.753125" stop-color="#8F8A87"/>
<stop offset="1" stop-color="white" stop-opacity="0"/>
</linearGradient>
<linearGradient id="paint12_linear_3144_64410" x1="463.192" y1="43.595" x2="59.8687" y2="-13.3557" gradientUnits="userSpaceOnUse">
<stop stop-color="white" stop-opacity="0"/>
<stop offset="0.221875" stop-color="#B8ADA5"/>
<stop offset="0.753125" stop-color="#8F8A87"/>
<stop offset="1" stop-color="white" stop-opacity="0"/>
</linearGradient>
<linearGradient id="paint13_linear_3144_64410" x1="414.512" y1="28.2623" x2="63.5134" y2="-19.1175" gradientUnits="userSpaceOnUse">
<stop stop-color="white" stop-opacity="0"/>
<stop offset="0.221875" stop-color="#B8ADA5"/>
<stop offset="0.753125" stop-color="#8F8A87"/>
<stop offset="1" stop-color="white" stop-opacity="0"/>
</linearGradient>
<linearGradient id="paint14_linear_3144_64410" x1="324.248" y1="34.319" x2="82.4453" y2="2.9972" gradientUnits="userSpaceOnUse">
<stop stop-color="white" stop-opacity="0"/>
<stop offset="0.221875" stop-color="#B8ADA5"/>
<stop offset="0.753125" stop-color="#8F8A87"/>
<stop offset="1" stop-color="white" stop-opacity="0"/>
</linearGradient>
<linearGradient id="paint15_linear_3144_64410" x1="479.424" y1="127.057" x2="98.7526" y2="77.0167" gradientUnits="userSpaceOnUse">
<stop stop-color="white" stop-opacity="0"/>
<stop offset="0.221875" stop-color="#B8ADA5"/>
<stop offset="0.753125" stop-color="#8F8A87"/>
<stop offset="1" stop-color="white" stop-opacity="0"/>
</linearGradient>
<linearGradient id="paint16_linear_3144_64410" x1="487.511" y1="61.8145" x2="51.1517" y2="2.14172" gradientUnits="userSpaceOnUse">
<stop stop-color="white" stop-opacity="0"/>
<stop offset="0.221875" stop-color="#B8ADA5"/>
<stop offset="0.753125" stop-color="#8F8A87"/>
<stop offset="1" stop-color="white" stop-opacity="0"/>
</linearGradient>
<linearGradient id="paint17_linear_3144_64410" x1="66.6816" y1="36.5397" x2="730.044" y2="-60.8119" gradientUnits="userSpaceOnUse">
<stop stop-color="white" stop-opacity="0"/>
<stop offset="0.249452" stop-color="#B8ADA5"/>
<stop offset="0.753125" stop-color="#8F8A87"/>
<stop offset="1" stop-color="white" stop-opacity="0"/>
</linearGradient>
<linearGradient id="paint18_linear_3144_64410" x1="39.0405" y1="58.354" x2="705.027" y2="-33.2683" gradientUnits="userSpaceOnUse">
<stop stop-color="white" stop-opacity="0"/>
<stop offset="0.221875" stop-color="#B8ADA5"/>
<stop offset="0.753125" stop-color="#8F8A87"/>
<stop offset="1" stop-color="white" stop-opacity="0"/>
</linearGradient>
<linearGradient id="paint19_linear_3144_64410" x1="171.011" y1="42.6576" x2="700.731" y2="-35.0328" gradientUnits="userSpaceOnUse">
<stop stop-color="white" stop-opacity="0"/>
<stop offset="0.221875" stop-color="#B8ADA5"/>
<stop offset="0.753125" stop-color="#8F8A87"/>
<stop offset="1" stop-color="white" stop-opacity="0"/>
</linearGradient>
<linearGradient id="paint20_linear_3144_64410" x1="152.024" y1="5.95256" x2="698.844" y2="-76.9323" gradientUnits="userSpaceOnUse">
<stop stop-color="white" stop-opacity="0"/>
<stop offset="0.221875" stop-color="#B8ADA5"/>
<stop offset="0.753125" stop-color="#8F8A87"/>
<stop offset="1" stop-color="white" stop-opacity="0"/>
</linearGradient>
<linearGradient id="paint21_linear_3144_64410" x1="237.489" y1="4.91552" x2="692.304" y2="-61.9075" gradientUnits="userSpaceOnUse">
<stop stop-color="white" stop-opacity="0"/>
<stop offset="0.221875" stop-color="#B8ADA5"/>
<stop offset="0.753125" stop-color="#8F8A87"/>
<stop offset="1" stop-color="white" stop-opacity="0"/>
</linearGradient>
<linearGradient id="paint22_linear_3144_64410" x1="170.94" y1="287.579" x2="170.94" y2="285.016" gradientUnits="userSpaceOnUse">
<stop offset="0.081432" stop-color="#F1742E" stop-opacity="0.75"/>
<stop offset="1" stop-color="#FFF5EF"/>
</linearGradient>
<linearGradient id="paint23_linear_3144_64410" x1="151.587" y1="100.726" x2="151.587" y2="98.1627" gradientUnits="userSpaceOnUse">
<stop offset="0.081432" stop-color="#F1742E" stop-opacity="0.75"/>
<stop offset="1" stop-color="#FFF5EF"/>
</linearGradient>
<linearGradient id="paint24_linear_3144_64410" x1="236.606" y1="97.1144" x2="236.606" y2="94.5514" gradientUnits="userSpaceOnUse">
<stop offset="0.081432" stop-color="#F1742E" stop-opacity="0.75"/>
<stop offset="1" stop-color="#FFF5EF"/>
</linearGradient>
<linearGradient id="paint25_linear_3144_64410" x1="283.049" y1="51.8097" x2="283.049" y2="49.2467" gradientUnits="userSpaceOnUse">
<stop offset="0.081432" stop-color="#F1742E" stop-opacity="0.75"/>
<stop offset="1" stop-color="#FFF5EF"/>
</linearGradient>
<linearGradient id="paint26_linear_3144_64410" x1="400.195" y1="191.359" x2="400.195" y2="188.796" gradientUnits="userSpaceOnUse">
<stop offset="0.081432" stop-color="#F1742E" stop-opacity="0.75"/>
<stop offset="1" stop-color="#FFF5EF"/>
</linearGradient>
<linearGradient id="paint27_linear_3144_64410" x1="445.875" y1="283.628" x2="445.875" y2="281.065" gradientUnits="userSpaceOnUse">
<stop offset="0.081432" stop-color="#F1742E" stop-opacity="0.75"/>
<stop offset="1" stop-color="#FFF5EF"/>
</linearGradient>
<linearGradient id="paint28_linear_3144_64410" x1="256.058" y1="285.499" x2="256.058" y2="282.936" gradientUnits="userSpaceOnUse">
<stop offset="0.081432" stop-color="#F1742E" stop-opacity="0.75"/>
<stop offset="1" stop-color="#FFF5EF"/>
</linearGradient>
<linearGradient id="paint29_linear_3144_64410" x1="447.078" y1="246.821" x2="447.078" y2="244.258" gradientUnits="userSpaceOnUse">
<stop offset="0.081432" stop-color="#F1742E" stop-opacity="0.75"/>
<stop offset="1" stop-color="#FFF5EF"/>
</linearGradient>
<linearGradient id="paint30_linear_3144_64410" x1="233.439" y1="69.9191" x2="230.054" y2="64.9005" gradientUnits="userSpaceOnUse">
<stop stop-color="#F9F6F6"/>
<stop offset="1" stop-color="#EBEBEB"/>
</linearGradient>
</defs>
</svg>
