<svg width="18" height="18" viewBox="0 0 18 18" fill="none" xmlns="http://www.w3.org/2000/svg">
<path d="M6.60688 12.3931L3.0911 8.87734L4.36406 7.60438C4.77161 7.19683 5.29334 6.97304 5.82628 6.933M6.60688 12.3931L10.1227 15.9089L11.3956 14.6359C11.6987 14.3329 11.9002 13.9666 12 13.5796M6.60688 12.3931L2 17M9.25789 7.07497L10.3329 6L11.335 4.99786L10.1227 3.78552L11.4562 2.45195C12.0588 1.84935 13.0358 1.84935 13.6384 2.45195L16.548 5.36156C17.1506 5.96416 17.1506 6.94117 16.548 7.54377L15.2145 8.87734L14.2446 7.90747L13 9.15208L12.0463 10.1058" stroke="#36415D" stroke-linecap="round" stroke-linejoin="round"/>
<path d="M3 2L16 17" stroke="#36415D" stroke-linecap="round" stroke-linejoin="round"/>
</svg>
