<svg width="18" height="19" viewBox="0 0 18 19" fill="none" xmlns="http://www.w3.org/2000/svg">
<path d="M7.86549 4.1256L2.24996 13.5003C2.13418 13.7008 2.07292 13.9281 2.07227 14.1596C2.07162 14.3912 2.13161 14.6188 2.24626 14.82C2.36092 15.0211 2.52624 15.1888 2.72579 15.3062C2.92534 15.4236 3.15216 15.4867 3.38367 15.4893H14.6147C14.8463 15.4867 15.0731 15.4236 15.2726 15.3062C15.4722 15.1888 15.6375 15.0211 15.7521 14.82C15.8668 14.6188 15.9268 14.3912 15.9261 14.1596C15.9255 13.9281 15.8642 13.7008 15.7485 13.5003L10.1329 4.1256C10.0147 3.93075 9.84831 3.76965 9.64973 3.65784C9.45115 3.54604 9.2271 3.4873 8.9992 3.4873C8.77131 3.4873 8.54726 3.54604 8.34868 3.65784C8.1501 3.76965 7.98368 3.93075 7.86549 4.1256Z" stroke="#36415D" stroke-linecap="round"/>
<path d="M9.00098 7.53333V10.1853" stroke="#36415D" stroke-linecap="round" stroke-linejoin="round"/>
<path d="M9.00098 12.8364H9.00916" stroke="#36415D" stroke-width="2" stroke-linecap="round" stroke-linejoin="round"/>
</svg>
