<svg width="18" height="18" viewBox="0 0 18 18" fill="none" xmlns="http://www.w3.org/2000/svg">
<path d="M11.0876 2.0853C10.7125 1.71022 10.2038 1.49951 9.6734 1.49951H4.50183V1.49951C3.6734 1.49951 3.00183 2.17108 3.00183 2.99951V14.4995C3.00183 15.6041 3.89726 16.4995 5.00183 16.4995C7.6685 16.4995 10.3352 16.4995 13.0018 16.4995C14.1064 16.4995 15.0018 15.6041 15.0018 14.4995V6.82794C15.0018 6.29751 14.7911 5.7888 14.416 5.41372L11.0876 2.0853Z" stroke="#36415D" stroke-linecap="round"/>
<path d="M10.4982 1.73621V6.00001L14.547 6.00003" stroke="#36415D" stroke-linecap="round" stroke-linejoin="round"/>
<path d="M11.7273 9.75049H5.72729" stroke="#36415D" stroke-linecap="round"/>
<path d="M11.7273 12.7495H5.72729" stroke="#36415D" stroke-linecap="round"/>
<path d="M7.08907 6.75H6.33907H5.72729" stroke="#36415D" stroke-linecap="round"/>
</svg>
