<svg width="18" height="18" viewBox="0 0 18 18" fill="none" xmlns="http://www.w3.org/2000/svg">
<path d="M10.7809 3.61264C10.4058 3.23757 9.89707 3.02686 9.36664 3.02686H5.4271V3.02686C4.76878 3.02686 4.23511 3.56053 4.23511 4.21885V12.9468C4.23511 14.0513 5.13054 14.9468 6.23511 14.9468C8.08042 14.9468 9.92573 14.9468 11.771 14.9468C12.8756 14.9468 13.771 14.0513 13.771 12.9468V7.43126C13.771 6.90083 13.5603 6.39212 13.1853 6.01705L10.7809 3.61264Z" stroke="#36415D" stroke-linecap="round"/>
<path d="M10.1912 3.21533V6.60361L13.4086 6.60362" stroke="#36415D" stroke-linecap="round" stroke-linejoin="round"/>
<path d="M11.1681 9.58398H6.40015" stroke="#36415D" stroke-linecap="round"/>
<path d="M7.48144 7.19922H6.88591H6.40015" stroke="#36415D" stroke-linecap="round"/>
<path d="M15.2601 1.83199C15.5465 1.50948 15.3175 1 14.8862 1H10.1126C9.68134 1 9.45239 1.50948 9.73876 1.83199L11.6734 4.01078C11.7547 4.10228 11.7995 4.2204 11.7995 4.34277V6.01676C11.7995 6.20962 11.9105 6.38528 12.0846 6.4682L12.4843 6.65856C12.8162 6.81656 13.1993 6.57463 13.1993 6.20713V4.34277C13.1993 4.2204 13.2442 4.10228 13.3254 4.01078L15.2601 1.83199Z" fill="#FF843F" stroke="#FF843F" stroke-linecap="round"/>
</svg>
