<svg width="1366" height="936" viewBox="0 0 1366 936" fill="none" xmlns="http://www.w3.org/2000/svg">
<g opacity="0.5">
<path d="M63 -269V960" stroke="#E7E7E7"/>
<path d="M143 -269V960" stroke="#E7E7E7"/>
<path d="M223 -269V960" stroke="#E7E7E7"/>
<path d="M23 -269V960" stroke="#E7E7E7"/>
<path d="M103 -269V960" stroke="#E7E7E7"/>
<path d="M183 -269V960" stroke="#E7E7E7"/>
<path d="M263 -269V960" stroke="#E7E7E7"/>
<path d="M3 -269V960" stroke="#E7E7E7"/>
<path d="M83 -269V960" stroke="#E7E7E7"/>
<path d="M163 -269V960" stroke="#E7E7E7"/>
<path d="M243 -269V960" stroke="#E7E7E7"/>
<path d="M43 -269V960" stroke="#E7E7E7"/>
<path d="M123 -269V960" stroke="#E7E7E7"/>
<path d="M203 -269V960" stroke="#E7E7E7"/>
<path d="M283 -269V960" stroke="#E7E7E7"/>
<path d="M303 -269V960" stroke="#E7E7E7"/>
<path d="M383 -269V960" stroke="#E7E7E7"/>
<path d="M463 -269V960" stroke="#E7E7E7"/>
<path d="M543 -269V960" stroke="#E7E7E7"/>
<path d="M623 -269V960" stroke="#E7E7E7"/>
<path d="M703 -269V960" stroke="#E7E7E7"/>
<path d="M743 -269V960" stroke="#E7E7E7"/>
<path d="M943 -269V960" stroke="#E7E7E7"/>
<path d="M1143 -269V960" stroke="#E7E7E7"/>
<path d="M1343 -269V960" stroke="#E7E7E7"/>
<path d="M1023 -269V960" stroke="#E7E7E7"/>
<path d="M823 -269V960" stroke="#E7E7E7"/>
<path d="M1103 -269V960" stroke="#E7E7E7"/>
<path d="M1223 -269V960" stroke="#E7E7E7"/>
<path d="M903 -269V960" stroke="#E7E7E7"/>
<path d="M1303 -269V960" stroke="#E7E7E7"/>
<path d="M583 -269V960" stroke="#E7E7E7"/>
<path d="M663 -269V960" stroke="#E7E7E7"/>
<path d="M343 -269V960" stroke="#E7E7E7"/>
<path d="M423 -269V960" stroke="#E7E7E7"/>
<path d="M503 -269V960" stroke="#E7E7E7"/>
<path d="M983 -269V960" stroke="#E7E7E7"/>
<path d="M563 -269V960" stroke="#E7E7E7"/>
<path d="M1063 -269V960" stroke="#E7E7E7"/>
<path d="M643 -269V960" stroke="#E7E7E7"/>
<path d="M783 -269V960" stroke="#E7E7E7"/>
<path d="M1183 -269V960" stroke="#E7E7E7"/>
<path d="M863 -269V960" stroke="#E7E7E7"/>
<path d="M1263 -269V960" stroke="#E7E7E7"/>
<path d="M523 -269V960" stroke="#E7E7E7"/>
<path d="M603 -269V960" stroke="#E7E7E7"/>
<path d="M963 -269V960" stroke="#E7E7E7"/>
<path d="M683 -269V960" stroke="#E7E7E7"/>
<path d="M1043 -269V960" stroke="#E7E7E7"/>
<path d="M323 -269V960" stroke="#E7E7E7"/>
<path d="M403 -269V960" stroke="#E7E7E7"/>
<path d="M483 -269V960" stroke="#E7E7E7"/>
<path d="M923 -269V960" stroke="#E7E7E7"/>
<path d="M763 -269V960" stroke="#E7E7E7"/>
<path d="M1003 -269V960" stroke="#E7E7E7"/>
<path d="M1163 -269V960" stroke="#E7E7E7"/>
<path d="M1363 -269V960" stroke="#E7E7E7"/>
<path d="M1083 -269V960" stroke="#E7E7E7"/>
<path d="M843 -269V960" stroke="#E7E7E7"/>
<path d="M1243 -269V960" stroke="#E7E7E7"/>
<path d="M363 -269V960" stroke="#E7E7E7"/>
<path d="M443 -269V960" stroke="#E7E7E7"/>
<path d="M723 -269V960" stroke="#E7E7E7"/>
<path d="M1123 -269V960" stroke="#E7E7E7"/>
<path d="M1323 -269V960" stroke="#E7E7E7"/>
<path d="M803 -269V960" stroke="#E7E7E7"/>
<path d="M1203 -269V960" stroke="#E7E7E7"/>
<path d="M883 -269V960" stroke="#E7E7E7"/>
<path d="M1283 -269V960" stroke="#E7E7E7"/>
<path d="M-577 290L1532 290" stroke="#E7E7E7"/>
<path d="M-577 210L1532 210" stroke="#E7E7E7"/>
<path d="M-577 130L1532 130" stroke="#E7E7E7"/>
<path d="M-577 49.9998L1532 49.9998" stroke="#E7E7E7"/>
<path d="M-577 850L1532 850" stroke="#E7E7E7"/>
<path d="M-577 770L1532 770" stroke="#E7E7E7"/>
<path d="M-577 930L1532 930" stroke="#E7E7E7"/>
<path d="M-577 690L1532 690" stroke="#E7E7E7"/>
<path d="M-577 610L1532 610" stroke="#E7E7E7"/>
<path d="M-577 530L1532 530" stroke="#E7E7E7"/>
<path d="M-577 450L1532 450" stroke="#E7E7E7"/>
<path d="M-577 370L1532 370" stroke="#E7E7E7"/>
<path d="M-577 250L1532 250" stroke="#E7E7E7"/>
<path d="M-577 170L1532 170" stroke="#E7E7E7"/>
<path d="M-577 810L1532 810" stroke="#E7E7E7"/>
<path d="M-577 89.9998L1532 89.9998" stroke="#E7E7E7"/>
<path d="M-577 730L1532 730" stroke="#E7E7E7"/>
<path d="M-577 9.99976L1532 9.99976" stroke="#E7E7E7"/>
<path d="M-577 890L1532 890" stroke="#E7E7E7"/>
<path d="M-577 650L1532 650" stroke="#E7E7E7"/>
<path d="M-577 570L1532 570" stroke="#E7E7E7"/>
<path d="M-577 490L1532 490" stroke="#E7E7E7"/>
<path d="M-577 410L1532 410" stroke="#E7E7E7"/>
<path d="M-577 330L1532 330" stroke="#E7E7E7"/>
<path d="M-577 830L1532 830" stroke="#E7E7E7"/>
<path d="M-577 270L1532 270" stroke="#E7E7E7"/>
<path d="M-577 750L1532 750" stroke="#E7E7E7"/>
<path d="M-577 190L1532 190" stroke="#E7E7E7"/>
<path d="M-577 110L1532 110" stroke="#E7E7E7"/>
<path d="M-577 29.9998L1532 29.9998" stroke="#E7E7E7"/>
<path d="M-577 910L1532 910" stroke="#E7E7E7"/>
<path d="M-577 670L1532 670" stroke="#E7E7E7"/>
<path d="M-577 590L1532 590" stroke="#E7E7E7"/>
<path d="M-577 510L1532 510" stroke="#E7E7E7"/>
<path d="M-577 430L1532 430" stroke="#E7E7E7"/>
<path d="M-577 790L1532 790" stroke="#E7E7E7"/>
<path d="M-577 350L1532 350" stroke="#E7E7E7"/>
<path d="M-577 230L1532 230" stroke="#E7E7E7"/>
<path d="M-577 150L1532 150" stroke="#E7E7E7"/>
<path d="M-577 69.9998L1532 69.9998" stroke="#E7E7E7"/>
<path d="M-577 870L1366 870" stroke="#E7E7E7"/>
<path d="M-577 710L1532 710" stroke="#E7E7E7"/>
<path d="M-577 630L1532 630" stroke="#E7E7E7"/>
<path d="M-577 550L1532 550" stroke="#E7E7E7"/>
<path d="M-577 470L1532 470" stroke="#E7E7E7"/>
<path d="M-577 390L1532 390" stroke="#E7E7E7"/>
<path d="M-577 310L1532 310" stroke="#E7E7E7"/>
</g>
</svg>
