<svg width="2082" height="1282" viewBox="0 0 2082 1282" fill="none" xmlns="http://www.w3.org/2000/svg">
<path opacity="0.5" d="M1 2V1281" stroke="#E7E7E7"/>
<path opacity="0.5" d="M81 2V1281" stroke="#E7E7E7"/>
<path opacity="0.5" d="M161 2V1281" stroke="#E7E7E7"/>
<path opacity="0.5" d="M241 2V1281" stroke="#E7E7E7"/>
<path opacity="0.5" d="M321 2V1281" stroke="#E7E7E7"/>
<path opacity="0.5" d="M401 2V1281" stroke="#E7E7E7"/>
<path opacity="0.5" d="M481 2V1281" stroke="#E7E7E7"/>
<path opacity="0.5" d="M561 2V1281" stroke="#E7E7E7"/>
<path opacity="0.5" d="M641 2V1281" stroke="#E7E7E7"/>
<path opacity="0.5" d="M721 2V1281" stroke="#E7E7E7"/>
<path opacity="0.5" d="M801 2V1281" stroke="#E7E7E7"/>
<path opacity="0.5" d="M41 2V1281" stroke="#E7E7E7"/>
<path opacity="0.5" d="M121 2V1281" stroke="#E7E7E7"/>
<path opacity="0.5" d="M201 2V1281" stroke="#E7E7E7"/>
<path opacity="0.5" d="M281 2V1281" stroke="#E7E7E7"/>
<path opacity="0.5" d="M361 2V1281" stroke="#E7E7E7"/>
<path opacity="0.5" d="M441 2V1281" stroke="#E7E7E7"/>
<path opacity="0.5" d="M521 2V1281" stroke="#E7E7E7"/>
<path opacity="0.5" d="M601 2V1281" stroke="#E7E7E7"/>
<path opacity="0.5" d="M681 2V1281" stroke="#E7E7E7"/>
<path opacity="0.5" d="M761 2V1281" stroke="#E7E7E7"/>
<path opacity="0.5" d="M841 2V1281" stroke="#E7E7E7"/>
<path opacity="0.5" d="M21 2V1281" stroke="#E7E7E7"/>
<path opacity="0.5" d="M101 2V1281" stroke="#E7E7E7"/>
<path opacity="0.5" d="M181 2V1281" stroke="#E7E7E7"/>
<path opacity="0.5" d="M261 2V1281" stroke="#E7E7E7"/>
<path opacity="0.5" d="M341 2V1281" stroke="#E7E7E7"/>
<path opacity="0.5" d="M421 2V1281" stroke="#E7E7E7"/>
<path opacity="0.5" d="M501 2V1281" stroke="#E7E7E7"/>
<path opacity="0.5" d="M581 2V1281" stroke="#E7E7E7"/>
<path opacity="0.5" d="M661 2V1281" stroke="#E7E7E7"/>
<path opacity="0.5" d="M741 2V1281" stroke="#E7E7E7"/>
<path opacity="0.5" d="M821 2V1281" stroke="#E7E7E7"/>
<path opacity="0.5" d="M61 2V1281" stroke="#E7E7E7"/>
<path opacity="0.5" d="M141 2V1281" stroke="#E7E7E7"/>
<path opacity="0.5" d="M221 2V1281" stroke="#E7E7E7"/>
<path opacity="0.5" d="M301 2V1281" stroke="#E7E7E7"/>
<path opacity="0.5" d="M381 2V1281" stroke="#E7E7E7"/>
<path opacity="0.5" d="M461 2V1281" stroke="#E7E7E7"/>
<path opacity="0.5" d="M541 2V1281" stroke="#E7E7E7"/>
<path opacity="0.5" d="M621 2V1281" stroke="#E7E7E7"/>
<path opacity="0.5" d="M701 2V1281" stroke="#E7E7E7"/>
<path opacity="0.5" d="M781 2V1281" stroke="#E7E7E7"/>
<path opacity="0.5" d="M861 2V1281" stroke="#E7E7E7"/>
<path opacity="0.5" d="M881 2V1281" stroke="#E7E7E7"/>
<path opacity="0.5" d="M961 2V1281" stroke="#E7E7E7"/>
<path opacity="0.5" d="M1041 2V1281" stroke="#E7E7E7"/>
<path opacity="0.5" d="M1121 2V1281" stroke="#E7E7E7"/>
<path opacity="0.5" d="M1201 2V1281" stroke="#E7E7E7"/>
<path opacity="0.5" d="M1281 2V1281" stroke="#E7E7E7"/>
<path opacity="0.5" d="M1321 2V1281" stroke="#E7E7E7"/>
<path opacity="0.5" d="M1521 2V1281" stroke="#E7E7E7"/>
<path opacity="0.5" d="M1721 2V1281" stroke="#E7E7E7"/>
<path opacity="0.5" d="M1921 2V1281" stroke="#E7E7E7"/>
<path opacity="0.5" d="M1601 2V1281" stroke="#E7E7E7"/>
<path opacity="0.5" d="M1401 2V1281" stroke="#E7E7E7"/>
<path opacity="0.5" d="M1681 2V1281" stroke="#E7E7E7"/>
<path opacity="0.5" d="M1801 2V1281" stroke="#E7E7E7"/>
<path opacity="0.5" d="M2001 2V1281" stroke="#E7E7E7"/>
<path opacity="0.5" d="M1481 2V1281" stroke="#E7E7E7"/>
<path opacity="0.5" d="M1881 2V1281" stroke="#E7E7E7"/>
<path opacity="0.5" d="M2081 2V1281" stroke="#E7E7E7"/>
<path opacity="0.5" d="M1161 2V1281" stroke="#E7E7E7"/>
<path opacity="0.5" d="M1241 2V1281" stroke="#E7E7E7"/>
<path opacity="0.5" d="M921 2V1281" stroke="#E7E7E7"/>
<path opacity="0.5" d="M1001 2V1281" stroke="#E7E7E7"/>
<path opacity="0.5" d="M1081 2V1281" stroke="#E7E7E7"/>
<path opacity="0.5" d="M1561 2V1281" stroke="#E7E7E7"/>
<path opacity="0.5" d="M1141 2V1281" stroke="#E7E7E7"/>
<path opacity="0.5" d="M1641 2V1281" stroke="#E7E7E7"/>
<path opacity="0.5" d="M1221 2V1281" stroke="#E7E7E7"/>
<path opacity="0.5" d="M1361 2V1281" stroke="#E7E7E7"/>
<path opacity="0.5" d="M1761 2V1281" stroke="#E7E7E7"/>
<path opacity="0.5" d="M1961 2V1281" stroke="#E7E7E7"/>
<path opacity="0.5" d="M1441 2V1281" stroke="#E7E7E7"/>
<path opacity="0.5" d="M1841 2V1281" stroke="#E7E7E7"/>
<path opacity="0.5" d="M2041 2V1281" stroke="#E7E7E7"/>
<path opacity="0.5" d="M1101 2V1281" stroke="#E7E7E7"/>
<path opacity="0.5" d="M1181 2V1281" stroke="#E7E7E7"/>
<path opacity="0.5" d="M1541 2V1281" stroke="#E7E7E7"/>
<path opacity="0.5" d="M1261 2V1281" stroke="#E7E7E7"/>
<path opacity="0.5" d="M1621 2V1281" stroke="#E7E7E7"/>
<path opacity="0.5" d="M901 2V1281" stroke="#E7E7E7"/>
<path opacity="0.5" d="M981 2V1281" stroke="#E7E7E7"/>
<path opacity="0.5" d="M1061 2V1281" stroke="#E7E7E7"/>
<path opacity="0.5" d="M1501 2V1281" stroke="#E7E7E7"/>
<path opacity="0.5" d="M1341 2V1281" stroke="#E7E7E7"/>
<path opacity="0.5" d="M1581 2V1281" stroke="#E7E7E7"/>
<path opacity="0.5" d="M1741 2V1281" stroke="#E7E7E7"/>
<path opacity="0.5" d="M1941 2V1281" stroke="#E7E7E7"/>
<path opacity="0.5" d="M1661 2V1281" stroke="#E7E7E7"/>
<path opacity="0.5" d="M1421 2V1281" stroke="#E7E7E7"/>
<path opacity="0.5" d="M1821 2V1281" stroke="#E7E7E7"/>
<path opacity="0.5" d="M2021 2V1281" stroke="#E7E7E7"/>
<path opacity="0.5" d="M941 2V1281" stroke="#E7E7E7"/>
<path opacity="0.5" d="M1021 2V1281" stroke="#E7E7E7"/>
<path opacity="0.5" d="M1301 2V1281" stroke="#E7E7E7"/>
<path opacity="0.5" d="M1701 2V1281" stroke="#E7E7E7"/>
<path opacity="0.5" d="M1901 2V1281" stroke="#E7E7E7"/>
<path opacity="0.5" d="M1381 2V1281" stroke="#E7E7E7"/>
<path opacity="0.5" d="M1781 2V1281" stroke="#E7E7E7"/>
<path opacity="0.5" d="M1981 2V1281" stroke="#E7E7E7"/>
<path opacity="0.5" d="M1461 2V1281" stroke="#E7E7E7"/>
<path opacity="0.5" d="M1861 2V1281" stroke="#E7E7E7"/>
<path opacity="0.5" d="M2061 2V1281" stroke="#E7E7E7"/>
<path opacity="0.5" d="M1 561L2081 561" stroke="#E7E7E7"/>
<path opacity="0.5" d="M1 481L2081 481" stroke="#E7E7E7"/>
<path opacity="0.5" d="M1 401L2081 401" stroke="#E7E7E7"/>
<path opacity="0.5" d="M1 321L2081 321" stroke="#E7E7E7"/>
<path opacity="0.5" d="M1 1121L2081 1121" stroke="#E7E7E7"/>
<path opacity="0.5" d="M1 1281L2081 1281" stroke="#E7E7E7"/>
<path opacity="0.5" d="M1 1041L2081 1041" stroke="#E7E7E7"/>
<path opacity="0.5" d="M1 241L2081 241" stroke="#E7E7E7"/>
<path opacity="0.5" d="M1 1201L2081 1201" stroke="#E7E7E7"/>
<path opacity="0.5" d="M1 161L2081 161" stroke="#E7E7E7"/>
<path opacity="0.5" d="M1 961L2081 961" stroke="#E7E7E7"/>
<path opacity="0.5" d="M1 81L2081 81" stroke="#E7E7E7"/>
<path opacity="0.5" d="M1 881L2081 881" stroke="#E7E7E7"/>
<path opacity="0.5" d="M1 1L2081 1" stroke="#E7E7E7"/>
<path opacity="0.5" d="M1 801L2081 801" stroke="#E7E7E7"/>
<path opacity="0.5" d="M1 721L2081 721" stroke="#E7E7E7"/>
<path opacity="0.5" d="M1 641L2081 641" stroke="#E7E7E7"/>
<path opacity="0.5" d="M1 521L2081 521" stroke="#E7E7E7"/>
<path opacity="0.5" d="M1 441L2081 441" stroke="#E7E7E7"/>
<path opacity="0.5" d="M1 1081L2081 1081" stroke="#E7E7E7"/>
<path opacity="0.5" d="M1 361L2081 361" stroke="#E7E7E7"/>
<path opacity="0.5" d="M1 1001L2081 1001" stroke="#E7E7E7"/>
<path opacity="0.5" d="M1 281L2081 281" stroke="#E7E7E7"/>
<path opacity="0.5" d="M1 1241L2081 1241" stroke="#E7E7E7"/>
<path opacity="0.5" d="M1 201L2081 201" stroke="#E7E7E7"/>
<path opacity="0.5" d="M1 1161L2081 1161" stroke="#E7E7E7"/>
<path opacity="0.5" d="M1 121L2081 121" stroke="#E7E7E7"/>
<path opacity="0.5" d="M1 921L2081 921" stroke="#E7E7E7"/>
<path opacity="0.5" d="M1 41L2081 41" stroke="#E7E7E7"/>
<path opacity="0.5" d="M1 841L2081 841" stroke="#E7E7E7"/>
<path opacity="0.5" d="M1 761L2081 761" stroke="#E7E7E7"/>
<path opacity="0.5" d="M1 681L2081 681" stroke="#E7E7E7"/>
<path opacity="0.5" d="M1 601L2081 601" stroke="#E7E7E7"/>
<path opacity="0.5" d="M1 1101L2081 1101" stroke="#E7E7E7"/>
<path opacity="0.5" d="M1 541L2081 541" stroke="#E7E7E7"/>
<path opacity="0.5" d="M1 1021L2081 1021" stroke="#E7E7E7"/>
<path opacity="0.5" d="M1 461L2081 461" stroke="#E7E7E7"/>
<path opacity="0.5" d="M1 381L2081 381" stroke="#E7E7E7"/>
<path opacity="0.5" d="M1 301L2081 301" stroke="#E7E7E7"/>
<path opacity="0.5" d="M1 1261L2081 1261" stroke="#E7E7E7"/>
<path opacity="0.5" d="M1 221L2081 221" stroke="#E7E7E7"/>
<path opacity="0.5" d="M1 1181L2081 1181" stroke="#E7E7E7"/>
<path opacity="0.5" d="M1 141L2081 141" stroke="#E7E7E7"/>
<path opacity="0.5" d="M1 941L2081 941" stroke="#E7E7E7"/>
<path opacity="0.5" d="M1 61L2081 61" stroke="#E7E7E7"/>
<path opacity="0.5" d="M1 861L2081 861" stroke="#E7E7E7"/>
<path opacity="0.5" d="M1 781L2081 781" stroke="#E7E7E7"/>
<path opacity="0.5" d="M1 701L2081 701" stroke="#E7E7E7"/>
<path opacity="0.5" d="M1 1061L2081 1061" stroke="#E7E7E7"/>
<path opacity="0.5" d="M1 621L2081 621" stroke="#E7E7E7"/>
<path opacity="0.5" d="M1 501L2081 501" stroke="#E7E7E7"/>
<path opacity="0.5" d="M1 421L2081 421" stroke="#E7E7E7"/>
<path opacity="0.5" d="M1 341L2081 341" stroke="#E7E7E7"/>
<path opacity="0.5" d="M1 1141L2081 1141" stroke="#E7E7E7"/>
<path opacity="0.5" d="M1 261L2081 261" stroke="#E7E7E7"/>
<path opacity="0.5" d="M1 1221L2081 1221" stroke="#E7E7E7"/>
<path opacity="0.5" d="M1 181L2081 181" stroke="#E7E7E7"/>
<path opacity="0.5" d="M1 981L2081 981" stroke="#E7E7E7"/>
<path opacity="0.5" d="M1 101L2081 101" stroke="#E7E7E7"/>
<path opacity="0.5" d="M1 901L2081 901" stroke="#E7E7E7"/>
<path opacity="0.5" d="M1 21L2081 21" stroke="#E7E7E7"/>
<path opacity="0.5" d="M1 821L2081 821" stroke="#E7E7E7"/>
<path opacity="0.5" d="M1 741L2081 741" stroke="#E7E7E7"/>
<path opacity="0.5" d="M1 661L2081 661" stroke="#E7E7E7"/>
<path opacity="0.5" d="M1 581L2081 581" stroke="#E7E7E7"/>
</svg>
