<svg width="11" height="15" viewBox="0 0 11 15" fill="none" xmlns="http://www.w3.org/2000/svg">
<path fill-rule="evenodd" clip-rule="evenodd" d="M0 1.50003C0 0.671585 0.671586 0 1.50003 0H1.58588C2.41432 0 3.0859 0.671585 3.0859 1.50003C3.0859 2.32847 2.41432 3.00006 1.58587 3.00006H1.50003C0.671585 3.00006 0 2.32847 0 1.50003Z" fill="#848484"/>
<path fill-rule="evenodd" clip-rule="evenodd" d="M7.71509 1.50003C7.71509 0.671585 8.38667 0 9.21512 0H9.30097C10.1294 0 10.801 0.671585 10.801 1.50003C10.801 2.32847 10.1294 3.00006 9.30097 3.00006H9.21512C8.38667 3.00006 7.71509 2.32847 7.71509 1.50003Z" fill="#848484"/>
<path fill-rule="evenodd" clip-rule="evenodd" d="M0 7.50076C0 6.67232 0.671586 6.00073 1.50003 6.00073H1.58588C2.41432 6.00073 3.0859 6.67232 3.0859 7.50076C3.0859 8.3292 2.41432 9.00079 1.58587 9.00079H1.50003C0.671585 9.00079 0 8.3292 0 7.50076Z" fill="#848484"/>
<path fill-rule="evenodd" clip-rule="evenodd" d="M7.71509 7.50076C7.71509 6.67232 8.38667 6.00073 9.21512 6.00073H9.30097C10.1294 6.00073 10.801 6.67232 10.801 7.50076C10.801 8.3292 10.1294 9.00079 9.30097 9.00079H9.21512C8.38667 9.00079 7.71509 8.3292 7.71509 7.50076Z" fill="#848484"/>
<path fill-rule="evenodd" clip-rule="evenodd" d="M0 13.4999C0 12.6715 0.671586 11.9999 1.50003 11.9999H1.58588C2.41432 11.9999 3.0859 12.6715 3.0859 13.4999C3.0859 14.3284 2.41432 14.9999 1.58587 14.9999H1.50003C0.671585 14.9999 0 14.3284 0 13.4999Z" fill="#848484"/>
<path fill-rule="evenodd" clip-rule="evenodd" d="M7.71509 13.4999C7.71509 12.6715 8.38667 11.9999 9.21512 11.9999H9.30097C10.1294 11.9999 10.801 12.6715 10.801 13.4999C10.801 14.3284 10.1294 14.9999 9.30097 14.9999H9.21512C8.38667 14.9999 7.71509 14.3284 7.71509 13.4999Z" fill="#848484"/>
</svg>
