<svg width="24" height="24" viewBox="0 0 24 24" fill="none" xmlns="http://www.w3.org/2000/svg">
<g id="Icons/ Help">
<g id="Group 1000007057">
<path id="Vector" d="M12.0098 21.5098C17.2565 21.5098 21.5098 17.2565 21.5098 12.0098C21.5098 6.76306 17.2565 2.50977 12.0098 2.50977C6.76306 2.50977 2.50977 6.76306 2.50977 12.0098C2.50977 17.2565 6.76306 21.5098 12.0098 21.5098Z" stroke="#36415D"/>
<g id="Group 1000008141">
<path id="Vector_2" d="M9.0061 9.01229C9.24146 8.34325 9.706 7.77908 10.3175 7.41973C10.9289 7.06037 11.6478 6.92901 12.3468 7.04891C13.0459 7.16881 13.6799 7.53224 14.1367 8.07482C14.5934 8.6174 14.8434 9.30413 14.8423 10.0134C14.8423 12.0155 11.8391 13.0166 11.8391 13.0166V15.3351" stroke="#36415D" stroke-linecap="round"/>
<path id="Vector_3" d="M11.9202 17.7693H11.9302" stroke="#36415D" stroke-width="1.5" stroke-linecap="round" stroke-linejoin="round"/>
</g>
</g>
</g>
</svg>
