<svg width="58" height="59" viewBox="0 0 58 59" fill="none" xmlns="http://www.w3.org/2000/svg">
<ellipse cx="29" cy="27" rx="27" ry="27" transform="rotate(-90 29 27)" fill="#ECECEC"/>
<g filter="url(#filter0_d_558_49107)">
<circle cx="29" cy="27" r="21" transform="rotate(-90 29 27)" fill="#F1742E"/>
<circle cx="29" cy="27" r="20.5" transform="rotate(-90 29 27)" stroke="white"/>
</g>
<path d="M25.04 34.5147C25.04 32.5707 23.464 30.9947 21.52 30.9947C19.576 30.9947 18 32.5707 18 34.5147C18 36.4587 19.576 38.0347 21.52 38.0347H40V21.3147H25.48" stroke="white"/>
<path d="M18 34.9546V20.4346C18 18.4905 19.576 16.9146 21.52 16.9146C23.464 16.9146 25.04 18.4905 25.04 20.4346V34.5146" stroke="white"/>
<defs>
<filter id="filter0_d_558_49107" x="0" y="1" width="58" height="58" filterUnits="userSpaceOnUse" color-interpolation-filters="sRGB">
<feFlood flood-opacity="0" result="BackgroundImageFix"/>
<feColorMatrix in="SourceAlpha" type="matrix" values="0 0 0 0 0 0 0 0 0 0 0 0 0 0 0 0 0 0 127 0" result="hardAlpha"/>
<feOffset dy="3"/>
<feGaussianBlur stdDeviation="4"/>
<feComposite in2="hardAlpha" operator="out"/>
<feColorMatrix type="matrix" values="0 0 0 0 0 0 0 0 0 0 0 0 0 0 0 0 0 0 0.2 0"/>
<feBlend mode="normal" in2="BackgroundImageFix" result="effect1_dropShadow_558_49107"/>
<feBlend mode="normal" in="SourceGraphic" in2="effect1_dropShadow_558_49107" result="shape"/>
</filter>
</defs>
</svg>
