<svg width="17" height="14" viewBox="0 0 17 14" fill="none" xmlns="http://www.w3.org/2000/svg">
<path d="M1.05957 3.78406L16.4845 9.60637" stroke="#36415D" stroke-linecap="round" stroke-linejoin="round"/>
<path d="M16.4833 7.00375C16.4833 4.59632 15.3804 2.44647 13.6524 1.03186M3.88655 1.03186C3.67535 1.19432 3.23435 1.61615 2.86952 2.03927M16.0869 9.49706C15.9418 9.89061 15.5528 10.8081 15.157 11.3296C14.7371 11.9485 14.2296 12.5031 13.6524 12.9756M1.59493 4.16463C1.24692 5.04334 1.05566 6.00121 1.05566 7.00375C1.05566 9.41118 2.15851 11.561 3.88655 12.9756" stroke="#36415D" stroke-linecap="round"/>
<path d="M11.0007 7.58855C10.7154 8.54983 9.82524 9.25099 8.77137 9.25099C7.48726 9.25099 6.44629 8.21001 6.44629 6.92591C6.44629 6.59187 6.51673 6.27429 6.64357 5.98721M7.83898 4.79533C8.1244 4.67024 8.43978 4.60083 8.77137 4.60083C9.65183 4.60083 10.418 5.09022 10.8127 5.81182" stroke="#36415D" stroke-linecap="round"/>
</svg>
