<svg width="24" height="25" viewBox="0 0 24 25" fill="none" xmlns="http://www.w3.org/2000/svg">
<path d="M17.1584 4.5V7.6999C17.1303 7.95296 16.9202 8.55381 16.3049 8.93276C15.5357 9.40644 12.8706 10.7128 12.8706 12.2734C12.8706 13.8478 15.4514 15.4332 16.3049 16.0335C17.1584 16.6337 17.1584 17.128 17.1584 17.4635C17.1584 17.7318 17.1584 19.5996 17.1584 20.5M17.1584 4.5H6.81956M17.1584 4.5H19M17.1584 20.5H6.81956M17.1584 20.5H19M6.81956 20.5V17.4635C6.87038 17.1457 7.12756 16.4148 7.74971 16.0335C8.52739 15.5568 11.126 14.0855 11.126 12.2734C11.126 10.5702 8.49017 9.3527 7.65487 8.93276C6.81956 8.51281 6.81956 7.84032 6.81956 7.6999C6.81956 7.58757 6.81956 5.51983 6.81956 4.5M6.81956 20.5H5M6.81956 4.5H5" stroke="#F1742E" stroke-linecap="round"/>
</svg>
