<svg width="18" height="19" viewBox="0 0 18 19" fill="none" xmlns="http://www.w3.org/2000/svg">
<path d="M2 11.4176V14.5C2 15.6046 2.89543 16.5 4 16.5H14C15.1046 16.5 16 15.6046 16 14.5V10.7501M2 11.4176V4.5C2 3.39543 2.89543 2.5 4 2.5H14C15.1046 2.5 16 3.39543 16 4.5V10.7501M2 11.4176L5.14802 8.26817C5.92902 7.48682 7.19559 7.48668 7.97676 8.26786L9.77246 10.0636M12.4424 12.7335L9.77246 10.0636M9.77246 10.0636L11.4417 8.97275C12.1468 8.51202 13.0649 8.54238 13.738 9.04867L16 10.7501" stroke="#F1742E" stroke-linecap="round"/>
</svg>
