<svg width="20" height="20" viewBox="0 0 20 20" fill="none" xmlns="http://www.w3.org/2000/svg">
<path d="M10.0004 19.49C15.2415 19.49 19.4902 15.2412 19.4902 10.0001C19.4902 4.75901 15.2415 0.510254 10.0004 0.510254C4.75926 0.510254 0.510498 4.75901 0.510498 10.0001C0.510498 15.2412 4.75926 19.49 10.0004 19.49Z" stroke="#36415D"/>
<path d="M10.6289 8.65894V15.1921H9.33594V8.65894H10.6289ZM9.99707 4.80835C10.2158 4.80835 10.4027 4.87215 10.5576 4.99976C10.7171 5.12736 10.7969 5.33472 10.7969 5.62183C10.7969 5.90894 10.7171 6.11857 10.5576 6.25073C10.4027 6.37834 10.2158 6.44214 9.99707 6.44214C9.77376 6.44214 9.58464 6.37834 9.42969 6.25073C9.2793 6.11857 9.2041 5.90894 9.2041 5.62183C9.2041 5.33472 9.2793 5.12736 9.42969 4.99976C9.58464 4.87215 9.77376 4.80835 9.99707 4.80835Z" fill="#36415D"/>
</svg>
