<svg width="18" height="18" viewBox="0 0 18 18" fill="none" xmlns="http://www.w3.org/2000/svg">
<path d="M9 5.5625V9.71007" stroke="#36415D" stroke-linecap="round"/>
<circle cx="8.99959" cy="12.107" r="0.331622" stroke="#36415D" stroke-linecap="round"/>
<path d="M11.2757 3.43326C10.5857 3.1563 9.83223 3.00391 9.04321 3.00391C5.73153 3.00391 3.04688 5.68856 3.04688 9.00024C3.04688 9.74538 3.18279 10.4588 3.43117 11.117M14.5329 6.58415C14.8587 7.32328 15.0396 8.14064 15.0396 9.00024C15.0396 12.3119 12.3549 14.9966 9.04321 14.9966C8.20133 14.9966 7.39997 14.8231 6.67293 14.5099" stroke="#36415D" stroke-linecap="round"/>
<path d="M13.3089 7.87468L14.266 5.84427L16.2964 6.80137" stroke="#36415D" stroke-linecap="round"/>
<path d="M4.69107 9.92708L3.73398 11.9575L1.70358 11.0004" stroke="#36415D" stroke-linecap="round"/>
</svg>