<svg width="18" height="18" viewBox="0 0 18 18" fill="none" xmlns="http://www.w3.org/2000/svg">
<path d="M10.0045 14.6952H2.79212C2.5678 14.6927 2.34804 14.6316 2.15469 14.5178C1.96135 14.404 1.80116 14.2416 1.69007 14.0467C1.57898 13.8518 1.52086 13.6313 1.52149 13.4069C1.52212 13.1826 1.58147 12.9623 1.69365 12.7681L7.13459 3.68485C7.24911 3.49606 7.41035 3.33997 7.60276 3.23164C7.79517 3.12332 8.01225 3.06641 8.23306 3.06641C8.45386 3.06641 8.67095 3.12332 8.86335 3.23164C9.05576 3.33997 9.217 3.49606 9.33152 3.68485L11.7317 7.6917" stroke="#36415D" stroke-linecap="round"/>
<path d="M8.23438 6.98633V9.55584" stroke="#36415D" stroke-linecap="round" stroke-linejoin="round"/>
<path d="M8.23438 12.125H8.24256" stroke="#36415D" stroke-width="2" stroke-linecap="round" stroke-linejoin="round"/>
<path d="M13.8652 9.70605V14.9345" stroke="#36415D" stroke-linecap="round"/>
<path d="M11.25 12.3203H16.4785" stroke="#36415D" stroke-linecap="round"/>
</svg>