<svg width="18" height="18" viewBox="0 0 18 18" fill="none" xmlns="http://www.w3.org/2000/svg">
<path d="M5.25 16.2481C3.00824 15.7176 1.5 14.726 1.5 13.5904C1.5 12.7848 2.25883 12.0518 3.5 11.5044M5.25 16.2481L4 14.5L3 17L5.25 16.2481ZM11.3864 16.5C14.3586 16.0922 16.5 14.9436 16.5 13.5904C16.5 12.8995 15.9419 12.262 15 11.7492" stroke="#36415D" stroke-linecap="round" stroke-linejoin="round"/>
<path d="M9 13V6.34247M9 13L14.5 10.1233V3.87671M9 13L3.5 10.1233V3.87671M9 6.34247L14.5 3.87671M9 6.34247L3.5 3.87671M14.5 3.87671L9 1L3.5 3.87671" stroke="#36415D" stroke-linecap="round" stroke-linejoin="round"/>
</svg>
