<svg width="227" height="201" viewBox="0 0 227 201" fill="none" xmlns="http://www.w3.org/2000/svg">
<circle cx="106" cy="115" r="86" fill="#FFF5EF"/>
<path d="M212.954 9.48457C210.477 11.9187 196.078 24.9893 189.188 31.2204M222.602 40.2175L196.955 44.9146M182.777 0.567073L175.407 21.3412" stroke="#787878" stroke-linecap="round"/>
<path d="M9.63892 170.041C11.6204 168.343 23.082 159.287 28.5649 154.97M4.12983 146.429L23.5232 144.264" stroke="#787878" stroke-linecap="round"/>
<path d="M77.6624 49.9356C79.4826 49.29 82.0863 48.6058 84.5266 48.6003C85.4992 48.5981 86.3394 49.2113 86.7883 50.0741L141.388 155.012L159.128 151.695C160.756 151.391 162.324 152.464 162.628 154.093L164.309 163.082C164.564 164.448 163.861 165.8 162.575 166.327C155.899 169.065 134.348 177.336 105.437 182.742C76.5504 188.142 53.6909 188.181 46.5287 188.027C45.1425 187.997 44.0023 186.992 43.7475 185.629L42.0657 176.633C41.7612 175.005 42.8347 173.438 44.4633 173.133L62.916 169.683L75.8984 52.2551C76.0143 51.2072 76.6687 50.288 77.6624 49.9356Z" fill="white"/>
<path d="M141.388 155.012L86.7883 50.0741C86.3394 49.2113 85.4992 48.5981 84.5266 48.6003C82.0863 48.6058 79.4826 49.29 77.6624 49.9356C76.6687 50.288 76.0143 51.2072 75.8984 52.2551L62.916 169.683M141.388 155.012L159.128 151.695C160.756 151.391 162.324 152.464 162.628 154.093L164.309 163.082C164.564 164.448 163.861 165.8 162.575 166.327C155.899 169.065 134.348 177.336 105.437 182.742C76.5504 188.142 53.6909 188.181 46.5287 188.027C45.1426 187.997 44.0023 186.992 43.7475 185.629L42.0657 176.633C41.7612 175.005 42.8347 173.438 44.4633 173.133L62.916 169.683M141.388 155.012C105.717 166.406 74.2102 169.54 62.916 169.683" stroke="#FF843F"/>
<path d="M71.7714 124.546C79.9745 124.607 95.4663 123.193 116.673 115.929C117.857 115.524 119.16 116.034 119.739 117.134L131.627 139.763C132.25 140.949 131.829 142.338 130.676 142.85C125.273 145.248 115.252 148.151 103.844 150.431C92.4428 152.71 79.701 154.356 68.8652 154.258C67.444 154.245 66.3585 152.995 66.5101 151.556L69.1119 126.86C69.2516 125.534 70.41 124.536 71.7714 124.546Z" fill="#FF843F" stroke="url(#paint0_linear_2014_27768)"/>
<path d="M76.9239 79.2501C81.4009 79.096 88.5313 78.2081 95.5814 75.7159C96.8305 75.2744 98.2162 75.7864 98.8115 76.9333L105.294 89.4223C105.95 90.686 105.423 92.2227 104.139 92.7646C97.7802 95.4484 87.6174 98.6584 75.0977 98.2017C73.724 98.1516 72.6925 96.9276 72.8342 95.5295L74.2421 81.6462C74.3766 80.3201 75.544 79.2976 76.9239 79.2501Z" fill="#FF843F" stroke="url(#paint1_linear_2014_27768)"/>
<path d="M141.894 36.1532C141.983 29.6579 147.68 24.671 154.13 25.4413C160.58 26.2117 164.942 32.3998 163.5 38.7336L151.95 89.4477C151.382 91.9423 149.022 93.6056 146.482 93.3022L145.582 93.1947C143.042 92.8913 141.14 90.7192 141.175 88.161L141.894 36.1532Z" fill="white" stroke="#FF843F"/>
<circle cx="143.991" cy="110.334" r="7.77821" transform="rotate(6.81053 143.991 110.334)" fill="white" stroke="#FF843F"/>
<defs>
<linearGradient id="paint0_linear_2014_27768" x1="94.0904" y1="119.248" x2="100.148" y2="151.649" gradientUnits="userSpaceOnUse">
<stop stop-color="#F9F6F6"/>
<stop offset="1" stop-color="#EBEBEB"/>
</linearGradient>
<linearGradient id="paint1_linear_2014_27768" x1="86.0938" y1="76.4819" x2="90.0346" y2="97.5599" gradientUnits="userSpaceOnUse">
<stop stop-color="#F9F6F6"/>
<stop offset="1" stop-color="#EBEBEB"/>
</linearGradient>
</defs>
</svg>
