<svg width="248" height="51" viewBox="0 0 248 51" fill="none" xmlns="http://www.w3.org/2000/svg">
<path d="M67.9018 11.5474C69.0531 11.5474 70.1658 11.6259 71.1422 11.7237V14.5937C70.4399 14.4573 69.2487 14.2811 67.5892 14.2811C61.6358 14.2811 59.0206 17.2874 59.0206 23.2601V32.6288C56.5995 30.716 55.429 27.6518 55.429 23.3179C55.429 15.296 59.5273 11.5474 67.9018 11.5474ZM59.9763 28.3734C61.2447 30.9501 63.8612 32.1799 68.1938 32.1799C71.5513 32.1799 74.6154 31.2035 75.3962 30.9694C75.5326 30.9308 75.6496 30.9101 75.7281 30.9101C75.9044 30.9101 75.9815 31.0079 76.0215 31.2806C76.0807 31.651 76.1 32.1785 76.1 32.6867C76.1 32.9208 76.1 33.1742 76.0807 33.3697C76.0421 33.7595 75.9829 33.7994 75.5932 33.9357C74.9487 34.1506 72.0608 35.0678 68.0974 35.0678C64.682 35.0678 61.9883 34.4825 59.9777 33.2912V28.3721L59.9763 28.3734ZM72.098 11.86C73.3278 12.0363 74.3235 12.2704 75.0065 12.4646C75.5133 12.6202 75.6703 12.8543 75.6703 13.4011V18.5736C75.6703 19.0226 75.6317 19.1204 75.2214 19.1782C74.8316 19.2374 74.3427 19.2567 73.8745 19.2567C73.4063 19.2567 72.938 19.2374 72.5469 19.1782C72.1365 19.119 72.098 19.0226 72.098 18.5736V11.8586V11.86Z" fill="#F1742E"/>
<path d="M82.4227 18.5557V26.0901C82.4227 29.9943 83.9059 32.531 88.1805 32.531C90.5809 32.531 92.104 31.7309 92.9827 30.3249V34.1506C91.6744 34.7551 90.0741 35.0678 88.1805 35.0678C82.0715 35.0678 79.0459 31.8273 79.0459 26.0887C79.0459 22.5949 80.1779 20.0375 82.4227 18.5544V18.5557ZM83.3798 18.0283C84.6881 17.4237 86.2883 17.1111 88.1819 17.1111C94.291 17.1111 97.3166 20.3515 97.3166 26.0901C97.3166 29.5839 96.1845 32.1413 93.9398 33.6245V26.0901C93.9398 22.1859 92.4566 19.6492 88.1819 19.6492C85.7815 19.6492 84.2584 20.4493 83.3798 21.8554V18.0297V18.0283Z" fill="#F1742E"/>
<path d="M105.962 34.269C105.962 34.6202 105.903 34.7372 105.552 34.7965C105.142 34.8557 104.733 34.875 104.284 34.875C103.835 34.875 103.424 34.8557 103.015 34.7965C102.664 34.7372 102.605 34.6202 102.605 34.269V20.43C102.605 20.1959 102.488 20.0789 102.234 20.0789H100.498C100.204 20.0789 100.087 20.0004 100.049 19.7277C100.01 19.455 99.991 19.0832 99.991 18.732C99.991 18.3808 100.01 18.0104 100.049 17.7363C100.087 17.4636 100.204 17.3852 100.498 17.3852H105.221C105.728 17.3852 105.964 17.5215 105.964 18.0682V34.269H105.962ZM106.919 18.5943C107.758 17.9305 109.262 17.1111 111.819 17.1111C116.777 17.1111 118.847 19.1796 118.847 23.8261V31.7516C118.847 31.9857 118.964 32.1028 119.217 32.1028H120.584C120.877 32.1028 120.994 32.1813 121.032 32.4539C121.071 32.7266 121.092 33.0984 121.092 33.4496C121.092 33.8008 121.072 34.1712 121.032 34.4453C120.994 34.718 120.877 34.7965 120.584 34.7965H118.886C116.602 34.7965 115.489 34.4453 115.489 31.8686V24.7639C115.489 21.2508 114.494 19.7662 111.078 19.7662C109.087 19.7662 107.74 20.3323 106.921 21.445V18.5957L106.919 18.5943Z" fill="#F1742E"/>
<path d="M123.861 31.7309C123.959 31.399 124.095 31.3605 124.446 31.4582C125.383 31.7116 127.843 32.3947 130.712 32.4925V35.0691C127.882 35.0099 125.13 34.5031 124.174 34.1905C123.823 34.0735 123.763 33.995 123.725 33.6438C123.666 33.1163 123.686 32.3162 123.861 31.7309ZM131.181 17.1304V19.5707C129.112 19.6285 127.198 20.0789 127.198 21.854C127.198 23.6292 128.779 23.7669 132.019 24.2943C136.607 25.0366 139.554 25.7775 139.554 29.7602C139.554 33.9771 135.513 34.992 131.668 35.0691V32.4925C133.972 32.4539 136.138 32.0821 136.138 30.0136C136.138 28.4712 135.319 27.9644 131.63 27.3984C127.219 26.7346 123.842 26.0708 123.842 22.1281C123.842 18.1853 127.61 17.2282 131.181 17.1304ZM132.136 17.1111C135.064 17.1497 137.562 17.7942 138.071 17.9897C138.383 18.1068 138.46 18.2046 138.481 18.4979C138.5 18.6342 138.5 18.7912 138.5 18.9468C138.5 19.4151 138.462 19.9232 138.364 20.2937C138.306 20.5085 138.228 20.587 138.071 20.587C138.013 20.587 137.934 20.5677 137.836 20.5485C137.388 20.4314 134.635 19.6698 132.136 19.5721V17.1125V17.1111Z" fill="#F1742E"/>
<path d="M147.42 17.3838H152.71C153.003 17.3838 153.12 17.4623 153.159 17.735C153.197 18.0076 153.218 18.3795 153.218 18.7306C153.218 19.0818 153.199 19.4523 153.159 19.7263C153.12 19.999 153.003 20.0775 152.71 20.0775H147.42C147.167 20.0775 147.05 20.2138 147.05 20.4287V28.6461C147.05 31.691 148.299 32.2763 150.563 32.2763C151.714 32.2763 152.671 32.0807 153.08 32.0036C153.138 31.9843 153.178 31.9843 153.217 31.9843C153.431 31.9843 153.51 32.1207 153.548 32.3548C153.608 32.6867 153.646 33.1549 153.646 33.6039C153.646 33.7595 153.646 33.9357 153.627 34.0914C153.588 34.404 153.51 34.4811 153.237 34.5596C152.671 34.7152 151.735 34.9108 149.86 34.9108C146.035 34.9108 143.692 33.232 143.692 29.0152V12.9507C143.692 12.5996 143.751 12.4825 144.103 12.4233C144.513 12.3641 144.922 12.3448 145.371 12.3448C145.82 12.3448 146.23 12.3641 146.639 12.4233C146.99 12.4825 147.05 12.5996 147.05 12.9507V17.0299C147.05 17.264 147.167 17.381 147.42 17.381V17.3838Z" fill="#F1742E"/>
<path d="M167.134 19.9604C165.045 19.9604 163.523 20.6242 162.664 22.1074C162.136 23.0246 161.864 24.2737 161.864 26.5776V34.2676C161.864 34.6188 161.804 34.7359 161.453 34.7951C161.043 34.8543 160.634 34.8736 160.185 34.8736C159.736 34.8736 159.326 34.8543 158.916 34.7951C158.565 34.7359 158.506 34.6188 158.506 34.2676V20.4287C158.506 20.1945 158.389 20.0775 158.136 20.0775H156.399C156.106 20.0775 155.989 19.999 155.95 19.7263C155.912 19.4536 155.892 19.0818 155.892 18.7306C155.892 18.3795 155.912 18.009 155.95 17.7349C155.989 17.4623 156.106 17.3838 156.399 17.3838H160.537C160.927 17.3838 161.123 17.5008 161.182 17.852L161.377 19.1989C161.397 19.3751 161.495 19.3944 161.612 19.3944H161.826C161.924 19.3944 161.982 19.3751 162.12 19.2388C163.35 17.8919 165.028 17.1111 167.195 17.1111C167.799 17.1111 168.152 17.1304 168.503 17.1703C168.835 17.2089 168.893 17.3067 168.933 17.6C168.971 17.8534 168.99 18.2046 168.99 18.5571C168.99 18.9868 168.952 19.4357 168.893 19.7277C168.833 19.9618 168.756 20.0596 168.405 20.021C167.956 19.9825 167.526 19.9618 167.137 19.9618L167.134 19.9604Z" fill="#F1742E"/>
<path d="M171.819 27.5155V17.9112C171.819 17.5601 171.878 17.443 172.229 17.3838C172.64 17.3246 173.049 17.3053 173.498 17.3053C173.947 17.3053 174.357 17.3246 174.766 17.3838C175.117 17.443 175.177 17.5601 175.177 17.9112V27.3778C175.177 30.8909 176.074 32.3754 179.51 32.3754C181.423 32.3754 182.809 31.8094 183.551 30.716V33.6245C182.829 34.269 181.404 35.0691 178.847 35.0691C173.889 35.0691 171.819 32.9414 171.819 27.5155ZM187.864 31.7516C187.864 31.9857 187.981 32.1028 188.235 32.1028H189.601C189.894 32.1028 190.011 32.1813 190.05 32.4539C190.088 32.7266 190.108 33.0984 190.108 33.4496C190.108 33.8008 190.088 34.1712 190.05 34.4453C190.011 34.718 189.894 34.7965 189.601 34.7965H185.248C184.739 34.7965 184.505 34.6601 184.505 34.1134V17.9126C184.505 17.5614 184.563 17.4444 184.916 17.3852C185.326 17.3259 185.735 17.3067 186.184 17.3067C186.633 17.3067 187.043 17.3259 187.452 17.3852C187.804 17.4444 187.863 17.5614 187.863 17.9126V31.7516H187.864Z" fill="#F1742E"/>
<path d="M196.08 18.6342V26.0901C196.08 30.4033 198.208 32.4539 202.229 32.4539C204.767 32.4539 207.108 31.6731 207.831 31.4197C207.91 31.4004 207.987 31.3811 208.046 31.3811C208.223 31.3811 208.34 31.4789 208.378 31.713C208.457 32.1427 208.515 32.6894 208.515 33.1769C208.515 33.7237 208.515 33.8407 208.066 34.0363C207.363 34.3489 205.021 35.0705 202.229 35.0705C196.374 35.0705 192.703 32.3768 192.703 26.0915C192.703 22.4613 193.933 20.0403 196.08 18.6356V18.6342ZM197.037 18.1068C198.463 17.4237 200.219 17.1111 202.229 17.1111C205.021 17.1111 207.363 17.8134 208.066 18.1453C208.515 18.3602 208.515 18.458 208.515 19.0047C208.515 19.4922 208.457 20.0389 208.378 20.4686C208.34 20.7027 208.223 20.8005 208.046 20.8005C207.988 20.8005 207.91 20.7812 207.831 20.7619C207.108 20.5085 204.767 19.7277 202.229 19.7277C199.691 19.7277 198.033 20.4892 197.037 22.0702V18.1082V18.1068Z" fill="#F1742E"/>
<path d="M216.145 17.3838H221.435C221.728 17.3838 221.845 17.4623 221.884 17.735C221.923 18.0076 221.943 18.3795 221.943 18.7306C221.943 19.0818 221.924 19.4523 221.884 19.7263C221.845 19.999 221.728 20.0775 221.435 20.0775H216.145C215.892 20.0775 215.775 20.2138 215.775 20.4287V28.6461C215.775 31.691 217.024 32.2763 219.288 32.2763C220.439 32.2763 221.396 32.0807 221.805 32.0036C221.863 31.9843 221.903 31.9843 221.942 31.9843C222.157 31.9843 222.235 32.1207 222.274 32.3548C222.333 32.6867 222.371 33.1549 222.371 33.6039C222.371 33.7595 222.371 33.9357 222.352 34.0914C222.314 34.404 222.235 34.4811 221.962 34.5596C221.396 34.7152 220.46 34.9108 218.586 34.9108C214.76 34.9108 212.417 33.232 212.417 29.0152V12.9507C212.417 12.5996 212.477 12.4825 212.828 12.4233C213.238 12.3641 213.647 12.3448 214.096 12.3448C214.545 12.3448 214.955 12.3641 215.365 12.4233C215.716 12.4825 215.775 12.5996 215.775 12.9507V17.0299C215.775 17.264 215.892 17.381 216.145 17.381V17.3838Z" fill="#F1742E"/>
<path d="M226.842 12.6023C226.842 12.0556 227.114 11.86 227.623 11.86H230.18V34.269C230.18 34.6202 230.141 34.7373 229.79 34.7965C229.38 34.8557 228.951 34.875 228.503 34.875C228.054 34.875 227.643 34.8557 227.234 34.7965C226.883 34.7373 226.844 34.6202 226.844 34.269V12.6023H226.842ZM232.053 11.86C232.58 11.86 232.853 11.8793 233.087 12.2897L243.686 31.1071V34.7965H242.788C242.26 34.7965 241.968 34.7373 241.753 34.3668L231.134 15.5301V11.86H232.051H232.053ZM244.643 12.3875C244.643 12.0363 244.681 11.9193 245.032 11.86C245.443 11.8008 245.852 11.7815 246.301 11.7815C246.75 11.7815 247.179 11.8008 247.588 11.86C247.94 11.9179 247.978 12.0363 247.978 12.3875V34.0542C247.978 34.6009 247.705 34.7965 247.197 34.7965H244.64V12.3875H244.643Z" fill="#F1742E"/>
<path d="M45.3316 10.1964C43.4202 11.104 41.5087 12.0101 39.5972 12.9177C34.2084 10.3107 28.8196 7.7024 23.4308 5.09545C18.0902 7.7024 12.7483 10.3107 7.40769 12.9177C5.59949 12.0129 3.79129 11.1095 1.98309 10.2047C9.13188 6.80312 16.2807 3.40156 23.4295 0C30.7297 3.39881 38.03 6.79761 45.3303 10.1964H45.3316Z" fill="#F1742E"/>
<path d="M39.5958 33.5391C34.6615 30.9872 29.7285 28.4354 24.7942 25.8835V7.91861C29.7285 10.2322 34.6615 12.5445 39.5958 14.8581V33.5391Z" fill="#F1742E"/>
<path d="M5.59261 35.9767C11.0833 38.9417 16.5726 41.9067 22.0633 44.8717C22.0633 46.914 22.0633 48.9563 22.0619 51C14.708 47.1082 7.35398 43.215 0 39.3231V12.0955C1.86466 13.0154 3.72932 13.9368 5.59398 14.8567C5.59398 21.8967 5.59398 28.9367 5.59398 35.9767H5.59261Z" fill="#F1742E"/>
<path d="M22.062 25.8835C17.1772 28.4354 12.2925 30.9872 7.40771 33.5391V14.8581C12.2925 12.5445 17.1772 10.2322 22.062 7.91861V25.8835Z" fill="#F1742E"/>
<path d="M46.7253 39.3232C39.4154 43.215 32.1054 47.1082 24.7955 51V44.8744C30.3344 41.9108 35.872 38.9472 41.4109 35.9822V14.8581C43.1819 13.9381 44.9543 13.0168 46.7253 12.0969V39.3232Z" fill="#F1742E"/>
<path d="M38.0562 35.9822C33.1811 38.3715 28.306 40.7609 23.4295 43.1489C18.8436 40.7595 14.2577 38.3702 9.67175 35.9822C14.2577 33.4193 18.8436 30.8551 23.4295 28.2922C28.3046 30.8551 33.1797 33.4193 38.0562 35.9822Z" fill="#F1742E"/>
</svg>
