<svg width="251" height="41" viewBox="0 0 251 41" fill="none" xmlns="http://www.w3.org/2000/svg">
<path d="M31.754 26.9621C27.7969 24.9106 23.8409 22.8592 19.8838 20.8077V6.36557C23.8409 8.2255 27.7969 10.0843 31.754 11.9443V26.9621Z" fill="#F1742E"/>
<path d="M4.48502 28.9227C8.88832 31.3062 13.2905 33.6898 17.6938 36.0734C17.6938 37.7152 17.6938 39.3571 17.6927 41C11.7951 37.8714 5.89757 34.7416 0 31.6129V9.72443C1.49538 10.464 2.99075 11.2046 4.48613 11.9442C4.48613 17.6037 4.48613 23.2632 4.48613 28.9227H4.48502Z" fill="#F1742E"/>
<path d="M17.6945 20.8077C13.7771 22.8592 9.85974 24.9106 5.94238 26.9621V11.9443C9.85974 10.0843 13.7771 8.2255 17.6945 6.36557V20.8077Z" fill="#F1742E"/>
<path d="M37.4705 31.6118C31.6082 34.7405 25.746 37.8702 19.8838 40.9989V36.0745C24.3257 33.692 28.7666 31.3096 33.2085 28.926V11.9442C34.6288 11.2046 36.0502 10.464 37.4705 9.72443V31.6118Z" fill="#F1742E"/>
<path d="M30.5184 28.9237C26.6088 30.8445 22.6992 32.7654 18.7885 34.6851C15.1108 32.7642 11.4331 30.8434 7.75537 28.9237C11.4331 26.8634 15.1108 24.802 18.7885 22.7417C22.6981 24.802 26.6077 26.8634 30.5184 28.9237Z" fill="#F1742E"/>
<path d="M36.353 8.19697C34.8201 8.92655 33.2871 9.65502 31.7542 10.3846C27.4326 8.28886 23.1111 6.19201 18.7895 4.09627C14.5066 6.19201 10.2226 8.28886 5.93964 10.3846C4.48955 9.65724 3.03945 8.93098 1.58936 8.20362C7.32237 5.46908 13.0554 2.73454 18.7884 0C24.6429 2.73232 30.4974 5.46465 36.3519 8.19697H36.353Z" fill="#F1742E"/>
<path d="M60.9874 8.19617C62.2148 8.19617 63.4011 8.28006 64.442 8.38456V11.4502C63.6932 11.3045 62.4232 11.1162 60.6541 11.1162C54.3071 11.1162 51.519 14.329 51.519 20.712V30.7244C48.9379 28.6802 47.6899 25.4055 47.6899 20.7739C47.6899 12.2008 52.0593 8.1947 60.9874 8.1947V8.19617ZM52.5379 26.1782C53.8901 28.9318 56.6797 30.2461 61.2986 30.2461C64.8781 30.2461 68.1448 29.2026 68.9772 28.9524C69.1226 28.9112 69.2474 28.8906 69.3311 28.8906C69.519 28.8906 69.6012 28.9951 69.6438 29.2865C69.7069 29.6824 69.7275 30.2461 69.7275 30.7892C69.7275 31.0394 69.7275 31.3102 69.7069 31.5192C69.6658 31.9357 69.6027 31.9784 69.1872 32.1241C68.5001 32.3537 65.4213 33.3339 61.1958 33.3339C57.5547 33.3339 54.6829 32.7084 52.5394 31.4353V26.1782H52.5379ZM65.4609 8.53027C66.772 8.71865 67.8335 8.96885 68.5618 9.17637C69.1021 9.34268 69.2694 9.59288 69.2694 10.1772V15.7051C69.2694 16.1849 69.2283 16.2894 68.7908 16.3512C68.3753 16.4145 67.8541 16.4351 67.3549 16.4351C66.8557 16.4351 66.3565 16.4145 65.9396 16.3512C65.502 16.2894 65.4609 16.1849 65.4609 15.7051V8.52879V8.53027Z" fill="#F1742E"/>
<path d="M76.4677 15.6815V23.7335C76.4677 27.906 78.0489 30.617 82.6062 30.617C85.1652 30.617 86.7891 29.7619 87.7258 28.2592V32.3478C86.331 32.9939 84.625 33.328 82.6062 33.328C76.0933 33.328 72.8677 29.8649 72.8677 23.7321C72.8677 19.9982 74.0745 17.2651 76.4677 15.68V15.6815ZM77.4881 15.1178C78.8829 14.4717 80.5889 14.1376 82.6077 14.1376C89.1206 14.1376 92.3462 17.6007 92.3462 23.7335C92.3462 27.4674 91.1393 30.2005 88.7462 31.7855V23.7335C88.7462 19.5611 87.1649 16.8501 82.6077 16.8501C80.0486 16.8501 78.4248 17.7052 77.4881 19.2079V15.1193V15.1178Z" fill="#F1742E"/>
<path d="M101.563 32.4743C101.563 32.8496 101.5 32.9747 101.126 33.038C100.688 33.0998 100.252 33.1219 99.7736 33.1219C99.295 33.1219 98.8575 33.1013 98.4214 33.038C98.047 32.9747 97.9839 32.8496 97.9839 32.4743V17.6846C97.9839 17.4344 97.8591 17.3093 97.5889 17.3093H95.7376C95.4248 17.3093 95.3 17.2254 95.2589 16.934C95.2178 16.6426 95.1973 16.2452 95.1973 15.8699C95.1973 15.4946 95.2178 15.0987 95.2589 14.8058C95.3 14.5144 95.4248 14.4305 95.7376 14.4305H100.773C101.314 14.4305 101.565 14.5762 101.565 15.1605V32.4743H101.563ZM102.584 15.7227C103.478 15.0133 105.081 14.1376 107.808 14.1376C113.093 14.1376 115.3 16.3482 115.3 21.3139V29.7839C115.3 30.0341 115.425 30.1592 115.695 30.1592H117.151C117.464 30.1592 117.589 30.2431 117.63 30.5345C117.671 30.826 117.693 31.2233 117.693 31.5986C117.693 31.9739 117.672 32.3698 117.63 32.6627C117.589 32.9541 117.464 33.038 117.151 33.038H115.341C112.907 33.038 111.72 32.6627 111.72 29.909V22.3162C111.72 18.5618 110.659 16.9752 107.018 16.9752C104.895 16.9752 103.459 17.5801 102.585 18.7693V15.7242L102.584 15.7227Z" fill="#F1742E"/>
<path d="M120.643 29.7619C120.747 29.4072 120.892 29.366 121.267 29.4705C122.265 29.7413 124.887 30.4713 127.947 30.5758V33.3294C124.93 33.2661 121.995 32.7245 120.976 32.3904C120.601 32.2653 120.538 32.1814 120.497 31.8061C120.434 31.2425 120.456 30.3874 120.643 29.7619ZM128.446 14.1582V16.7662C126.241 16.828 124.2 17.3093 124.2 19.2064C124.2 21.1035 125.885 21.2507 129.34 21.8144C134.231 22.6076 137.373 23.3994 137.373 27.6558C137.373 32.1623 133.065 33.247 128.966 33.3294V30.5758C131.422 30.5345 133.731 30.1372 133.731 27.9266C133.731 26.2782 132.858 25.7366 128.925 25.1317C124.222 24.4223 120.622 23.7129 120.622 19.4993C120.622 15.2856 124.639 14.2627 128.446 14.1582ZM129.465 14.1376C132.586 14.1788 135.25 14.8676 135.791 15.0766C136.125 15.2017 136.207 15.3062 136.229 15.6182C136.249 15.7639 136.249 15.9317 136.249 16.098C136.249 16.5984 136.208 17.1415 136.104 17.5374C136.042 17.767 135.959 17.8509 135.791 17.8509C135.73 17.8509 135.646 17.8303 135.542 17.8097C135.063 17.6846 132.128 16.8707 129.465 16.7662V14.1376Z" fill="#F1742E"/>
<path d="M145.755 14.4405H151.394C151.707 14.4405 151.832 14.5244 151.873 14.8158C151.914 15.1072 151.936 15.5046 151.936 15.8799C151.936 16.2552 151.915 16.6511 151.873 16.9439C151.832 17.2354 151.707 17.3192 151.394 17.3192H145.755C145.485 17.3192 145.36 17.465 145.36 17.6945V26.4766C145.36 29.7306 146.692 30.3561 149.105 30.3561C150.333 30.3561 151.353 30.1471 151.789 30.0647C151.851 30.0441 151.893 30.0441 151.935 30.0441C152.164 30.0441 152.247 30.1898 152.288 30.44C152.351 30.7947 152.393 31.2951 152.393 31.7749C152.393 31.9412 152.393 32.1296 152.372 32.2959C152.331 32.63 152.247 32.7124 151.957 32.7963C151.353 32.9626 150.355 33.1716 148.357 33.1716C144.278 33.1716 141.781 31.3775 141.781 26.871V9.70287C141.781 9.32757 141.844 9.20247 142.218 9.13919C142.656 9.0759 143.092 9.0553 143.57 9.0553C144.049 9.0553 144.486 9.0759 144.922 9.13919C145.297 9.201 145.36 9.32757 145.36 9.70287V14.0622C145.36 14.3124 145.485 14.4375 145.755 14.4375V14.4405Z" fill="#F1742E"/>
<path d="M166.777 17.1827C164.55 17.1827 162.927 17.8921 162.011 19.4772C161.449 20.4574 161.158 21.7923 161.158 24.2545V32.4729C161.158 32.8482 161.095 32.9733 160.721 33.0365C160.283 33.0984 159.847 33.1204 159.369 33.1204C158.89 33.1204 158.452 33.0998 158.016 33.0365C157.642 32.9733 157.579 32.8482 157.579 32.4729V17.6831C157.579 17.4329 157.454 17.3078 157.184 17.3078H155.333C155.02 17.3078 154.895 17.2239 154.854 16.9325C154.813 16.6411 154.792 16.2437 154.792 15.8684C154.792 15.4931 154.813 15.0972 154.854 14.8043C154.895 14.5129 155.02 14.429 155.333 14.429H159.744C160.16 14.429 160.368 14.5541 160.432 14.9294L160.64 16.3688C160.661 16.5572 160.765 16.5778 160.89 16.5778H161.119C161.223 16.5778 161.285 16.5572 161.431 16.4115C162.742 14.9721 164.532 14.1376 166.842 14.1376C167.486 14.1376 167.862 14.1582 168.236 14.2009C168.59 14.2421 168.652 14.3466 168.695 14.6601C168.736 14.9309 168.756 15.3062 168.756 15.683C168.756 16.1422 168.715 16.622 168.652 16.934C168.589 17.1842 168.507 17.2887 168.132 17.2475C167.654 17.2063 167.196 17.1857 166.78 17.1857L166.777 17.1827Z" fill="#F1742E"/>
<path d="M171.77 25.2628V14.9987C171.77 14.6234 171.833 14.4983 172.207 14.435C172.645 14.3732 173.081 14.3511 173.559 14.3511C174.038 14.3511 174.476 14.3717 174.912 14.435C175.286 14.4983 175.349 14.6234 175.349 14.9987V25.1156C175.349 28.8701 176.306 30.4566 179.97 30.4566C182.009 30.4566 183.486 29.8517 184.277 28.6832V31.7915C183.508 32.4803 181.988 33.3354 179.262 33.3354C173.976 33.3354 171.77 31.0615 171.77 25.2628ZM188.876 29.7899C188.876 30.0401 189 30.1652 189.271 30.1652H190.727C191.04 30.1652 191.165 30.2491 191.206 30.5405C191.247 30.8319 191.267 31.2293 191.267 31.6046C191.267 31.9799 191.247 32.3758 191.206 32.6687C191.165 32.9601 191.04 33.044 190.727 33.044H186.086C185.544 33.044 185.295 32.8983 185.295 32.314V15.0002C185.295 14.6249 185.356 14.4998 185.732 14.4365C186.17 14.3747 186.606 14.3526 187.084 14.3526C187.563 14.3526 188.001 14.3732 188.437 14.4365C188.811 14.4998 188.874 14.6249 188.874 15.0002V29.7899H188.876Z" fill="#F1742E"/>
<path d="M197.637 15.7654V23.7335C197.637 28.3431 199.905 30.5345 204.193 30.5345C206.898 30.5345 209.394 29.7001 210.165 29.4292C210.249 29.4086 210.331 29.388 210.394 29.388C210.582 29.388 210.707 29.4925 210.748 29.7427C210.832 30.2019 210.893 30.7862 210.893 31.3072C210.893 31.8915 210.893 32.0166 210.415 32.2256C209.666 32.5597 207.169 33.3309 204.193 33.3309C197.95 33.3309 194.037 30.4521 194.037 23.735C194.037 19.8554 195.348 17.2681 197.637 15.7669V15.7654ZM198.658 15.2017C200.177 14.4717 202.049 14.1376 204.193 14.1376C207.169 14.1376 209.666 14.8882 210.415 15.2429C210.893 15.4725 210.893 15.577 210.893 16.1613C210.893 16.6823 210.832 17.2666 210.748 17.7258C210.707 17.976 210.582 18.0805 210.394 18.0805C210.333 18.0805 210.249 18.0599 210.165 18.0393C209.394 17.7685 206.898 16.934 204.193 16.934C201.487 16.934 199.719 17.7479 198.658 19.4375V15.2032V15.2017Z" fill="#F1742E"/>
<path d="M219.033 14.4405H224.672C224.985 14.4405 225.11 14.5244 225.151 14.8158C225.192 15.1072 225.214 15.5046 225.214 15.8799C225.214 16.2552 225.194 16.6511 225.151 16.9439C225.11 17.2354 224.985 17.3192 224.672 17.3192H219.033C218.763 17.3192 218.638 17.465 218.638 17.6945V26.4766C218.638 29.7306 219.97 30.3561 222.383 30.3561C223.611 30.3561 224.631 30.1471 225.067 30.0647C225.129 30.0441 225.172 30.0441 225.213 30.0441C225.442 30.0441 225.525 30.1898 225.566 30.44C225.63 30.7947 225.671 31.2951 225.671 31.7749C225.671 31.9412 225.671 32.1296 225.65 32.2959C225.609 32.63 225.525 32.7124 225.235 32.7963C224.631 32.9626 223.633 33.1716 221.635 33.1716C217.556 33.1716 215.059 31.3775 215.059 26.871V9.70287C215.059 9.32757 215.122 9.20247 215.496 9.13919C215.934 9.0759 216.37 9.0553 216.848 9.0553C217.327 9.0553 217.764 9.0759 218.201 9.13919C218.575 9.201 218.638 9.32757 218.638 9.70287V14.0622C218.638 14.3124 218.763 14.4375 219.033 14.4375V14.4405Z" fill="#F1742E"/>
<path d="M234.426 32.4743C234.426 32.8496 234.363 32.9747 233.989 33.038C233.551 33.0998 233.115 33.1219 232.637 33.1219C232.158 33.1219 231.72 33.1013 231.284 33.038C230.91 32.9747 230.847 32.8496 230.847 32.4743V17.6846C230.847 17.4344 230.722 17.3093 230.452 17.3093H228.601C228.288 17.3093 228.163 17.2254 228.122 16.934C228.081 16.6426 228.06 16.2452 228.06 15.8699C228.06 15.4946 228.081 15.0987 228.122 14.8058C228.163 14.5144 228.288 14.4305 228.601 14.4305H233.636C234.177 14.4305 234.428 14.5762 234.428 15.1605V32.4743H234.426ZM235.447 15.7227C236.341 15.0133 237.944 14.1376 240.671 14.1376C245.956 14.1376 248.163 16.3482 248.163 21.3139V29.7839C248.163 30.0341 248.288 30.1592 248.558 30.1592H250.014C250.327 30.1592 250.452 30.2431 250.493 30.5345C250.534 30.826 250.556 31.2233 250.556 31.5986C250.556 31.9739 250.535 32.3698 250.493 32.6627C250.452 32.9541 250.327 33.038 250.014 33.038H248.204C245.77 33.038 244.583 32.6627 244.583 29.909V22.3162C244.583 18.5618 243.522 16.9752 239.881 16.9752C237.758 16.9752 236.322 17.5801 235.448 18.7693V15.7242L235.447 15.7227Z" fill="#F1742E"/>
</svg>
