<svg width="16" height="20" viewBox="0 0 16 20" fill="none" xmlns="http://www.w3.org/2000/svg">
<path d="M4.8077 2.78027H3C1.89543 2.78027 1 3.6757 1 4.78027V16.9889C1 18.0935 1.89543 18.9889 3 18.9889H12.999C14.1035 18.9889 14.999 18.0935 14.999 16.9889V4.78027C14.999 3.6757 14.1035 2.78027 12.999 2.78027H11.111" stroke="#101F4C" stroke-linecap="round" stroke-linejoin="round"/>
<path d="M10.2794 1.00977H5.72072C5.3011 1.00977 4.96094 1.34993 4.96094 1.76955V3.28911C4.96094 3.70872 5.3011 4.04889 5.72072 4.04889H10.2794C10.699 4.04889 11.0392 3.70872 11.0392 3.28911V1.76955C11.0392 1.34993 10.699 1.00977 10.2794 1.00977Z" stroke="#101F4C" stroke-linecap="round" stroke-linejoin="round"/>
</svg>
