<svg width="17" height="17" viewBox="0 0 17 17" fill="none" xmlns="http://www.w3.org/2000/svg">
<path d="M8.5 16.5C12.9183 16.5 16.5 12.9183 16.5 8.5C16.5 4.08172 12.9183 0.5 8.5 0.5C4.08172 0.5 0.5 4.08172 0.5 8.5C0.5 12.9183 4.08172 16.5 8.5 16.5Z" stroke="#36415D" stroke-linecap="round"/>
<path d="M8.50078 9.6998C9.16352 9.6998 9.70078 9.16255 9.70078 8.4998C9.70078 7.83706 9.16352 7.2998 8.50078 7.2998C7.83804 7.2998 7.30078 7.83706 7.30078 8.4998C7.30078 9.16255 7.83804 9.6998 8.50078 9.6998Z" stroke="#36415D" stroke-linecap="round"/>
<path d="M12.7 9.6998C13.3627 9.6998 13.9 9.16255 13.9 8.4998C13.9 7.83706 13.3627 7.2998 12.7 7.2998C12.0373 7.2998 11.5 7.83706 11.5 8.4998C11.5 9.16255 12.0373 9.6998 12.7 9.6998Z" stroke="#36415D" stroke-linecap="round"/>
<path d="M4.30156 9.6998C4.9643 9.6998 5.50156 9.16255 5.50156 8.4998C5.50156 7.83706 4.9643 7.2998 4.30156 7.2998C3.63882 7.2998 3.10156 7.83706 3.10156 8.4998C3.10156 9.16255 3.63882 9.6998 4.30156 9.6998Z" stroke="#36415D" stroke-linecap="round"/>
</svg>
