<svg width="22" height="22" viewBox="0 0 22 22" fill="none" xmlns="http://www.w3.org/2000/svg">
<path d="M11 21C16.5228 21 21 16.5228 21 11C21 5.47715 16.5228 1 11 1C5.47715 1 1 5.47715 1 11C1 16.5228 5.47715 21 11 21Z" stroke="#101F4C" stroke-linecap="round"/>
<path d="M11 12.5C11.8284 12.5 12.5 11.8284 12.5 11C12.5 10.1716 11.8284 9.5 11 9.5C10.1716 9.5 9.5 10.1716 9.5 11C9.5 11.8284 10.1716 12.5 11 12.5Z" stroke="#101F4C" stroke-linecap="round"/>
<path d="M16.25 12.5C17.0784 12.5 17.75 11.8284 17.75 11C17.75 10.1716 17.0784 9.5 16.25 9.5C15.4216 9.5 14.75 10.1716 14.75 11C14.75 11.8284 15.4216 12.5 16.25 12.5Z" stroke="#101F4C" stroke-linecap="round"/>
<path d="M5.75 12.5C6.57843 12.5 7.25 11.8284 7.25 11C7.25 10.1716 6.57843 9.5 5.75 9.5C4.92157 9.5 4.25 10.1716 4.25 11C4.25 11.8284 4.92157 12.5 5.75 12.5Z" stroke="#101F4C" stroke-linecap="round"/>
</svg>
