<svg width="24" height="25" viewBox="0 0 24 25" fill="none" xmlns="http://www.w3.org/2000/svg">
<path d="M12 22.5C17.5228 22.5 22 18.0228 22 12.5C22 6.97715 17.5228 2.5 12 2.5C6.47715 2.5 2 6.97715 2 12.5C2 18.0228 6.47715 22.5 12 22.5Z" stroke="#101F4C" stroke-linecap="round"/>
<path d="M12 14C12.8284 14 13.5 13.3284 13.5 12.5C13.5 11.6716 12.8284 11 12 11C11.1716 11 10.5 11.6716 10.5 12.5C10.5 13.3284 11.1716 14 12 14Z" stroke="#101F4C" stroke-linecap="round"/>
<path d="M17.25 14C18.0784 14 18.75 13.3284 18.75 12.5C18.75 11.6716 18.0784 11 17.25 11C16.4216 11 15.75 11.6716 15.75 12.5C15.75 13.3284 16.4216 14 17.25 14Z" stroke="#101F4C" stroke-linecap="round"/>
<path d="M6.75 14C7.57843 14 8.25 13.3284 8.25 12.5C8.25 11.6716 7.57843 11 6.75 11C5.92157 11 5.25 11.6716 5.25 12.5C5.25 13.3284 5.92157 14 6.75 14Z" stroke="#101F4C" stroke-linecap="round"/>
</svg>
