<svg width="24" height="24" viewBox="0 0 24 24" fill="none" xmlns="http://www.w3.org/2000/svg">
<path d="M18.3396 10.2495C18.3396 8.56786 17.6716 6.95512 16.4825 5.76604C15.2934 4.57695 13.6807 3.90894 11.9991 3.90894C10.3175 3.90894 8.70473 4.57695 7.51565 5.76604C6.32657 6.95512 5.65855 8.56786 5.65855 10.2495C5.65855 14.6959 4.5131 17.2333 3.59924 18.5501C3.31718 18.9565 3.64497 19.7603 4.13967 19.7603H19.8585C20.3532 19.7603 20.681 18.9565 20.3989 18.5501C19.4851 17.2333 18.3396 14.6959 18.3396 10.2495Z" stroke="#36415D" stroke-linecap="round"/>
<path d="M14.5033 19.7607C14.5033 21.1434 13.3824 22.2643 11.9997 22.2643C10.617 22.2643 9.49609 21.1434 9.49609 19.7607" stroke="#36415D" stroke-linecap="round"/>
<path d="M12.78 3.9649V2.51844C12.78 2.08622 12.4297 1.73584 11.9974 1.73584V1.73584C11.5652 1.73584 11.2148 2.08622 11.2148 2.51844V3.9649" stroke="#36415D" stroke-linecap="round"/>
</svg>