<svg width="20" height="22" viewBox="0 0 20 22" fill="none" xmlns="http://www.w3.org/2000/svg">
<path d="M16.781 9.24972C16.781 7.5681 16.113 5.95536 14.9239 4.76628C13.7349 3.5772 12.1221 2.90918 10.4405 2.90918C8.75888 2.90918 7.14614 3.5772 5.95706 4.76628C4.76798 5.95536 4.09996 7.5681 4.09996 9.24972C4.09996 13.6962 2.95451 16.2335 2.04065 17.5503C1.75859 17.9567 2.08637 18.7605 2.58108 18.7605H18.2999C18.7946 18.7605 19.1224 17.9567 18.8403 17.5503C17.9265 16.2335 16.781 13.6962 16.781 9.24972Z" stroke="#36415D" stroke-linecap="round"/>
<path d="M12.9447 18.7617C12.9447 20.1444 11.8238 21.2653 10.4411 21.2653C9.0584 21.2653 7.9375 20.1444 7.9375 18.7617" stroke="#36415D" stroke-linecap="round"/>
<path d="M11.2214 2.96539V1.51893C11.2214 1.08671 10.8711 0.736328 10.4388 0.736328V0.736328C10.0066 0.736328 9.65625 1.08671 9.65625 1.51893V2.96539" stroke="#36415D" stroke-linecap="round"/>
</svg>
