<svg width="24" height="25" viewBox="0 0 24 25" fill="none" xmlns="http://www.w3.org/2000/svg">
<path d="M4.67871 7.12842H6.30565H19.3212" stroke="#FF843F" stroke-linecap="round"/>
<path d="M18.0664 7.12842L17.1997 19.2622C17.1997 19.7219 17.0171 20.1628 16.692 20.4879C16.3669 20.813 15.926 20.9956 15.4663 20.9956H8.53272C8.07299 20.9956 7.63209 20.813 7.30702 20.4879C6.98194 20.1628 6.79932 19.7219 6.79932 19.2622L5.93262 7.12842" stroke="#FF843F" stroke-linecap="round"/>
<path d="M10.2676 10.3755V17.7501" stroke="#FF843F" stroke-linecap="round"/>
<path d="M13.7334 10.3755V17.7501" stroke="#FF843F" stroke-linecap="round"/>
<path d="M14.9628 6.84903V5.00391C14.9628 4.45162 14.5151 4.00391 13.9628 4.00391H10.0381C9.4858 4.00391 9.03809 4.45162 9.03809 5.00391V6.84903" stroke="#FF843F" stroke-linecap="round"/>
</svg>
