<svg width="20" height="20" viewBox="0 0 20 20" fill="none" xmlns="http://www.w3.org/2000/svg">
<g clip-path="url(#clip0_4808_67268)">
<ellipse cx="10" cy="9.92128" rx="3.57524" ry="8.61049" fill="#F5F5F5"/>
<ellipse cx="10.0001" cy="9.92134" rx="3.57524" ry="8.61049" transform="rotate(-90 10.0001 9.92134)" fill="#F5F5F5"/>
<path d="M10.0001 6.4248C14.9365 6.4248 18.9382 8.0255 18.9382 10C18.9382 11.9746 14.9365 13.5753 10.0001 13.5753C5.06374 13.5753 1.06201 11.9746 1.06201 10C1.06201 9.09333 1.90585 8.26544 3.29654 7.63518" stroke="#888888" stroke-linecap="round"/>
<path d="M13.5752 10.0001C13.5752 5.06374 11.9745 1.06201 9.99995 1.06201C8.0254 1.06201 6.42471 5.06374 6.42471 10.0001C6.42471 14.9365 8.0254 18.9382 9.99995 18.9382C10.9067 18.9382 11.7346 18.0944 12.3648 16.7037" stroke="#888888" stroke-linecap="round"/>
<path d="M1.91489 6.8069L3.7173 7.39542L3.12878 9.19783" stroke="#888888" stroke-linecap="round"/>
<path d="M14.9185 9.07262L13.5734 10.4089L12.237 9.06384" stroke="#888888" stroke-linecap="round"/>
</g>
<defs>
<clipPath id="clip0_4808_67268">
<rect width="20" height="20" fill="white"/>
</clipPath>
</defs>
</svg>
