<svg width="13" height="18" viewBox="0 0 13 18" fill="none" xmlns="http://www.w3.org/2000/svg">
<path d="M1.00002 0.5H0.500019L0.500018 1L0.5 17L0.499999 17.5H1H12H12.5V17V4.93846V4.79916L12.428 4.67993L10.0488 0.741464L9.90289 0.5H9.62079H1.00002Z" fill="white" stroke="black"/>
<path d="M4.246 10V7.885H5.122C5.35 7.885 5.526 7.942 5.65 8.056C5.774 8.168 5.836 8.326 5.836 8.53C5.836 8.736 5.774 8.896 5.65 9.01C5.526 9.122 5.35 9.178 5.122 9.178H4.558V10H4.246ZM4.558 8.929H5.077C5.381 8.929 5.533 8.796 5.533 8.53C5.533 8.266 5.381 8.134 5.077 8.134H4.558V8.929ZM6.1708 10V7.885H6.9178C7.2658 7.885 7.5338 7.976 7.7218 8.158C7.9118 8.34 8.0068 8.601 8.0068 8.941C8.0068 9.281 7.9118 9.543 7.7218 9.727C7.5338 9.909 7.2658 10 6.9178 10H6.1708ZM6.4828 9.739H6.8998C7.4218 9.739 7.6828 9.473 7.6828 8.941C7.6828 8.411 7.4218 8.146 6.8998 8.146H6.4828V9.739ZM8.42373 10V7.885H9.76773V8.137H8.73573V8.812H9.70473V9.064H8.73573V10H8.42373Z" fill="black"/>
</svg>
