<svg width="58" height="58" viewBox="0 0 58 58" fill="none" xmlns="http://www.w3.org/2000/svg">
<ellipse cx="29" cy="26" rx="24" ry="24" transform="rotate(-90 29 26)" fill="#ECECEC"/>
<g filter="url(#filter0_d_23_169)">
<circle cx="29" cy="26" r="21" transform="rotate(-90 29 26)" fill="#FF843F"/>
<circle cx="29" cy="26" r="20.5" transform="rotate(-90 29 26)" stroke="white"/>
</g>
<path d="M29 28.9545C30.6317 28.9545 31.9545 27.6318 31.9545 26C31.9545 24.3682 30.6317 23.0455 29 23.0455C27.3682 23.0455 26.0454 24.3682 26.0454 26C26.0454 27.6318 27.3682 28.9545 29 28.9545Z" stroke="white" stroke-linecap="round"/>
<path d="M36.2878 28.9545C36.1567 29.2516 36.1176 29.5811 36.1756 29.9006C36.2335 30.2201 36.3858 30.5149 36.6128 30.747L36.6719 30.8061C36.8551 30.989 37.0003 31.2062 37.0995 31.4453C37.1986 31.6845 37.2496 31.9408 37.2496 32.1996C37.2496 32.4585 37.1986 32.7148 37.0995 32.9539C37.0003 33.193 36.8551 33.4102 36.6719 33.5932C36.489 33.7763 36.2718 33.9216 36.0326 34.0207C35.7935 34.1198 35.5372 34.1709 35.2784 34.1709C35.0195 34.1709 34.7632 34.1198 34.5241 34.0207C34.285 33.9216 34.0677 33.7763 33.8848 33.5932L33.8257 33.5341C33.5936 33.307 33.2988 33.1547 32.9793 33.0968C32.6598 33.0389 32.3303 33.078 32.0333 33.2091C31.742 33.3339 31.4936 33.5412 31.3186 33.8055C31.1436 34.0697 31.0497 34.3793 31.0484 34.6962V34.8636C31.0484 35.386 30.8409 35.887 30.4715 36.2564C30.1021 36.6258 29.6011 36.8333 29.0787 36.8333C28.5564 36.8333 28.0554 36.6258 27.686 36.2564C27.3166 35.887 27.1091 35.386 27.1091 34.8636V34.775C27.1014 34.449 26.9959 34.1329 26.8062 33.8677C26.6165 33.6024 26.3514 33.4004 26.0454 33.2879C25.7484 33.1568 25.4189 33.1177 25.0994 33.1756C24.7799 33.2335 24.4851 33.3858 24.253 33.6129L24.1939 33.672C24.011 33.8551 23.7937 34.0004 23.5546 34.0995C23.3155 34.1986 23.0592 34.2497 22.8003 34.2497C22.5415 34.2497 22.2852 34.1986 22.0461 34.0995C21.8069 34.0004 21.5897 33.8551 21.4068 33.672C21.2236 33.489 21.0784 33.2718 20.9792 33.0327C20.8801 32.7936 20.8291 32.5373 20.8291 32.2784C20.8291 32.0196 20.8801 31.7633 20.9792 31.5241C21.0784 31.285 21.2236 31.0678 21.4068 30.8848L21.4659 30.8258C21.6929 30.5936 21.8452 30.2988 21.9031 29.9794C21.9611 29.6599 21.922 29.3304 21.7909 29.0333C21.666 28.742 21.4587 28.4936 21.1945 28.3186C20.9303 28.1437 20.6207 28.0497 20.3037 28.0485H20.1363C19.6139 28.0485 19.1129 27.841 18.7435 27.4716C18.3741 27.1022 18.1666 26.6012 18.1666 26.0788C18.1666 25.5564 18.3741 25.0554 18.7435 24.686C19.1129 24.3166 19.6139 24.1091 20.1363 24.1091H20.225C20.5509 24.1015 20.8671 23.9959 21.1323 23.8063C21.3975 23.6166 21.5995 23.3515 21.7121 23.0455C21.8432 22.7484 21.8823 22.4189 21.8244 22.0994C21.7664 21.7799 21.6141 21.4851 21.3871 21.253L21.328 21.1939C21.1449 21.011 20.9996 20.7938 20.9004 20.5547C20.8013 20.3155 20.7503 20.0592 20.7503 19.8004C20.7503 19.5415 20.8013 19.2852 20.9004 19.0461C20.9996 18.807 21.1449 18.5897 21.328 18.4068C21.5109 18.2237 21.7282 18.0784 21.9673 17.9793C22.2064 17.8802 22.4627 17.8291 22.7216 17.8291C22.9804 17.8291 23.2367 17.8802 23.4758 17.9793C23.7149 18.0784 23.9322 18.2237 24.1151 18.4068L24.1742 18.4659C24.4063 18.693 24.7011 18.8453 25.0206 18.9032C25.3401 18.9611 25.6696 18.922 25.9666 18.7909H26.0454C26.3367 18.6661 26.5851 18.4588 26.7601 18.1945C26.9351 17.9303 27.029 17.6207 27.0303 17.3038V17.1364C27.0303 16.614 27.2378 16.113 27.6072 15.7436C27.9766 15.3742 28.4776 15.1667 29 15.1667C29.5224 15.1667 30.0234 15.3742 30.3927 15.7436C30.7621 16.113 30.9697 16.614 30.9697 17.1364V17.225C30.9709 17.5419 31.0648 17.8515 31.2398 18.1158C31.4148 18.38 31.6632 18.5873 31.9545 18.7121C32.2516 18.8432 32.5811 18.8823 32.9005 18.8244C33.22 18.7665 33.5148 18.6142 33.7469 18.3871L33.806 18.328C33.989 18.1449 34.2062 17.9996 34.4453 17.9005C34.6844 17.8014 34.9407 17.7503 35.1996 17.7503C35.4584 17.7503 35.7147 17.8014 35.9539 17.9005C36.193 17.9996 36.4102 18.1449 36.5931 18.328C36.7763 18.511 36.9216 18.7282 37.0207 18.9673C37.1198 19.2064 37.1708 19.4627 37.1708 19.7216C37.1708 19.9804 37.1198 20.2367 37.0207 20.4759C36.9216 20.715 36.7763 20.9322 36.5931 21.1152L36.5341 21.1742C36.307 21.4064 36.1547 21.7012 36.0968 22.0206C36.0388 22.3401 36.078 22.6696 36.2091 22.9667V23.0455C36.3339 23.3367 36.5412 23.5852 36.8054 23.7602C37.0696 23.9351 37.3793 24.029 37.6962 24.0303H37.8636C38.386 24.0303 38.887 24.2378 39.2564 24.6072C39.6258 24.9766 39.8333 25.4776 39.8333 26C39.8333 26.5224 39.6258 27.0234 39.2564 27.3928C38.887 27.7622 38.386 27.9697 37.8636 27.9697H37.775C37.458 27.971 37.1484 28.0649 36.8842 28.2398C36.62 28.4148 36.4127 28.6633 36.2878 28.9545Z" stroke="white" stroke-linecap="round"/>
<defs>
<filter id="filter0_d_23_169" x="0" y="-9.53674e-07" width="58" height="58" filterUnits="userSpaceOnUse" color-interpolation-filters="sRGB">
<feFlood flood-opacity="0" result="BackgroundImageFix"/>
<feColorMatrix in="SourceAlpha" type="matrix" values="0 0 0 0 0 0 0 0 0 0 0 0 0 0 0 0 0 0 127 0" result="hardAlpha"/>
<feOffset dy="3"/>
<feGaussianBlur stdDeviation="4"/>
<feComposite in2="hardAlpha" operator="out"/>
<feColorMatrix type="matrix" values="0 0 0 0 0 0 0 0 0 0 0 0 0 0 0 0 0 0 0.2 0"/>
<feBlend mode="normal" in2="BackgroundImageFix" result="effect1_dropShadow_23_169"/>
<feBlend mode="normal" in="SourceGraphic" in2="effect1_dropShadow_23_169" result="shape"/>
</filter>
</defs>
</svg>
