<svg width="24" height="24" viewBox="0 0 24 24" fill="none" xmlns="http://www.w3.org/2000/svg">
<path d="M17.7047 21.3971V21.3971C17.7047 17.9374 14.9002 15.1328 11.4406 15.1328C10.0245 15.1328 8.59359 15.1328 7.26425 15.1328C3.8046 15.1328 1 17.9374 1 21.3971V21.3971" stroke="#36415D" stroke-linecap="round" stroke-linejoin="round"/>
<path d="M9.34804 10.9558C11.6545 10.9558 13.5242 9.08611 13.5242 6.77968C13.5242 4.47325 11.6545 2.60352 9.34804 2.60352C7.04161 2.60352 5.17188 4.47325 5.17188 6.77968C5.17188 9.08611 7.04161 10.9558 9.34804 10.9558Z" stroke="#36415D" stroke-linecap="round"/>
<path d="M22.9993 21.3961V19.308C22.9991 19.0978 22.999 18.7744 22.999 18.4003C22.9988 16.6705 21.5969 15.2676 19.8671 15.2676V15.2676H18.8281" stroke="#36415D" stroke-linecap="round" stroke-linejoin="round"/>
<path d="M16.6602 2.73828C17.5585 2.96828 18.3547 3.49072 18.9233 4.22323C19.4918 4.95574 19.8005 5.85665 19.8005 6.78394C19.8005 7.71123 19.4918 8.61214 18.9233 9.34465C18.3547 10.0772 17.5585 10.5996 16.6602 10.8296" stroke="#36415D" stroke-linecap="round" stroke-linejoin="round"/>
</svg>
