<svg width="24" height="21" viewBox="0 0 24 21" fill="none" xmlns="http://www.w3.org/2000/svg">
<path d="M17.7047 19.7926V19.7926C17.7047 16.3329 14.9002 13.5283 11.4406 13.5283C10.0245 13.5283 8.59359 13.5283 7.26425 13.5283C3.8046 13.5283 1 16.3329 1 19.7926V19.7926" stroke="#36415D" stroke-linecap="round" stroke-linejoin="round"/>
<path d="M9.34755 9.35233C11.654 9.35233 13.5237 7.4826 13.5237 5.17617C13.5237 2.86973 11.654 1 9.34755 1C7.04112 1 5.17139 2.86973 5.17139 5.17617C5.17139 7.4826 7.04112 9.35233 9.34755 9.35233Z" stroke="#36415D" stroke-linecap="round"/>
<path d="M23 19.7925V17.7044C22.9998 17.4941 22.9998 17.1708 22.9997 16.7966C22.9995 15.0669 21.5976 13.6639 19.8679 13.6639V13.6639H18.8289" stroke="#36415D" stroke-linecap="round" stroke-linejoin="round"/>
<path d="M16.6611 1.13513C17.5594 1.36514 18.3557 1.88757 18.9242 2.62008C19.4928 3.35259 19.8014 4.25351 19.8014 5.18079C19.8014 6.10808 19.4928 7.00899 18.9242 7.7415C18.3557 8.47401 17.5594 8.99645 16.6611 9.22645" stroke="#36415D" stroke-linecap="round" stroke-linejoin="round"/>
</svg>
