<svg width="21" height="20" viewBox="0 0 21 20" fill="none" xmlns="http://www.w3.org/2000/svg">
<path d="M5.33252 6C5.33252 4.89543 6.22795 4 7.33252 4H15.3325C16.4371 4 17.3325 4.89543 17.3325 6V11.6364V14C17.3325 15.1046 16.4371 16 15.3325 16H7.33252C6.22795 16 5.33252 15.1046 5.33252 14V11.6364V6Z" fill="#F5F5F5"/>
<path d="M5.33252 11.6364V14C5.33252 15.1046 6.22795 16 7.33252 16H15.3325C16.4371 16 17.3325 15.1046 17.3325 14V11.6364M5.33252 11.6364V6C5.33252 4.89543 6.22795 4 7.33252 4H15.3325C16.4371 4 17.3325 4.89543 17.3325 6V11.6364M5.33252 11.6364L8.05593 9.27608C8.83228 8.60323 9.99214 8.62803 10.739 9.33343L12.5999 11.0909M14.3325 12.7273L12.5999 11.0909M12.5999 11.0909C12.6353 10.9907 12.9271 10.6947 13.294 10.3511C14.0275 9.66422 15.1641 9.68478 15.911 10.357L17.3325 11.6364" stroke="#888888" stroke-linecap="round" stroke-linejoin="round"/>
</svg>
