<svg width="13" height="18" viewBox="0 0 13 18" fill="none" xmlns="http://www.w3.org/2000/svg">
<path d="M1.00002 0.5H0.500019L0.500018 1L0.5 17L0.499999 17.5H1H12H12.5V17V4.93846V4.79916L12.428 4.67993L10.0488 0.741464L9.90289 0.5H9.62079H1.00002Z" fill="white" stroke="black"/>
<path d="M3.994 10.024L3.97 9.769L4.165 9.757C4.361 9.741 4.459 9.629 4.459 9.421V7.885H4.768V9.421C4.768 9.603 4.721 9.744 4.627 9.844C4.533 9.944 4.394 10 4.21 10.012L3.994 10.024ZM5.25967 10V7.885H6.13567C6.36367 7.885 6.53967 7.942 6.66367 8.056C6.78767 8.168 6.84967 8.326 6.84967 8.53C6.84967 8.736 6.78767 8.896 6.66367 9.01C6.53967 9.122 6.36367 9.178 6.13567 9.178H5.57167V10H5.25967ZM5.57167 8.929H6.09067C6.39467 8.929 6.54667 8.796 6.54667 8.53C6.54667 8.266 6.39467 8.134 6.09067 8.134H5.57167V8.929ZM8.1569 10.027C7.9269 10.027 7.7329 9.984 7.5749 9.898C7.4169 9.81 7.2969 9.685 7.2149 9.523C7.1349 9.361 7.0949 9.168 7.0949 8.944C7.0949 8.722 7.1359 8.53 7.2179 8.368C7.2999 8.204 7.4189 8.078 7.5749 7.99C7.7309 7.902 7.9179 7.858 8.1359 7.858C8.2859 7.858 8.4249 7.88 8.5529 7.924C8.6809 7.968 8.7879 8.031 8.8739 8.113L8.7629 8.356C8.6669 8.276 8.5689 8.219 8.4689 8.185C8.3689 8.149 8.2579 8.131 8.1359 8.131C7.9019 8.131 7.7239 8.202 7.6019 8.344C7.4799 8.484 7.4189 8.684 7.4189 8.944C7.4189 9.21 7.4809 9.412 7.6049 9.55C7.7309 9.688 7.9189 9.757 8.1689 9.757C8.3209 9.757 8.4719 9.732 8.6219 9.682V9.115H8.1059V8.881H8.8829V9.877C8.7929 9.921 8.6809 9.957 8.5469 9.985C8.4149 10.013 8.2849 10.027 8.1569 10.027Z" fill="black"/>
</svg>
