<svg xmlns="http://www.w3.org/2000/svg" version="1.1" width="225px" height="225px" style="shape-rendering:geometricPrecision; text-rendering:geometricPrecision; image-rendering:optimizeQuality; fill-rule:evenodd; clip-rule:evenodd" xmlns:xlink="http://www.w3.org/1999/xlink">
<g><path style="opacity:1" fill="#171a1c" d="M -0.5,-0.5 C 74.5,-0.5 149.5,-0.5 224.5,-0.5C 224.5,74.5 224.5,149.5 224.5,224.5C 149.5,224.5 74.5,224.5 -0.5,224.5C -0.5,149.5 -0.5,74.5 -0.5,-0.5 Z"/></g>
<g><path style="opacity:1" fill="#fcfcfc" d="M 61.5,45.5 C 95.8822,45.0273 130.216,45.5273 164.5,47C 171.667,50.1667 176.833,55.3333 180,62.5C 181.429,73.0885 181.929,83.7551 181.5,94.5C 170.813,94.832 160.146,94.4987 149.5,93.5C 145.04,86.0817 140.707,78.5817 136.5,71C 120.167,70.3333 103.833,70.3333 87.5,71C 79.3195,84.3592 71.6528,98.0259 64.5,112C 71.9503,125.618 79.6169,139.118 87.5,152.5C 103.833,153.833 120.167,153.833 136.5,152.5C 140.833,145.167 145.167,137.833 149.5,130.5C 160.146,129.501 170.813,129.168 181.5,129.5C 181.666,139.172 181.5,148.839 181,158.5C 177.624,169.211 170.457,175.711 159.5,178C 127.167,178.667 94.8333,178.667 62.5,178C 52.6667,174.833 46.1667,168.333 43,158.5C 42.3333,127.167 42.3333,95.8333 43,64.5C 46.6871,55.6475 52.8538,49.3141 61.5,45.5 Z"/></g>
<g><path style="opacity:1" fill="#fc5000" d="M 99.5,90.5 C 108.751,90.1822 117.917,90.5155 127,91.5C 131.167,98.5 135.333,105.5 139.5,112.5C 135.417,119.668 131.084,126.668 126.5,133.5C 117.518,134.665 108.518,134.832 99.5,134C 95.041,126.916 90.7077,119.75 86.5,112.5C 90.8448,105.139 95.1782,97.8057 99.5,90.5 Z"/></g>
</svg>