<svg width="58" height="58" viewBox="0 0 58 58" fill="none" xmlns="http://www.w3.org/2000/svg">
<ellipse cx="29" cy="26" rx="24" ry="24" transform="rotate(-90 29 26)" fill="#ECECEC"/>
<g filter="url(#filter0_d_886_7288)">
<circle cx="29" cy="26" r="21" transform="rotate(-90 29 26)" fill="#FF843F"/>
<circle cx="29" cy="26" r="20.5" transform="rotate(-90 29 26)" stroke="white"/>
</g>
<path d="M25.3125 32H21.3203V31.1602L22.7539 29.7109C23.043 29.4141 23.2747 29.1667 23.4492 28.9688C23.6263 28.7682 23.7539 28.5859 23.832 28.4219C23.9128 28.2578 23.9531 28.082 23.9531 27.8945C23.9531 27.668 23.8893 27.4987 23.7617 27.3867C23.6367 27.2721 23.4688 27.2148 23.2578 27.2148C23.0365 27.2148 22.8216 27.2656 22.6133 27.3672C22.4049 27.4688 22.1875 27.6133 21.9609 27.8008L21.3047 27.0234C21.4688 26.8828 21.6419 26.75 21.8242 26.625C22.0091 26.5 22.2227 26.3997 22.4648 26.3242C22.7096 26.2461 23.0026 26.207 23.3438 26.207C23.7188 26.207 24.0404 26.2747 24.3086 26.4102C24.5794 26.5456 24.7878 26.7305 24.9336 26.9648C25.0794 27.1966 25.1523 27.4596 25.1523 27.7539C25.1523 28.069 25.0898 28.3568 24.9648 28.6172C24.8398 28.8776 24.6576 29.1354 24.418 29.3906C24.181 29.6458 23.8945 29.9284 23.5586 30.2383L22.8242 30.9297V30.9844H25.3125V32ZM31.0352 29.0898C31.0352 29.7331 30.9115 30.2708 30.6641 30.7031C30.4193 31.1328 30.0638 31.457 29.5977 31.6758C29.1315 31.8919 28.5703 32 27.9141 32H26.2969V26.2891H28.0898C28.6888 26.2891 29.2083 26.3958 29.6484 26.6094C30.0885 26.8203 30.4297 27.1341 30.6719 27.5508C30.9141 27.9648 31.0352 28.4779 31.0352 29.0898ZM29.7773 29.1211C29.7773 28.6992 29.7148 28.3529 29.5898 28.082C29.4674 27.8086 29.2852 27.6068 29.043 27.4766C28.8034 27.3464 28.5065 27.2812 28.1523 27.2812H27.5078V31H28.0273C28.6185 31 29.0573 30.8424 29.3438 30.5273C29.6328 30.2122 29.7773 29.7435 29.7773 29.1211Z" fill="white"/>
<path d="M39 30V32C39 32.5304 38.7893 33.0391 38.4142 33.4142C38.0391 33.7893 37.5304 34 37 34H21C20.4696 34 19.9609 33.7893 19.5858 33.4142C19.2107 33.0391 19 32.5304 19 32V20C19 19.4696 19.2107 18.9609 19.5858 18.5858C19.9609 18.2107 20.4696 18 21 18H27" stroke="white" stroke-linecap="round" stroke-linejoin="round"/>
<path d="M38.9999 18L34.6961 22.3325L32.4159 20.0673L29.0181 23.4877" stroke="white" stroke-linecap="round" stroke-linejoin="round"/>
<path d="M36.2725 18.009L38.9997 18L39.0088 20.7272" stroke="white" stroke-linecap="round" stroke-linejoin="round"/>
<defs>
<filter id="filter0_d_886_7288" x="0" y="0" width="58" height="58" filterUnits="userSpaceOnUse" color-interpolation-filters="sRGB">
<feFlood flood-opacity="0" result="BackgroundImageFix"/>
<feColorMatrix in="SourceAlpha" type="matrix" values="0 0 0 0 0 0 0 0 0 0 0 0 0 0 0 0 0 0 127 0" result="hardAlpha"/>
<feOffset dy="3"/>
<feGaussianBlur stdDeviation="4"/>
<feComposite in2="hardAlpha" operator="out"/>
<feColorMatrix type="matrix" values="0 0 0 0 0 0 0 0 0 0 0 0 0 0 0 0 0 0 0.2 0"/>
<feBlend mode="normal" in2="BackgroundImageFix" result="effect1_dropShadow_886_7288"/>
<feBlend mode="normal" in="SourceGraphic" in2="effect1_dropShadow_886_7288" result="shape"/>
</filter>
</defs>
</svg>
