<svg width="24" height="24" viewBox="0 0 24 24" fill="none" xmlns="http://www.w3.org/2000/svg">
<path d="M17.1584 4V7.1999C17.1303 7.45296 16.9202 8.05381 16.3049 8.43276C15.5357 8.90644 12.8706 10.2128 12.8706 11.7734C12.8706 13.3478 15.4514 14.9332 16.3049 15.5335C17.1584 16.1337 17.1584 16.628 17.1584 16.9635C17.1584 17.2318 17.1584 19.0996 17.1584 20M17.1584 4H6.81956M17.1584 4H19M17.1584 20H6.81956M17.1584 20H19M6.81956 20V16.9635C6.87038 16.6457 7.12756 15.9148 7.74971 15.5335C8.52739 15.0568 11.126 13.5855 11.126 11.7734C11.126 10.0702 8.49017 8.8527 7.65487 8.43276C6.81956 8.01281 6.81956 7.34032 6.81956 7.1999C6.81956 7.08757 6.81956 5.01983 6.81956 4M6.81956 20H5M6.81956 4H5" stroke="#FF843F" stroke-linecap="round"/>
</svg>
