<svg width="58" height="58" viewBox="0 0 58 58" fill="none" xmlns="http://www.w3.org/2000/svg">
<ellipse cx="29" cy="26" rx="24" ry="24" transform="rotate(-90 29 26)" fill="#ECECEC"/>
<g filter="url(#filter0_d_1439_645)">
<circle cx="29" cy="26" r="21" transform="rotate(-90 29 26)" fill="#F1742E"/>
<circle cx="29" cy="26" r="20.5" transform="rotate(-90 29 26)" stroke="white"/>
</g>
<path d="M32.7059 16.8696H34C35.1046 16.8696 36 17.7651 36 18.8696V34.0001C36 35.1046 35.1046 36.0001 34 36.0001H24C22.8954 36.0001 22 35.1046 22 34.0001V18.8696C22 17.7651 22.8954 16.8696 24 16.8696H25.2941" stroke="white" stroke-linecap="round"/>
<rect x="25.2939" y="16" width="7.41176" height="2.6087" rx="1.30435" stroke="white" stroke-linecap="round"/>
<path d="M25.2939 22.9568H32.7057" stroke="white" stroke-linecap="round"/>
<path d="M25.2939 26.4346H32.7057" stroke="white" stroke-linecap="round"/>
<defs>
<filter id="filter0_d_1439_645" x="0" y="0" width="58" height="58" filterUnits="userSpaceOnUse" color-interpolation-filters="sRGB">
<feFlood flood-opacity="0" result="BackgroundImageFix"/>
<feColorMatrix in="SourceAlpha" type="matrix" values="0 0 0 0 0 0 0 0 0 0 0 0 0 0 0 0 0 0 127 0" result="hardAlpha"/>
<feOffset dy="3"/>
<feGaussianBlur stdDeviation="4"/>
<feComposite in2="hardAlpha" operator="out"/>
<feColorMatrix type="matrix" values="0 0 0 0 0 0 0 0 0 0 0 0 0 0 0 0 0 0 0.2 0"/>
<feBlend mode="normal" in2="BackgroundImageFix" result="effect1_dropShadow_1439_645"/>
<feBlend mode="normal" in="SourceGraphic" in2="effect1_dropShadow_1439_645" result="shape"/>
</filter>
</defs>
</svg>
