<svg width="185" height="172" viewBox="0 0 185 172" fill="none" xmlns="http://www.w3.org/2000/svg">
<circle cx="89" cy="86" r="86" fill="#FFF5EF"/>
<path d="M22.7065 53.188C22.7065 50.7027 24.7213 48.688 27.2065 48.688H149.496C151.981 48.688 153.996 50.7027 153.996 53.188V130.159C153.996 132.644 151.981 134.659 149.496 134.659H37.2065C29.1984 134.659 22.7065 128.167 22.7065 120.159V53.188Z" fill="white" stroke="#FF843F"/>
<path fill-rule="evenodd" clip-rule="evenodd" d="M35.355 28.1484C28.0933 28.1484 22.2065 34.0352 22.2065 41.2969V117.229C22.2065 119.028 22.568 120.743 23.2222 122.305V117.929C23.2222 110.948 28.8816 105.289 35.8628 105.289C42.728 105.289 48.315 110.761 48.4988 117.582C48.5019 117.465 48.5034 117.347 48.5034 117.229V41.2969C48.5034 34.0352 42.6167 28.1484 35.355 28.1484Z" fill="#FF843F"/>
<path fill-rule="evenodd" clip-rule="evenodd" d="M158.199 131.111C157.074 130.104 156.886 128.425 157.64 127.117C160.438 122.264 162.039 116.633 162.039 110.629C162.039 92.369 147.236 77.5664 128.976 77.5664C110.716 77.5664 95.9136 92.369 95.9136 110.629C95.9136 128.889 110.716 143.691 128.976 143.691C135.845 143.691 142.225 141.597 147.512 138.011C148.722 137.19 150.349 137.224 151.439 138.2L169.433 154.306C171.448 156.109 174.543 155.937 176.346 153.923C178.149 151.908 177.977 148.813 175.963 147.01L158.199 131.111Z" fill="white"/>
<path d="M169.433 154.306L169.1 154.678L169.433 154.306ZM176.346 153.923L176.718 154.256L176.346 153.923ZM175.963 147.01L176.296 146.638L175.963 147.01ZM147.512 138.011L147.231 137.597L147.512 138.011ZM157.64 127.117L158.073 127.367L157.64 127.117ZM158.199 131.111L157.865 131.483L158.199 131.111ZM161.539 110.629C161.539 116.543 159.962 122.088 157.207 126.868L158.073 127.367C160.914 122.44 162.539 116.723 162.539 110.629H161.539ZM128.976 78.0664C146.96 78.0664 161.539 92.6451 161.539 110.629H162.539C162.539 92.0928 147.512 77.0664 128.976 77.0664V78.0664ZM96.4136 110.629C96.4136 92.6451 110.992 78.0664 128.976 78.0664V77.0664C110.44 77.0664 95.4136 92.0928 95.4136 110.629H96.4136ZM128.976 143.191C110.992 143.191 96.4136 128.613 96.4136 110.629H95.4136C95.4136 129.165 110.44 144.191 128.976 144.191V143.191ZM147.231 137.597C142.025 141.128 135.742 143.191 128.976 143.191V144.191C135.948 144.191 142.425 142.065 147.792 138.425L147.231 137.597ZM169.767 153.933L151.772 137.827L151.106 138.572L169.1 154.678L169.767 153.933ZM175.973 153.589C174.354 155.398 171.576 155.552 169.767 153.933L169.1 154.678C171.32 156.665 174.731 156.476 176.718 154.256L175.973 153.589ZM175.629 147.383C177.438 149.002 177.592 151.78 175.973 153.589L176.718 154.256C178.706 152.036 178.517 148.625 176.296 146.638L175.629 147.383ZM157.865 131.483L175.629 147.383L176.296 146.638L158.532 130.738L157.865 131.483ZM147.792 138.425C148.832 137.72 150.203 137.765 151.106 138.572L151.772 137.827C150.495 136.684 148.612 136.66 147.231 137.597L147.792 138.425ZM157.207 126.868C156.347 128.359 156.547 130.303 157.865 131.483L158.532 130.738C157.601 129.905 157.425 128.491 158.073 127.367L157.207 126.868Z" fill="#787878"/>
<circle cx="128.856" cy="110.5" r="27.7915" fill="white" stroke="#787878"/>
<path d="M66.142 23.333C66.2514 22.7961 66.7756 22.4497 67.3124 22.5597L113.318 31.9845C114.183 32.1617 114.402 33.2961 113.665 33.7829L58.2858 70.3739C57.5491 70.8607 56.5916 70.2141 56.7678 69.3488L66.142 23.333Z" fill="white"/>
<path d="M73.2492 34.0832C73.3548 33.5445 73.8779 33.1942 74.4162 33.3017L91.0456 36.6217C91.924 36.797 92.1379 37.955 91.3801 38.4326L71.6646 50.8583C70.9292 51.3218 69.9959 50.6819 70.1631 49.8289L73.2492 34.0832Z" fill="white"/>
<path d="M64.1665 61.3937L66.4068 64.7768M74.0873 54.8248L76.3276 58.2078M84.0048 48.2561L86.2451 51.6392M93.9256 41.6872L96.166 45.0702M103.843 35.1186L106.083 38.5016M58.2858 70.3739L113.665 33.7829C114.402 33.2961 114.183 32.1617 113.318 31.9845L67.3124 22.5597C66.7756 22.4497 66.2514 22.7961 66.142 23.333L56.7678 69.3488C56.5916 70.2141 57.5491 70.8607 58.2858 70.3739ZM71.6646 50.8583L91.3801 38.4326C92.1379 37.955 91.924 36.797 91.0456 36.6217L74.4162 33.3017C73.8779 33.1942 73.3548 33.5445 73.2492 34.0832L70.1631 49.8289C69.9959 50.6819 70.9292 51.3218 71.6646 50.8583Z" stroke="#787878" stroke-linecap="round"/>
<path d="M176.543 19.0898C175.303 20.6394 168.019 29.0328 164.533 33.0359M184.007 35.9577L169.818 40.3234M158.904 16L156.097 28.3176" stroke="#787878" stroke-linecap="round"/>
<path d="M5.71264 133.002C6.8655 131.979 13.5421 126.51 16.7361 123.904M2.21375 119.111L13.647 117.632" stroke="#787878" stroke-linecap="round"/>
</svg>
