<svg width="81" height="80" viewBox="0 0 81 80" fill="none" xmlns="http://www.w3.org/2000/svg">
<ellipse cx="40.1116" cy="40" rx="40.1116" ry="40" transform="matrix(-1 0 0 1 80.2231 0)" fill="#FFF5EF"/>
<path d="M6.19876 69.1944C6.92137 68.4809 11.123 64.6494 13.1334 62.8229M3.38003 60.189L10.8654 58.8105" stroke="#787878" stroke-linecap="round"/>
<ellipse cx="9.61135" cy="9.30268" rx="9.61135" ry="9.30268" transform="matrix(-1 0 0 1 46.2354 14.162)" fill="white" stroke="#787878"/>
<path d="M18.7739 56.2821V54.2227C18.7739 44.3646 26.7654 36.373 36.6235 36.373C46.4816 36.373 54.4731 44.3646 54.4731 54.2227V56.2821H18.7739Z" fill="white"/>
<path d="M18.7739 56.2821V54.2227C18.7739 44.3646 26.7654 36.373 36.6235 36.373V36.373C46.4816 36.373 54.4731 44.3646 54.4731 54.2227V56.2821" stroke="#787878"/>
<path d="M45.0764 36.9223C43.9718 36.9223 43.0764 37.8178 43.0764 38.9223V57.0762C43.0764 58.1807 43.9718 59.0762 45.0764 59.0762C53.179 59.0762 61.2815 59.0762 69.3841 59.0762C70.4887 59.0762 71.3841 58.1807 71.3841 57.0762V38.9223C71.3841 37.8178 70.4887 36.9223 69.3841 36.9223H45.0764Z" fill="white" stroke="#F1742E"/>
<path d="M46.7688 41.8454L57.2303 49.23L68.3073 41.8454" stroke="#F1742E"/>
</svg>
