
<?xml version="1.0" encoding="UTF-8"?>
<svg version="1.1" xmlns="http://www.w3.org/2000/svg" width="800" height="800">
<path d="M0 0 C264 0 528 0 800 0 C800 264 800 528 800 800 C536 800 272 800 0 800 C0 536 0 272 0 0 Z " fill="#FEFEFE" transform="translate(0,0)"/>
<path d="M0 0 C264 0 528 0 800 0 C800 264 800 528 800 800 C536 800 272 800 0 800 C0 536 0 272 0 0 Z M361 77 C359.93313965 77.12890625 358.8662793 77.2578125 357.76708984 77.390625 C301.65641038 84.3933156 246.18079569 106.33891698 202 142 C200.75089844 142.97839844 200.75089844 142.97839844 199.4765625 143.9765625 C196.95974874 145.95580439 194.47594722 147.96987066 192 150 C190.989375 150.82371094 189.97875 151.64742188 188.9375 152.49609375 C175.58152471 163.56174181 162.60718291 175.78590786 151.9453125 189.5 C149.82204682 192.22869484 147.57262948 194.82127295 145.3125 197.4375 C133.58166172 211.53636464 123.80620672 226.94658009 115 243 C114.55060059 243.80453613 114.10120117 244.60907227 113.63818359 245.43798828 C78.50643533 308.53555531 67.17371923 383.02380791 79 454 C79.19303711 455.19979492 79.38607422 456.39958984 79.58496094 457.63574219 C91.52203339 529.3953846 131.76745114 602.48319229 189.32421875 647.87890625 C192.0966596 650.07662214 194.759216 652.37630947 197.4375 654.6875 C212.15388291 666.91954507 228.23884553 676.84938759 245 686 C246.47793027 686.82149642 247.95579803 687.64310532 249.43359375 688.46484375 C270.48723524 700.03267172 293.7158342 709.12920606 317 715 C317.69738281 715.18626953 318.39476562 715.37253906 319.11328125 715.56445312 C363.11593711 727.22103402 409.19657626 728.07569154 454 721 C455.23395508 720.80696289 456.46791016 720.61392578 457.73925781 720.41503906 C487.59551989 715.49953119 516.82464277 705.19007805 544 692 C544.77746582 691.62311035 545.55493164 691.2462207 546.35595703 690.85791016 C571.30772204 678.57218358 594.31766581 662.54034982 615 644 C615.75821045 643.32638428 615.75821045 643.32638428 616.53173828 642.63916016 C627.67671349 632.71763464 638.62442114 622.40944953 647.87890625 610.67578125 C650.07662214 607.9033404 652.37630947 605.240784 654.6875 602.5625 C666.33146344 588.55363856 675.98354656 573.30035072 684.71289062 557.34375 C685.84640458 555.27968818 687.00288784 553.23158261 688.171875 551.1875 C694.50979323 539.94100018 699.22970272 527.97421361 704 516 C704.33418945 515.17483887 704.66837891 514.34967773 705.01269531 513.49951172 C712.5899845 494.6832381 717.32050684 475.01259265 720.8125 455.0625 C721.00730957 453.95213379 721.20211914 452.84176758 721.40283203 451.69775391 C724.16768914 434.98437537 725.41348509 418.30355314 725.375 401.375 C725.37468277 400.06354004 725.37468277 400.06354004 725.37435913 398.72558594 C725.16000011 308.77200591 687.2065412 227.0190412 624.1965332 164.0090332 C619.89486481 159.77335397 615.41855537 155.86177667 610.67578125 152.12109375 C607.9033404 149.92337786 605.240784 147.62369053 602.5625 145.3125 C560.63528532 110.52525913 507.57100852 87.85270325 454 79 C452.845 78.80390137 451.69 78.60780273 450.5 78.40576172 C420.98116727 73.54294755 390.68981975 73.34158591 361 77 Z " fill="#FEFEFE" transform="translate(0,0)"/>
<path d="M0 0 C1.72227819 0.29389698 3.44631437 0.57744634 5.17053223 0.85974121 C32.91801584 5.53880189 60.67906997 16.0802982 85.90783691 28.32556152 C86.68530273 28.70245117 87.46276855 29.07934082 88.26379395 29.46765137 C113.21555896 41.75337794 136.22550272 57.78521171 156.90783691 76.32556152 C157.66604736 76.99917725 157.66604736 76.99917725 158.4395752 77.68640137 C169.58455041 87.60792688 180.53225805 97.91611199 189.78674316 109.64978027 C191.98445905 112.42222113 194.28414639 115.08477753 196.59533691 117.76306152 C231.23669419 159.51445046 254.76619417 212.73982754 262.90783691 266.32556152 C263.08975586 267.50070312 263.2716748 268.67584473 263.45910645 269.88659668 C268.27876034 302.1330553 269.09581788 335.0689735 263.90783691 367.32556152 C263.73623047 368.45171875 263.56462402 369.57787598 263.38781738 370.73815918 C260.82645379 387.35383241 257.16906807 403.35836722 251.90783691 419.32556152 C251.57799805 420.33151367 251.24815918 421.33746582 250.9083252 422.37390137 C232.59972609 477.38667541 198.6171176 531.89729383 152.58361816 568.20446777 C149.81117731 570.40218366 147.14862091 572.701871 144.47033691 575.01306152 C100.58311349 611.42653243 45.0647897 634.13418693 -11.09216309 642.32556152 C-12.17416992 642.48927246 -13.25617676 642.6529834 -14.37097168 642.82165527 C-57.46466744 649.12201738 -102.20516988 646.15409044 -144.09216309 634.32556152 C-145.53752441 633.92748291 -145.53752441 633.92748291 -147.01208496 633.5213623 C-186.63300516 622.51043216 -223.63654833 603.50743567 -256.09216309 578.32556152 C-256.90813965 577.69263184 -257.72411621 577.05970215 -258.56481934 576.40759277 C-261.09889659 574.40917412 -263.59946059 572.37536093 -266.09216309 570.32556152 C-267.10407715 569.50056152 -268.11599121 568.67556152 -269.15856934 567.82556152 C-282.51403699 556.76270035 -295.48638379 544.53784823 -306.14685059 530.82556152 C-308.27011626 528.09686668 -310.51953361 525.50428857 -312.77966309 522.88806152 C-324.42362653 508.87920008 -334.07570964 493.62591224 -342.80505371 477.66931152 C-343.93856766 475.6052497 -345.09505093 473.55714414 -346.26403809 471.51306152 C-364.1655049 439.76685607 -374.64379723 403.19104085 -380.09216309 367.32556152 C-380.24459473 366.3855127 -380.39702637 365.44546387 -380.55407715 364.47692871 C-393.35848215 283.86172225 -370.92772767 198.31382495 -323.6619873 132.32897949 C-307.91298652 110.6357831 -289.88546651 89.10229867 -268.76794434 72.44665527 C-265.99550348 70.24893939 -263.33294708 67.94925205 -260.65466309 65.63806152 C-246.55463119 53.90625204 -231.14153782 44.14165141 -215.09216309 35.32556152 C-214.3364502 34.90323242 -213.5807373 34.48090332 -212.80212402 34.04577637 C-179.76243591 15.62986456 -143.46280036 3.88066252 -106.09216309 -1.48693848 C-105.36371185 -1.59234955 -104.63526062 -1.69776062 -103.88473511 -1.80636597 C-69.20870945 -6.7528084 -34.47261188 -5.89481457 0 0 Z M-109.09216309 49.32556152 C-109.96083008 49.48041016 -110.82949707 49.63525879 -111.7244873 49.7947998 C-116.91236379 50.74987676 -122.00133716 51.94746119 -127.09216309 53.32556152 C-127.93666016 53.55050293 -128.78115723 53.77544434 -129.65124512 54.00720215 C-161.67069104 62.70171764 -191.03769666 77.27011605 -218.09216309 96.32556152 C-218.70414551 96.7561084 -219.31612793 97.18665527 -219.94665527 97.63024902 C-223.41301635 100.0941145 -226.77254269 102.66800025 -230.09216309 105.32556152 C-231.11310059 106.14282715 -232.13403809 106.96009277 -233.18591309 107.80212402 C-240.82932237 114.07715671 -247.89193884 120.92147766 -254.90466309 127.88806152 C-256.21165161 129.18115234 -256.21165161 129.18115234 -257.54504395 130.50036621 C-295.45871287 168.59795952 -321.13750979 220.85879028 -329.67028809 273.7244873 C-329.94913777 275.44373761 -330.24059926 277.16099488 -330.54528809 278.87585449 C-334.95669949 303.90395905 -334.88780591 331.19578837 -331.09216309 356.32556152 C-330.95262207 357.2820459 -330.81308105 358.23853027 -330.66931152 359.22399902 C-328.85642469 371.44847583 -326.78497503 383.51162789 -323.09216309 395.32556152 C-322.80244629 396.27205566 -322.51272949 397.2185498 -322.2142334 398.19372559 C-305.76789454 451.4292094 -274.27516801 502.52725075 -229.09216309 536.32556152 C-228.45762207 536.80412598 -227.82308105 537.28269043 -227.16931152 537.77575684 C-170.78375042 580.11046284 -99.24189988 603.62283073 -28.35461426 594.3145752 C-26.2634802 594.00518714 -24.17848831 593.66583607 -22.09216309 593.32556152 C-20.1351942 593.03087624 -18.17815769 592.73663986 -16.22106934 592.44274902 C-4.97671985 590.70739646 6.03643397 588.72375622 16.90783691 585.32556152 C17.85433105 585.03584473 18.8008252 584.74612793 19.77600098 584.44763184 C54.46898832 573.7297312 87.02613416 557.83183847 114.90783691 534.32556152 C115.81404785 533.60239746 116.72025879 532.8792334 117.65393066 532.13415527 C125.06230859 526.10364126 131.8846054 519.55962426 138.65783691 512.82556152 C139.53286865 511.95971436 140.40790039 511.09386719 141.30944824 510.20178223 C190.292728 460.9869906 217.09043681 390.71249699 217.15783691 321.76306152 C217.15984604 320.54559235 217.15984604 320.54559235 217.16189575 319.30352783 C217.15491212 299.68433499 215.31722781 280.47615141 210.90783691 261.32556152 C210.64486816 260.05970215 210.38189941 258.79384277 210.11096191 257.48962402 C197.63520388 198.8634739 161.17177925 140.42851052 112.90783691 104.32556152 C112.2732959 103.84699707 111.63875488 103.36843262 110.98498535 102.87536621 C100.03943707 94.65736572 88.78182342 87.13481445 76.90783691 80.32556152 C76.1701709 79.90178223 75.43250488 79.47800293 74.67248535 79.04138184 C49.21647063 64.61076086 20.73959445 54.33773934 -8.09216309 49.32556152 C-9.07313965 49.14364258 -10.05411621 48.96172363 -11.06481934 48.77429199 C-43.36936975 42.91289887 -76.83463004 43.43541842 -109.09216309 49.32556152 Z " fill="#010101" transform="translate(458.0921630859375,79.6744384765625)"/>
<path d="M0 0 C6.24222446 3.80562175 9.4779658 9.25046998 12 16 C12.62835839 19.64597986 12.63711655 23.17319722 12.56762695 26.86572266 C12.56872215 28.41873077 12.56872215 28.41873077 12.56983948 30.00311279 C12.56638432 33.39064805 12.52762013 36.77677049 12.48828125 40.1640625 C12.47894579 42.52630869 12.47183315 44.88856461 12.46684265 47.25082397 C12.44783084 53.44223157 12.39877953 59.63304465 12.34332275 65.82421875 C12.29200496 72.15226196 12.26930186 78.48040204 12.24414062 84.80859375 C12.19065568 97.20598913 12.10541307 109.60294496 12 122 C13.92440163 121.99000725 13.92440163 121.99000725 15.88768005 121.97981262 C27.99623724 121.91891655 40.10476323 121.8739865 52.21343899 121.84456348 C58.4381748 121.82892816 64.66278668 121.80772861 70.88745117 121.77368164 C76.89803849 121.7410125 82.90850683 121.72313094 88.9191761 121.71536827 C91.20882095 121.70983835 93.49845951 121.69903982 95.78805351 121.68280983 C99.00264275 121.6609355 102.21674443 121.6580373 105.43139648 121.65942383 C106.84157547 121.64324509 106.84157547 121.64324509 108.28024292 121.6267395 C116.6391127 121.66558355 124.19823379 123.25476787 130.42578125 129.1484375 C135.54787958 135.17294025 137.82340293 141.43140911 137.421875 149.328125 C136.31941634 156.31036317 133.01218673 162.1017266 128 167 C122.75563801 170.26594998 117.77591593 172.12774869 111.57073975 172.12025452 C110.24988373 172.12231651 110.24988373 172.12231651 108.90234375 172.12442017 C107.94424805 172.12082489 106.98615234 172.11722961 105.99902344 172.11352539 C104.98406799 172.11367142 103.96911255 172.11381744 102.92340088 172.1139679 C99.56870384 172.11327124 96.21406234 172.10549036 92.859375 172.09765625 C90.53338654 172.09579119 88.20739769 172.0943677 85.88140869 172.09336853 C79.75922562 172.08955027 73.63706627 172.07972584 67.51489258 172.06866455 C61.26774415 172.05843561 55.02059189 172.05386773 48.7734375 172.04882812 C36.51561458 172.03810298 24.25780926 172.02103481 12 172 C12.00888245 173.29546249 12.01776489 174.59092499 12.0269165 175.92564392 C12.10810809 188.15190815 12.16801634 200.37811746 12.20724869 212.60459042 C12.22809671 218.88990987 12.25636406 225.17501116 12.30175781 231.46020508 C12.345314 237.52915648 12.36915805 243.59789841 12.37950897 249.66699409 C12.38688273 251.97898212 12.40128192 254.29095907 12.42292023 256.60285759 C12.45208331 259.84868757 12.4559505 263.09365907 12.45410156 266.33959961 C12.46848267 267.28906967 12.48286377 268.23853973 12.49768066 269.21678162 C12.45053983 276.89711214 10.3384683 283.12157044 5.75 289.3125 C0.34745128 294.59226352 -6.11823353 297.0571239 -13.625 297.375 C-20.37373162 297.28541507 -25.73899967 294.76670133 -30.85546875 290.42578125 C-37.54228921 283.34270477 -38.44787133 274.78350727 -38.34057617 265.43139648 C-38.34123329 263.90786812 -38.34123329 263.90786812 -38.34190369 262.3535614 C-38.3398284 259.02587059 -38.31655675 255.6986956 -38.29296875 252.37109375 C-38.28736832 250.05225398 -38.28310034 247.73341064 -38.28010559 245.41456604 C-38.26869207 239.33346631 -38.2392549 233.25258407 -38.20599365 227.17156982 C-38.1752174 220.95750876 -38.16158413 214.74341231 -38.14648438 208.52929688 C-38.1143819 196.35276942 -38.06322785 184.17640285 -38 172 C-39.30576996 172.01110306 -40.61153992 172.02220612 -41.95687866 172.03364563 C-54.28581615 172.13517456 -66.61466838 172.21003905 -78.94392967 172.25906086 C-85.28197074 172.28511113 -91.61967327 172.32042669 -97.95751953 172.37719727 C-104.07835831 172.43167849 -110.19887223 172.46145489 -116.31993484 172.47438622 C-118.65065242 172.48359707 -120.981353 172.50158372 -123.31193161 172.52865028 C-126.58643221 172.56515345 -129.85960476 172.56993629 -133.13427734 172.56762695 C-134.08950287 172.58560333 -135.04472839 172.60357971 -136.02890015 172.62210083 C-143.65540023 172.56422023 -150.10890721 170.4090633 -155.91605186 165.32130909 C-161.10289926 159.96447814 -163.06377847 153.3864299 -163.5 146.0625 C-163.26612781 139.52424702 -160.67515906 134.0182911 -156.35546875 129.14453125 C-149.34078819 122.73156144 -142.68838385 121.5565518 -133.47485352 121.65942383 C-132.43995285 121.65898575 -131.40505219 121.65854767 -130.33879089 121.65809631 C-126.93530073 121.6601779 -123.53230983 121.68347977 -120.12890625 121.70703125 C-117.76236744 121.71262943 -115.39582515 121.71689848 -113.02928162 121.71989441 C-106.81334768 121.73132562 -100.59762544 121.76077824 -94.3817749 121.79400635 C-88.0338426 121.82474424 -81.68587596 121.83840771 -75.33789062 121.85351562 C-62.89183429 121.88564937 -50.44593478 121.93682509 -38 122 C-38.01110306 120.69423004 -38.02220612 119.38846008 -38.03364563 118.04312134 C-38.13517456 105.71418385 -38.21003905 93.38533162 -38.25906086 81.05607033 C-38.28511113 74.71802926 -38.32042669 68.38032673 -38.37719727 62.04248047 C-38.43167849 55.92164169 -38.46145489 49.80112777 -38.47438622 43.68006516 C-38.48359707 41.34934758 -38.50158372 39.018647 -38.52865028 36.68806839 C-38.56515345 33.41356779 -38.56993629 30.14039524 -38.56762695 26.86572266 C-38.58560333 25.91049713 -38.60357971 24.95527161 -38.62210083 23.97109985 C-38.56435362 16.3621748 -36.45397124 9.80083998 -31.25880909 4.08394814 C-22.28817292 -4.26975595 -10.85745015 -5.31752214 0 0 Z " fill="#000000" transform="translate(413,253)"/>
</svg>