<svg width="16" height="17" viewBox="0 0 16 17" fill="none" xmlns="http://www.w3.org/2000/svg">
<path d="M13.1877 0.5V3.6999C13.1596 3.95296 12.9495 4.55381 12.3342 4.93276C11.565 5.40644 8.89986 6.71283 8.89986 8.27342C8.89986 9.84782 11.4807 11.4332 12.3342 12.0335C13.1877 12.6337 13.1877 13.128 13.1877 13.4635C13.1877 13.7318 13.1877 15.5996 13.1877 16.5M13.1877 0.5H2.84886M13.1877 0.5H15.0293M13.1877 16.5H2.84886M13.1877 16.5H15.0293M2.84886 16.5V13.4635C2.89968 13.1457 3.15686 12.4148 3.779 12.0335C4.55668 11.5568 7.15528 10.0855 7.15528 8.27342C7.15528 6.5702 4.51947 5.3527 3.68416 4.93276C2.84886 4.51281 2.84886 3.84032 2.84886 3.6999C2.84886 3.58757 2.84886 1.51983 2.84886 0.5M2.84886 16.5H1.0293M2.84886 0.5H1.0293" stroke="#F1742E" stroke-linecap="round"/>
</svg>
