<svg width="18" height="18" viewBox="0 0 18 18" fill="none" xmlns="http://www.w3.org/2000/svg">
<path d="M9.48311 5.44434H6.76367C6.48753 5.44434 6.26367 5.66819 6.26367 5.94434V12.0557C6.26367 12.3318 6.48753 12.5557 6.76367 12.5557H11.2339C11.5101 12.5557 11.7339 12.3318 11.7339 12.0557V7.64072M9.48311 5.44434V7.14072C9.48311 7.41686 9.70697 7.64072 9.98311 7.64072H11.7339M9.48311 5.44434L11.7339 7.64072" stroke="#36415D" stroke-linecap="round"/>
<path d="M11.4563 2.9881C10.7111 2.689 9.89741 2.52441 9.04529 2.52441C5.46872 2.52441 2.56934 5.4238 2.56934 9.00037C2.56934 9.8051 2.71612 10.5755 2.98437 11.2864M14.9741 6.39102C15.3259 7.18927 15.5212 8.072 15.5212 9.00037C15.5212 12.5769 12.6219 15.4763 9.04529 15.4763C8.13607 15.4763 7.27061 15.2889 6.48542 14.9507" stroke="#36415D" stroke-linecap="round"/>
<path d="M13.6529 7.78508L14.6866 5.59228L16.8794 6.62592" stroke="#36415D" stroke-linecap="round"/>
<path d="M4.34511 10.0015L3.31147 12.1943L1.11866 11.1607" stroke="#36415D" stroke-linecap="round"/>
</svg>
