<svg width="24" height="25" viewBox="0 0 24 25" fill="none" xmlns="http://www.w3.org/2000/svg">
<path d="M18 21.371C19.6569 21.371 21 20.0278 21 18.371C21 16.7141 19.6569 15.371 18 15.371C16.3431 15.371 15 16.7141 15 18.371C15 20.0278 16.3431 21.371 18 21.371Z" stroke="#36415D" stroke-linecap="round" stroke-linejoin="round"/>
<path d="M6 9.37097C7.65685 9.37097 9 8.02783 9 6.37097C9 4.71412 7.65685 3.37097 6 3.37097C4.34315 3.37097 3 4.71412 3 6.37097C3 8.02783 4.34315 9.37097 6 9.37097Z" stroke="#36415D" stroke-linecap="round" stroke-linejoin="round"/>
<path d="M13 6.37097H16C16.5304 6.37097 17.0391 6.58169 17.4142 6.95676C17.7893 7.33183 18 7.84054 18 8.37097V15.371" stroke="#36415D" stroke-linecap="round" stroke-linejoin="round"/>
<path d="M6 9.37097V21.371" stroke="#36415D" stroke-linecap="round" stroke-linejoin="round"/>
</svg>
