<svg width="18" height="20" viewBox="0 0 18 20" fill="none" xmlns="http://www.w3.org/2000/svg">
<path d="M17 17.5556C17 17.9386 16.8314 18.306 16.5314 18.5769C16.2313 18.8478 15.8243 19 15.4 19H2.6C2.17565 19 1.76869 18.8478 1.46863 18.5769C1.16857 18.306 1 17.9386 1 17.5556V7.44444C1 7.06135 1.16857 6.69395 1.46863 6.42307C1.76869 6.15218 2.17565 6 2.6 6H6.6L8.2 8.16667H15.4C15.8243 8.16667 16.2313 8.31885 16.5314 8.58973C16.8314 8.86062 17 9.22802 17 9.61111V17.5556Z" stroke="#F1742E" stroke-linecap="round" stroke-linejoin="round"/>
<path d="M15 8V4.5L12.9406 2.73474L11 1H3V5.66667" stroke="#F1742E" stroke-linecap="round" stroke-linejoin="round"/>
<path d="M10.9126 1.16748V3.91801C10.9126 4.4703 11.3603 4.91801 11.9126 4.91801H14.931" stroke="#F1742E" stroke-linecap="round"/>
</svg>
