<svg width="16" height="18" viewBox="0 0 16 18" fill="none" xmlns="http://www.w3.org/2000/svg">
<path d="M14.8746 8.81834C14.8746 12.899 11.6769 16.207 7.73224 16.207C6.83198 16.207 5.97062 16.0347 5.1773 15.7202C4.28151 15.3651 3.47246 14.8288 2.79211 14.1546C2.09428 13.4631 1.53184 12.6265 1.15005 11.6917C0.789307 10.8084 0.589844 9.83748 0.589844 8.81834C0.589844 4.7377 3.7876 1.42969 7.73224 1.42969C8.71742 1.42969 9.65601 1.63603 10.5098 2.00921C11.4135 2.40416 12.2222 2.98599 12.8906 3.70788C13.4879 4.3529 13.9733 5.10973 14.3144 5.94497C14.6752 6.82824 14.8746 7.79919 14.8746 8.81834Z" fill="#F5F5F5"/>
<path d="M14.8746 8.81834C14.8746 12.899 11.6769 16.207 7.73224 16.207C6.83198 16.207 5.97062 16.0347 5.1773 15.7202C4.28151 15.3651 3.47246 14.8288 2.79211 14.1546M0.589844 8.81834C0.589844 4.7377 3.7876 1.42969 7.73224 1.42969C8.71742 1.42969 9.65601 1.63603 10.5098 2.00921C11.4135 2.40416 12.2222 2.98599 12.8906 3.70788" stroke="#888888" stroke-linecap="round"/>
<path d="M13.779 1.64785L13.7694 3.51381C13.7666 4.07551 13.3239 4.52854 12.781 4.52555L10.9772 4.51561" stroke="#888888" stroke-linecap="round"/>
<path d="M2.37525 16.7018L2.38485 14.8358C2.38774 14.2741 2.83036 13.8211 3.37334 13.8241L5.17711 13.834" stroke="#888888" stroke-linecap="round"/>
<path d="M11.699 6.35742L7.5489 11.2144C7.14971 11.6816 6.42756 11.6816 6.02838 11.2144L4.55664 9.492" stroke="#888888" stroke-linecap="round"/>
</svg>
