<svg width="118" height="116" viewBox="0 0 118 116" fill="none" xmlns="http://www.w3.org/2000/svg">
<ellipse cx="56.1294" cy="56.3528" rx="56.1294" ry="56.3528" transform="matrix(-1 0 0 1 112.259 0)" fill="#FFF5EF"/>
<path d="M108.996 11.2794C107.265 12.6557 97.2596 19.977 92.4736 23.4657M113.477 31.2366L96.7024 32.577M90.0716 3.7626L84.1579 16.3771" stroke="#787878" stroke-linecap="round"/>
<path d="M21.023 113.687C21.7169 111.828 26.011 101.586 28.0712 96.6978M8.67388 99.9542L20.7796 91.4036" stroke="#787878" stroke-linecap="round"/>
<ellipse cx="40.037" cy="40.4883" rx="11.8671" ry="11.5639" fill="white" stroke="#787878"/>
<path d="M42.0777 56.536H38C26.9543 56.536 18 65.4903 18 76.536V81.2842H62.0777V76.536C62.0777 65.4903 53.1234 56.536 42.0777 56.536Z" fill="white"/>
<path d="M62.0777 81.2842V76.536C62.0777 65.4903 53.1234 56.536 42.0777 56.536H38C26.9543 56.536 18 65.4903 18 76.536V81.2842" stroke="#787878"/>
<ellipse cx="60.5881" cy="35.0484" rx="13.4494" ry="13.1058" fill="white" stroke="#787878"/>
<path d="M65.5674 53.236H55.6123C44.5666 53.236 35.6123 62.1903 35.6123 73.236V81.2842H85.5674V73.236C85.5674 62.1903 76.6131 53.236 65.5674 53.236Z" fill="white"/>
<path d="M85.5674 81.2842V73.236C85.5674 62.1903 76.6131 53.236 65.5674 53.236H55.6123C44.5666 53.236 35.6123 62.1903 35.6123 73.236V81.2842" stroke="#787878"/>
<ellipse cx="14.9417" cy="14.9609" rx="14.9417" ry="14.9609" transform="matrix(-1 0 0 1 99.1777 57.8489)" fill="white" stroke="#F1742E"/>
<path d="M84.2363 77V65" stroke="#F1742E" stroke-linecap="round"/>
<path d="M79.2147 70.0216L84.2362 65L89.2578 70.0216" stroke="#F1742E" stroke-linecap="round"/>
<path d="M78 80H91" stroke="#F1742E" stroke-linecap="round"/>
</svg>
