<svg width="69" height="66" viewBox="0 0 69 66" fill="none" xmlns="http://www.w3.org/2000/svg">
<g filter="url(#filter0_d_293_1936)">
<ellipse cx="33.0078" cy="33" rx="29" ry="29" transform="rotate(-90 33.0078 33)" fill="white"/>
</g>
<ellipse cx="29.0078" cy="34" rx="24" ry="24" transform="rotate(-90 29.0078 34)" fill="#ECECEC"/>
<g filter="url(#filter1_d_293_1936)">
<circle cx="29.0078" cy="34" r="21" transform="rotate(-90 29.0078 34)" fill="#FF843F"/>
<circle cx="29.0078" cy="34" r="20.5" transform="rotate(-90 29.0078 34)" stroke="white"/>
</g>
<path d="M19.6602 38.5769V40.9531C19.6602 41.5054 20.1079 41.9531 20.6602 41.9531H37.354C37.9063 41.9531 38.354 41.5054 38.354 40.9531V38.5769" stroke="white" stroke-linecap="round"/>
<path d="M29.0039 37.9971L29.0039 24.0469" stroke="white" stroke-linecap="round"/>
<path d="M24.3125 28.74L29.0056 24.0469L33.6987 28.74" stroke="white" stroke-linecap="round"/>
<defs>
<filter id="filter0_d_293_1936" x="3.00781" y="0" width="66" height="66" filterUnits="userSpaceOnUse" color-interpolation-filters="sRGB">
<feFlood flood-opacity="0" result="BackgroundImageFix"/>
<feColorMatrix in="SourceAlpha" type="matrix" values="0 0 0 0 0 0 0 0 0 0 0 0 0 0 0 0 0 0 127 0" result="hardAlpha"/>
<feOffset dx="3"/>
<feGaussianBlur stdDeviation="2"/>
<feComposite in2="hardAlpha" operator="out"/>
<feColorMatrix type="matrix" values="0 0 0 0 0 0 0 0 0 0 0 0 0 0 0 0 0 0 0.25 0"/>
<feBlend mode="normal" in2="BackgroundImageFix" result="effect1_dropShadow_293_1936"/>
<feBlend mode="normal" in="SourceGraphic" in2="effect1_dropShadow_293_1936" result="shape"/>
</filter>
<filter id="filter1_d_293_1936" x="0.0078125" y="8" width="58" height="58" filterUnits="userSpaceOnUse" color-interpolation-filters="sRGB">
<feFlood flood-opacity="0" result="BackgroundImageFix"/>
<feColorMatrix in="SourceAlpha" type="matrix" values="0 0 0 0 0 0 0 0 0 0 0 0 0 0 0 0 0 0 127 0" result="hardAlpha"/>
<feOffset dy="3"/>
<feGaussianBlur stdDeviation="4"/>
<feComposite in2="hardAlpha" operator="out"/>
<feColorMatrix type="matrix" values="0 0 0 0 0 0 0 0 0 0 0 0 0 0 0 0 0 0 0.2 0"/>
<feBlend mode="normal" in2="BackgroundImageFix" result="effect1_dropShadow_293_1936"/>
<feBlend mode="normal" in="SourceGraphic" in2="effect1_dropShadow_293_1936" result="shape"/>
</filter>
</defs>
</svg>
