<svg width="24" height="24" viewBox="0 0 24 24" fill="none" xmlns="http://www.w3.org/2000/svg">
<path d="M16.7447 20.0251V20.0251C16.7447 17.0749 14.3533 14.6833 11.4031 14.6833C10.1955 14.6833 8.97535 14.6833 7.84177 14.6833C4.89159 14.6833 2.5 17.0749 2.5 20.0251V20.0251" stroke="#F1742E" stroke-linecap="round" stroke-linejoin="round"/>
<path d="M9.6188 11.1224C11.5856 11.1224 13.18 9.52796 13.18 7.56118C13.18 5.59439 11.5856 4 9.6188 4C7.65201 4 6.05762 5.59439 6.05762 7.56118C6.05762 9.52796 7.65201 11.1224 9.6188 11.1224Z" stroke="#F1742E" stroke-linecap="round"/>
<path d="M21.26 20.0251V18.2445C21.2599 18.0652 21.2598 17.7895 21.2598 17.4704C21.2596 15.9954 20.0641 14.7991 18.5891 14.7991V14.7991H17.7031" stroke="#F1742E" stroke-linecap="round" stroke-linejoin="round"/>
<path d="M15.855 4.11523C16.621 4.31137 17.3 4.75687 17.7848 5.38151C18.2697 6.00615 18.5328 6.77439 18.5328 7.56513C18.5328 8.35586 18.2697 9.1241 17.7848 9.74874C17.3 10.3734 16.621 10.8189 15.855 11.015" stroke="#F1742E" stroke-linecap="round" stroke-linejoin="round"/>
</svg>
