<svg width="16" height="17" viewBox="0 0 16 17" fill="none" xmlns="http://www.w3.org/2000/svg">
<path d="M14.6635 15.5769V15.5769C14.6635 12.8161 12.4256 10.5781 9.66487 10.5781C8.53487 10.5781 7.39304 10.5781 6.33225 10.5781C3.57151 10.5781 1.3335 12.8161 1.3335 15.5769V15.5769" fill="#F5F5F5"/>
<path d="M14.6635 15.5769V15.5769C14.6635 12.8161 12.4256 10.5781 9.66487 10.5781C8.53487 10.5781 7.39304 10.5781 6.33225 10.5781C3.57151 10.5781 1.3335 12.8161 1.3335 15.5769V15.5769" stroke="#888888" stroke-linecap="round" stroke-linejoin="round"/>
<path d="M7.9951 7.24581C9.83559 7.24581 11.3276 5.7538 11.3276 3.91331C11.3276 2.07282 9.83559 0.580811 7.9951 0.580811C6.15461 0.580811 4.6626 2.07282 4.6626 3.91331C4.6626 5.7538 6.15461 7.24581 7.9951 7.24581Z" fill="#F5F5F5" stroke="#888888" stroke-linecap="round"/>
</svg>
