<svg width="16" height="17" viewBox="0 0 16 17" fill="none" xmlns="http://www.w3.org/2000/svg">
<path d="M14.5409 15.5769V15.5C14.5409 12.7817 12.3376 10.5781 9.61931 10.5781C8.46423 10.5781 7.29458 10.5781 6.20969 10.5781C3.44896 10.5781 1.21094 12.8161 1.21094 15.5769" fill="#F5F5F5"/>
<path d="M14.5409 15.5769V15.5V15.5C14.5409 12.7817 12.3376 10.5781 9.61931 10.5781C8.46423 10.5781 7.29458 10.5781 6.20969 10.5781C3.44896 10.5781 1.21094 12.8161 1.21094 15.5769V15.5769" stroke="#888888" stroke-linecap="round" stroke-linejoin="round"/>
<path d="M7.87352 7.24508C9.714 7.24508 11.206 5.75307 11.206 3.91258C11.206 2.07209 9.714 0.580078 7.87352 0.580078C6.03303 0.580078 4.54102 2.07209 4.54102 3.91258C4.54102 5.75307 6.03303 7.24508 7.87352 7.24508Z" fill="#F5F5F5" stroke="#888888" stroke-linecap="round"/>
</svg>
