<svg width="19" height="18" viewBox="0 0 19 18" fill="none" xmlns="http://www.w3.org/2000/svg">
<path d="M8.96256 0.8699C9.09953 0.601144 9.31423 0.5 9.5 0.5C9.68577 0.5 9.90046 0.601144 10.0374 0.8699L17.9008 16.2985C18.0413 16.5743 18.0245 16.8873 17.9008 17.1301C17.7773 17.3723 17.5762 17.5 17.3633 17.5H1.63667C1.42382 17.5 1.22267 17.3723 1.09923 17.1301C0.975476 16.8873 0.958666 16.5743 1.09923 16.2985L8.96256 0.8699Z" stroke="#36415D"/>
<path d="M9.5 6.42871V10.9287" stroke="#36415D" stroke-linecap="round"/>
<path d="M10.3509 13.8217C10.3509 14.3543 9.96979 14.786 9.49967 14.786C9.02955 14.786 8.64844 14.3543 8.64844 13.8217C8.64844 13.2891 9.02955 12.8574 9.49967 12.8574C9.96979 12.8574 10.3509 13.2891 10.3509 13.8217Z" fill="#5A5A5A"/>
</svg>
